<?xml version='1.0' encoding='utf-8'?>
<svg xmlns="http://www.w3.org/2000/svg" width="210mm" height="297mm" viewBox="0 0 707071 1000000"><defs><style>.C1 {stroke: #ffffff; stroke-width: 438; stroke-opacity: 1.000; fill: none; fill-opacity: 1.000;}</style><style>.C2 {stroke: none; stroke-width: none; stroke-opacity: 1.000; fill: #ffffff; fill-opacity: 1.000;}</style><style>.C3 {stroke: #ffffff; stroke-width: 673; stroke-opacity: 1.000; fill: none; fill-opacity: 1.000;}</style><style>.C4 {stroke: #00ffff; stroke-width: 842; stroke-opacity: 1.000; fill: none; fill-opacity: 1.000;}</style><style>.C5 {stroke: #7f4f3f; stroke-width: 438; stroke-opacity: 1.000; fill: none; fill-opacity: 1.000;}</style><style>.C6 {stroke: #808080; stroke-width: 438; stroke-opacity: 1.000; fill: none; fill-opacity: 1.000;}</style><style>.C7 {stroke: none; stroke-width: none; stroke-opacity: 1.000; fill: #ffff00; fill-opacity: 1.000;}</style></defs><rect fill="#212830" x="0" y="0" width="707071" height="1000000" fill-opacity="1.0" /><g stroke-linecap="round" stroke-linejoin="round" fill-rule="evenodd"><path d="M 127823 430661 l 231293 0 l 0 -102797 l -231293 0 l 0 102797" class="C1" /><path d="M 127823 538181 l 231293 0 l 0 -4626 l -231293 0 l 0 4626" class="C1" /><path d="M 410781 538181 l 102797 0 l 0 -4626 l -102797 0 l 0 4626" class="C1" /><path d="M 171334 569034 c -3311 -11592 -9429 -22189 -17812 -30854" class="C1" /><path d="M 177645 567827 c -3000 -10871 -8282 -20977 -15494 -29647" class="C1" /><path d="M 172796 620675 c 2287 -17180 1793 -34617 -1462 -51641" class="C1" /><path d="M 179275 620675 c 2251 -17591 1700 -35428 -1631 -52847" class="C1" /><path d="M 333416 538181 c -8383 8664 -14501 19261 -17812 30854" class="C1" /><path d="M 324790 538181 c -7087 8523 -12320 18430 -15364 29089" class="C1" /><path d="M 315604 569034 c -3256 17024 -3749 34460 -1462 51641" class="C1" /><path d="M 309426 567270 c -3451 17592 -4046 35624 -1764 53405" class="C1" /><path d="M 159947 625301 l 167045 0 l 0 4626 l -167045 0 l 0 -4626" class="C1" /><path d="M 166371 625301 l 154195 0 l 0 -642 l -166 -128" class="C1" /><path d="M 315427 620675 l 0 0 l -1285 0 l -141345 0 l 0 0 l 0 0" class="C1" /><path d="M 166579 624530 l -207 128 l 0 642" class="C1" /><path d="M 165719 542806 l 155503 0" class="C1" /><path d="M 423631 625301 l 77098 0 l 0 4626 l -77098 0 l 0 -4626" class="C1" /><path d="M 430056 625301 l 64248 0 l 0 -642 l -166 -128" class="C1" /><path d="M 436480 538181 l 6425 0 l 0 82494 l -6425 0 l 0 -82494" class="C1" /><path d="M 487879 538181 l -6425 0 l 0 82494 l 6425 0 l 0 -82494" class="C1" /><path d="M 171366 620675 l 144060 0" class="C1" /><path d="M 169294 621960 l 147791 0" class="C1" /><path d="M 167221 623245 l 151521 0" class="C1" /><path d="M 166579 624530 l 153822 0" class="C1" /><path d="M 166579 624530 l 0 -642 c 0 -355 288 -642 642 -642 l 1430 0" class="C1" /><path d="M 168651 623245 l 0 -642 c 0 -355 288 -642 642 -642 l 1430 0" class="C1" /><path d="M 170724 621960 l 0 -642 c 0 -355 288 -642 642 -642 l 1430 0" class="C1" /><path d="M 615945 689897 q 590 140 921 583 q 331 443 331 1093 q 0 999 -618 1545 q -618 547 -1757 547 q -382 0 -787 -84 q -405 -84 -836 -251 l 0 -881 q 342 221 748 334 q 407 113 850 113 q 773 0 1177 -339 q 405 -339 405 -985 q 0 -596 -376 -933 q -376 -337 -1047 -337 l -708 0 l 0 -750 l 740 0 q 606 0 927 -269 q 321 -269 321 -775 q 0 -520 -331 -798 q -331 -278 -950 -278 q -338 0 -724 81 q -386 81 -850 253 l 0 -813 q 468 -145 876 -217 q 409 -72 771 -72 q 935 0 1480 472 q 545 472 545 1276 q 0 560 -289 947 q -289 386 -821 535 Z M 618897 692767 l 1342 0 l 0 -5147 l -1460 325 l 0 -831 l 1452 -325 l 821 0 l 0 5978 l 1342 0 l 0 768 l -3497 0 l 0 -768 Z" class="C2" /><path d="M 564675 687331 l 477 0 l 0 -2059 l -519 130 l 0 -333 l 516 -130 l 292 0 l 0 2391 l 477 0 l 0 307 l -1243 0 l 0 -307 Z M 566944 684940 l 246 0 l -752 3042 l -246 0 l 752 -3042 Z M 567557 687331 l 477 0 l 0 -2059 l -519 130 l 0 -333 l 516 -130 l 292 0 l 0 2391 l 477 0 l 0 307 l -1243 0 l 0 -307 Z M 570015 685180 q -226 0 -339 277 q -114 277 -114 834 q 0 555 114 832 q 114 277 339 277 q 227 0 341 -277 q 114 -277 114 -832 q 0 -557 -114 -834 q -114 -277 -341 -277 m 0 -289 q 363 0 555 359 q 192 359 192 1042 q 0 681 -192 1040 q -192 359 -555 359 q -363 0 -555 -359 q -192 -359 -192 -1040 q 0 -683 192 -1042 q 192 -359 555 -359 Z M 571899 685180 q -226 0 -339 277 q -114 277 -114 834 q 0 555 114 832 q 114 277 339 277 q 227 0 341 -277 q 114 -277 114 -832 q 0 -557 -114 -834 q -114 -277 -341 -277 m 0 -289 q 363 0 555 359 q 192 359 192 1042 q 0 681 -192 1040 q -192 359 -555 359 q -363 0 -555 -359 q -192 -359 -192 -1040 q 0 -683 192 -1042 q 192 -359 555 -359 Z" class="C2" /><path d="M 571427 646061 l -2318 -6746 l 858 0 l 1924 5680 l 1928 -5680 l 854 0 l -2314 6746 l -931 0 Z M 577588 640214 l -1114 3357 l 2233 0 l -1118 -3357 m -464 -899 l 931 0 l 2314 6746 l -854 0 l -553 -1731 l -2737 0 l -553 1731 l -866 0 l 2318 -6746 m 687 -1834 l 752 0 l -927 1193 l -622 0 l 797 -1193 Z M 585802 639834 l 0 962 q -415 -429 -884 -642 q -470 -212 -998 -212 q -1041 0 -1594 707 q -553 707 -553 2045 q 0 1333 553 2040 q 553 707 1594 707 q 529 0 998 -212 q 470 -212 884 -642 l 0 953 q -431 325 -913 488 q -482 163 -1019 163 q -1379 0 -2172 -938 q -793 -938 -793 -2560 q 0 -1627 793 -2564 q 793 -938 2172 -938 q 545 0 1027 160 q 482 160 905 481 Z M 587071 639315 l 821 0 l 0 2765 l 2985 0 l 0 -2765 l 821 0 l 0 6746 l -821 0 l 0 -3213 l -2985 0 l 0 3213 l -821 0 l 0 -6746 Z M 600121 645098 l 0 -1812 l -1342 0 l 0 -750 l 2155 0 l 0 2896 q -476 375 -1049 567 q -573 192 -1224 192 q -1423 0 -2226 -924 q -803 -924 -803 -2573 q 0 -1654 803 -2578 q 803 -924 2226 -924 q 594 0 1128 163 q 535 163 986 479 l 0 971 q -455 -429 -968 -646 q -512 -217 -1078 -217 q -1114 0 -1673 691 q -559 691 -559 2060 q 0 1365 559 2056 q 559 691 1673 691 q 435 0 777 -84 q 342 -84 614 -260 Z M 602321 639224 l 826 0 l 0 4098 q 0 1084 354 1561 q 354 477 1147 477 q 789 0 1143 -477 q 354 -477 354 -1561 l 0 -4098 l 826 0 l 0 4211 q 0 1319 -588 1993 q -588 673 -1734 673 q -1151 0 -1738 -673 q -588 -673 -588 -1993 l 0 -4211 m 4323 1003 l 0 -538 q 248 203 427 300 q 179 97 305 97 q 187 0 281 -124 q 94 -124 94 -368 q 0 -145 -30 -285 q -30 -140 -91 -280 l 541 0 q 41 172 61 325 q 20 154 20 289 q 0 551 -177 811 q -177 260 -555 260 q -195 0 -409 -120 q -213 -120 -466 -368 Z M 611995 639934 q -895 0 -1421 741 q -527 741 -527 2020 q 0 1274 527 2015 q 527 741 1421 741 q 895 0 1417 -741 q 523 -741 523 -2015 q 0 -1279 -523 -2020 q -523 -741 -1417 -741 m 0 -741 q 1277 0 2041 951 q 765 951 765 2551 q 0 1595 -765 2546 q -765 951 -2041 951 q -1281 0 -2048 -949 q -767 -949 -767 -2548 q 0 -1600 767 -2551 q 767 -951 2048 -951 m 1525 1035 l 0 -538 q 248 203 427 300 q 179 97 305 97 q 187 0 281 -124 q 94 -124 94 -368 q 0 -145 -30 -285 q -30 -140 -91 -280 l 541 0 q 41 172 61 325 q 20 154 20 289 q 0 551 -177 811 q -177 260 -555 260 q -195 0 -409 -120 q -213 -120 -466 -368 Z M 617184 639315 l 1106 0 l 2692 5644 l 0 -5644 l 797 0 l 0 6746 l -1106 0 l -2692 -5644 l 0 5644 l -797 0 l 0 -6746 Z M 627554 645098 l 0 -1812 l -1342 0 l 0 -750 l 2155 0 l 0 2896 q -476 375 -1049 567 q -573 192 -1224 192 q -1423 0 -2226 -924 q -803 -924 -803 -2573 q 0 -1654 803 -2578 q 803 -924 2226 -924 q 594 0 1128 163 q 535 163 986 479 l 0 971 q -455 -429 -968 -646 q -512 -217 -1078 -217 q -1114 0 -1673 691 q -559 691 -559 2060 q 0 1365 559 2056 q 559 691 1673 691 q 435 0 777 -84 q 342 -84 614 -260 Z" class="C2" /><path d="M 67340 297619 l 572391 0 l 0 404762 l -572391 0 l 0 -404762" class="C1" /><path d="M 635898 698549 l -553347 0 l 0 -397097 l 553347 0 l 0 397097 Z M 83239 302139 l 551973 0 l 0 395723 l -551973 0 l 0 -395723 Z" class="C2" /><path d="M 635898 698549 l -553347 0 l 0 -397097 l 553347 0 l 0 397097" class="C3" /><path d="M 83239 302139 l 551973 0 l 0 395723 l -551973 0 l 0 -395723" class="C3" /><path d="M 561969 302139 l 0 396410" class="C3" /><path d="M 67340 702381 l 572391 0 l 0 -404762 l -572391 0 l 0 404762" class="C4" /><path d="M 224762 670317 l 1243 0 l 1574 5247 l 1582 -5247 l 1243 0 l 0 7710 l -814 0 l 0 -6770 l -1590 5288 l -839 0 l -1590 -5288 l 0 6770 l -810 0 l 0 -7710 Z M 232904 668019 l 487 0 q 45 387 246 581 q 200 194 560 194 q 355 0 554 -191 q 198 -191 252 -584 l 487 0 q -41 738 -368 1110 q -326 372 -925 372 q -599 0 -925 -372 q -326 -372 -368 -1110 m 1219 3326 l -1132 3837 l 2268 0 l -1136 -3837 m -471 -1028 l 946 0 l 2351 7710 l -868 0 l -562 -1978 l -2780 0 l -562 1978 l -880 0 l 2355 -7710 m 99 8438 l 760 0 l 0 1208 l -760 0 l 0 -1208 Z M 236994 670317 l 5218 0 l 0 878 l -2190 0 l 0 6832 l -839 0 l 0 -6832 l -2190 0 l 0 -878 Z M 245748 670317 l 1719 0 q 1789 0 2627 932 q 839 932 839 2915 q 0 1993 -841 2928 q -841 935 -2625 935 l -1719 0 l 0 -3615 l -830 0 l 0 -744 l 830 0 l 0 -3351 m 839 857 l 0 2494 l 1388 0 l 0 744 l -1388 0 l 0 2758 l 1004 0 q 1277 0 1869 -723 q 593 -723 593 -2282 q 0 -1549 -593 -2270 q -593 -720 -1869 -720 l -1004 0 Z M 254758 668221 l 764 0 l -942 1363 l -632 0 l 810 -1363 m -2611 1993 l 839 0 l 0 4684 q 0 1239 359 1784 q 359 545 1165 545 q 801 0 1161 -545 q 359 -545 359 -1784 l 0 -4684 l 839 0 l 0 4813 q 0 1508 -597 2277 q -597 769 -1762 769 q -1169 0 -1766 -769 q -597 -769 -597 -2277 l 0 -4813 m 4391 1146 l 0 -615 q 252 232 434 343 q 182 111 310 111 q 190 0 285 -142 q 95 -142 95 -421 q 0 -165 -31 -325 q -31 -160 -93 -320 l 549 0 q 41 196 62 372 q 21 176 21 330 q 0 630 -180 927 q -180 297 -564 297 q -198 0 -415 -137 q -217 -137 -473 -421 Z M 259521 670317 l 1124 0 l 2735 6450 l 0 -6450 l 810 0 l 0 7710 l -1124 0 l -2735 -6450 l 0 6450 l -810 0 l 0 -7710 Z M 270056 676927 l 0 -2071 l -1363 0 l 0 -857 l 2190 0 l 0 3310 q -483 429 -1066 648 q -582 219 -1243 219 q -1446 0 -2262 -1056 q -816 -1056 -816 -2941 q 0 -1890 816 -2946 q 816 -1056 2262 -1056 q 603 0 1146 186 q 543 186 1002 547 l 0 1110 q -463 -491 -983 -738 q -521 -248 -1095 -248 q -1132 0 -1700 790 q -568 790 -568 2355 q 0 1560 568 2350 q 568 790 1700 790 q 442 0 789 -96 q 347 -96 624 -297 Z" class="C2" /><path d="M 442905 542806 l 38549 0" class="C1" /><path d="M 320214 624530 l 0 -642 c 0 -355 -288 -642 -642 -642 l -1430 0" class="C1" /><path d="M 318142 623245 l 0 -642 c 0 -355 -288 -642 -642 -642 l -1430 0" class="C1" /><path d="M 316069 621960 l 0 -642 c 0 -355 -288 -642 -642 -642 l -1430 0" class="C1" /><path d="M 430056 625301 l 64248 0 l 0 -642 l -166 -128" class="C1" /><path d="M 489164 620675 l 0 0 l -1285 0 l -51398 0 l 0 0 l 0 0" class="C1" /><path d="M 430263 624530 l -207 128 l 0 642" class="C1" /><path d="M 435050 620675 l 54113 0" class="C1" /><path d="M 432978 621960 l 57844 0" class="C1" /><path d="M 430905 623245 l 61574 0" class="C1" /><path d="M 430263 624530 l 63875 0" class="C1" /><path d="M 430263 624530 l 0 -642 c 0 -355 288 -642 642 -642 l 1430 0" class="C1" /><path d="M 432335 623245 l 0 -642 c 0 -355 288 -642 642 -642 l 1430 0" class="C1" /><path d="M 434408 621960 l 0 -642 c 0 -355 288 -642 642 -642 l 1430 0" class="C1" /><path d="M 493951 624530 l 0 -642 c 0 -355 -288 -642 -642 -642 l -1430 0" class="C1" /><path d="M 491879 623245 l 0 -642 c 0 -355 -288 -642 -642 -642 l -1430 0" class="C1" /><path d="M 489806 621960 l 0 -642 c 0 -355 -288 -642 -642 -642 l -1430 0" class="C1" /><path d="M 153522 353564 l 6425 0 m 2204 1008 l 0 5416 m 0 0 l -1008 0 m -3212 0 l -4408 0 m 0 0 l 0 -2017 m 0 -3212 l 0 -1196" class="C5" /><path d="M 153522 404962 l 6425 0 m 2204 -1008 l 0 -5416 m 0 0 l -1008 0 m -3212 0 l -4408 0 m 0 0 l 0 2017 m 0 3212 l 0 1196" class="C5" /><path d="M 333416 353564 l -6425 0 m -2204 1008 l 0 5416 m 0 0 l 1008 0 m 3212 0 l 4408 0 m 0 0 l 0 -2017 m 0 -3212 l 0 -1196" class="C5" /><path d="M 333416 404962 l -6425 0 m -2204 -1008 l 0 -5416 m 0 0 l 1008 0 m 3212 0 l 4408 0 m 0 0 l 0 2017 m 0 3212 l 0 1196" class="C5" /><path d="M 162151 353564 l 6425 0 m 3212 0 l 6425 0 m 3212 0 l 6425 0 m 3212 0 l 6425 0 m 3212 0 l 6425 0 m 3212 0 l 6425 0 m 3212 0 l 6425 0 m 3212 0 l 6425 0 m 3212 0 l 6425 0 m 3212 0 l 6425 0 m 3212 0 l 6425 0 m 3212 0 l 6425 0 m 3212 0 l 6425 0 m 3212 0 l 6425 0 m 3212 0 l 6425 0 m 3212 0 l 6425 0 m 3212 0 l 6425 0 m 2017 1196 l 0 5229 m 0 0 l -1196 0 m -3212 0 l -6425 0 m -3212 0 l -6425 0 m -3212 0 l -6425 0 m -3212 0 l -6425 0 m -3212 0 l -6425 0 m -3212 0 l -6425 0 m -3212 0 l -6425 0 m -3212 0 l -6425 0 m -3212 0 l -6425 0 m -3212 0 l -6425 0 m -3212 0 l -6425 0 m -3212 0 l -6425 0 m -3212 0 l -6425 0 m -3212 0 l -6425 0 m -3212 0 l -6425 0 m -3212 0 l -6425 0 m -3212 0 l -4033 0 m 0 0 l 0 -2391 m 0 -3212 l 0 -821" class="C5" /><path d="M 162151 398537 l 6425 0 m 3212 0 l 6425 0 m 3212 0 l 6425 0 m 3212 0 l 6425 0 m 3212 0 l 6425 0 m 3212 0 l 6425 0 m 3212 0 l 6425 0 m 3212 0 l 6425 0 m 3212 0 l 6425 0 m 3212 0 l 6425 0 m 3212 0 l 6425 0 m 3212 0 l 6425 0 m 3212 0 l 6425 0 m 3212 0 l 6425 0 m 3212 0 l 6425 0 m 3212 0 l 6425 0 m 3212 0 l 6425 0 m 2017 1196 l 0 5229 m 0 0 l -1196 0 m -3212 0 l -6425 0 m -3212 0 l -6425 0 m -3212 0 l -6425 0 m -3212 0 l -6425 0 m -3212 0 l -6425 0 m -3212 0 l -6425 0 m -3212 0 l -6425 0 m -3212 0 l -6425 0 m -3212 0 l -6425 0 m -3212 0 l -6425 0 m -3212 0 l -6425 0 m -3212 0 l -6425 0 m -3212 0 l -6425 0 m -3212 0 l -6425 0 m -3212 0 l -6425 0 m -3212 0 l -6425 0 m -3212 0 l -4033 0 m 0 0 l 0 -2391 m 0 -3212 l 0 -821" class="C5" /><path d="M 159947 340714 l 6425 0 m 3212 0 l 6425 0 m 3212 0 l 6425 0 m 3212 0 l 6425 0 m 3212 0 l 6425 0 m 3212 0 l 6425 0 m 3212 0 l 6425 0 m 3212 0 l 6425 0 m 3212 0 l 6425 0 m 3212 0 l 6425 0 m 3212 0 l 6425 0 m 3212 0 l 6425 0 m 3212 0 l 6425 0 m 3212 0 l 6425 0 m 3212 0 l 6425 0 m 3212 0 l 6425 0 m 3212 0 l 6425 0 m 3212 0 l 3212 0 m 0 0 l 0 3212 m 0 3212 l 0 6425 m 0 3212 l 0 6425 m 0 3212 l 0 6425 m 0 3212 l 0 6425 m 0 3212 l 0 6425 m 0 3212 l 0 6425 m 0 3212 l 0 6425 m 0 3212 l 0 3212 m 0 0 l -3212 0 m -3212 0 l -6425 0 m -3212 0 l -6425 0 m -3212 0 l -6425 0 m -3212 0 l -6425 0 m -3212 0 l -6425 0 m -3212 0 l -6425 0 m -3212 0 l -6425 0 m -3212 0 l -6425 0 m -3212 0 l -6425 0 m -3212 0 l -6425 0 m -3212 0 l -6425 0 m -3212 0 l -6425 0 m -3212 0 l -6425 0 m -3212 0 l -6425 0 m -3212 0 l -6425 0 m -3212 0 l -6425 0 m -3212 0 l -6425 0 m 0 -3212 l 0 -6425 m 0 -3212 l 0 -6425 m 0 -3212 l 0 -6425 m 0 -3212 l 0 -6425 m 0 -3212 l 0 -6425 m 0 -3212 l 0 -6425 m 0 -3212 l 0 -6425 m 0 -3212 l 0 -6425" class="C5" /><path d="M 127823 440784 l 0 9154" class="C6" /><path d="M 153522 440784 l 0 9154" class="C6" /><path d="M 129365 449935 l 22615 0" class="C6" /><path d="M 128504 448981 l -1635 1635 273 273 1635 -1635 Z" class="C7" /><path d="M 130136 449935 l -4626 0" class="C6" /><path d="M 127823 448393 l 0 3084" class="C6" /><path d="M 152840 450889 l 1635 -1635 -273 -273 -1635 1635 Z" class="C7" /><path d="M 151209 449935 l 4626 0" class="C6" /><path d="M 153522 451477 l 0 -3084" class="C6" /><path d="M 136640 448340 l 1820 0 l 0 439 l -2448 0 l 0 -439 q 297 -307 809 -825 q 513 -518 644 -667 q 250 -281 350 -476 q 99 -195 99 -383 q 0 -307 -216 -501 q -216 -194 -562 -194 q -245 0 -518 85 q -272 85 -582 258 l 0 -527 q 315 -127 589 -191 q 274 -65 501 -65 q 599 0 955 300 q 356 300 356 800 q 0 238 -89 451 q -89 213 -324 502 q -65 75 -411 432 q -346 358 -976 1001 Z M 140671 445267 q -403 0 -605 396 q -203 396 -203 1192 q 0 793 203 1189 q 203 396 605 396 q 405 0 608 -396 q 203 -396 203 -1189 q 0 -795 -203 -1192 q -203 -396 -608 -396 m 0 -413 q 648 0 990 513 q 342 513 342 1489 q 0 973 -342 1486 q -342 513 -990 513 q -648 0 -990 -513 q -342 -513 -342 -1486 q 0 -976 342 -1489 q 342 -513 990 -513 Z M 144035 445267 q -403 0 -605 396 q -203 396 -203 1192 q 0 793 203 1189 q 203 396 605 396 q 405 0 608 -396 q 203 -396 203 -1189 q 0 -795 -203 -1192 q -203 -396 -608 -396 m 0 -413 q 648 0 990 513 q 342 513 342 1489 q 0 973 -342 1486 q -342 513 -990 513 q -648 0 -990 -513 q -342 -513 -342 -1486 q 0 -976 342 -1489 q 342 -513 990 -513 Z" class="C2" /><path d="M 127823 440784 l 0 0" class="C1" /><path d="M 153522 440784 l 0 0" class="C1" /><path d="M 153522 449935 l 0 0" class="C1" /><path d="M 153522 440784 l 0 9154" class="C6" /><path d="M 333416 440784 l 0 9154" class="C6" /><path d="M 155064 449935 l 176810 0" class="C6" /><path d="M 154203 448981 l -1635 1635 273 273 1635 -1635 Z" class="C7" /><path d="M 155835 449935 l -4626 0" class="C6" /><path d="M 153522 448393 l 0 3084" class="C6" /><path d="M 332735 450889 l 1635 -1635 -273 -273 -1635 1635 Z" class="C7" /><path d="M 331103 449935 l 4626 0" class="C6" /><path d="M 333416 451477 l 0 -3084" class="C6" /><path d="M 237396 448340 l 852 0 l 0 -2941 l -927 186 l 0 -475 l 922 -186 l 522 0 l 0 3416 l 852 0 l 0 439 l -2220 0 l 0 -439 Z M 242103 445379 l -1317 2058 l 1317 0 l 0 -2058 m -137 -454 l 656 0 l 0 2512 l 550 0 l 0 434 l -550 0 l 0 909 l -519 0 l 0 -909 l -1740 0 l 0 -503 l 1603 -2443 Z M 245150 445267 q -403 0 -605 396 q -203 396 -203 1192 q 0 793 203 1189 q 203 396 605 396 q 405 0 608 -396 q 203 -396 203 -1189 q 0 -795 -203 -1192 q -203 -396 -608 -396 m 0 -413 q 648 0 990 513 q 342 513 342 1489 q 0 973 -342 1486 q -342 513 -990 513 q -648 0 -990 -513 q -342 -513 -342 -1486 q 0 -976 342 -1489 q 342 -513 990 -513 Z M 248514 445267 q -403 0 -605 396 q -203 396 -203 1192 q 0 793 203 1189 q 203 396 605 396 q 405 0 608 -396 q 203 -396 203 -1189 q 0 -795 -203 -1192 q -203 -396 -608 -396 m 0 -413 q 648 0 990 513 q 342 513 342 1489 q 0 973 -342 1486 q -342 513 -990 513 q -648 0 -990 -513 q -342 -513 -342 -1486 q 0 -976 342 -1489 q 342 -513 990 -513 Z" class="C2" /><path d="M 153522 440784 l 0 0" class="C1" /><path d="M 333416 440784 l 0 0" class="C1" /><path d="M 333416 449935 l 0 0" class="C1" /><path d="M 333416 440784 l 0 9154" class="C6" /><path d="M 359115 440784 l 0 9154" class="C6" /><path d="M 334958 449935 l 22615 0" class="C6" /><path d="M 334097 448981 l -1635 1635 273 273 1635 -1635 Z" class="C7" /><path d="M 335729 449935 l -4626 0" class="C6" /><path d="M 333416 448393 l 0 3084" class="C6" /><path d="M 358434 450889 l 1635 -1635 -273 -273 -1635 1635 Z" class="C7" /><path d="M 356802 449935 l 4626 0" class="C6" /><path d="M 359115 451477 l 0 -3084" class="C6" /><path d="M 342234 448340 l 1820 0 l 0 439 l -2448 0 l 0 -439 q 297 -307 809 -825 q 513 -518 644 -667 q 250 -281 350 -476 q 99 -195 99 -383 q 0 -307 -216 -501 q -216 -194 -562 -194 q -245 0 -518 85 q -272 85 -582 258 l 0 -527 q 315 -127 589 -191 q 274 -65 501 -65 q 599 0 955 300 q 356 300 356 800 q 0 238 -89 451 q -89 213 -324 502 q -65 75 -411 432 q -346 358 -976 1001 Z M 346264 445267 q -403 0 -605 396 q -203 396 -203 1192 q 0 793 203 1189 q 203 396 605 396 q 405 0 608 -396 q 203 -396 203 -1189 q 0 -795 -203 -1192 q -203 -396 -608 -396 m 0 -413 q 648 0 990 513 q 342 513 342 1489 q 0 973 -342 1486 q -342 513 -990 513 q -648 0 -990 -513 q -342 -513 -342 -1486 q 0 -976 342 -1489 q 342 -513 990 -513 Z M 349629 445267 q -403 0 -605 396 q -203 396 -203 1192 q 0 793 203 1189 q 203 396 605 396 q 405 0 608 -396 q 203 -396 203 -1189 q 0 -795 -203 -1192 q -203 -396 -608 -396 m 0 -413 q 648 0 990 513 q 342 513 342 1489 q 0 973 -342 1486 q -342 513 -990 513 q -648 0 -990 -513 q -342 -513 -342 -1486 q 0 -976 342 -1489 q 342 -513 990 -513 Z" class="C2" /><path d="M 333416 440784 l 0 0" class="C1" /><path d="M 359115 440784 l 0 0" class="C1" /><path d="M 359115 449935 l 0 0" class="C1" /><path d="M 127823 440784 l 0 18791" class="C6" /><path d="M 359115 440784 l 0 18791" class="C6" /><path d="M 129365 459573 l 228209 0" class="C6" /><path d="M 128504 458619 l -1635 1635 273 273 1635 -1635 Z" class="C7" /><path d="M 130136 459573 l -4626 0" class="C6" /><path d="M 127823 458031 l 0 3084" class="C6" /><path d="M 358434 460527 l 1635 -1635 -273 -273 -1635 1635 Z" class="C7" /><path d="M 356802 459573 l 4626 0" class="C6" /><path d="M 359115 461115 l 0 -3084" class="C6" /><path d="M 237396 457977 l 852 0 l 0 -2941 l -927 186 l 0 -475 l 922 -186 l 522 0 l 0 3416 l 852 0 l 0 439 l -2220 0 l 0 -439 Z M 241785 456586 q -372 0 -585 199 q -213 199 -213 547 q 0 349 213 547 q 213 199 585 199 q 372 0 586 -200 q 214 -200 214 -546 q 0 -349 -213 -547 q -213 -199 -587 -199 m -522 -222 q -336 -83 -523 -312 q -187 -230 -187 -560 q 0 -462 329 -731 q 329 -269 902 -269 q 576 0 904 269 q 328 269 328 731 q 0 330 -187 560 q -187 230 -520 312 q 377 88 587 343 q 210 256 210 625 q 0 560 -342 860 q -342 300 -980 300 q -638 0 -980 -300 q -342 -300 -342 -860 q 0 -369 212 -625 q 212 -256 589 -343 m -191 -824 q 0 300 187 467 q 187 168 525 168 q 336 0 525 -168 q 190 -168 190 -467 q 0 -300 -190 -467 q -190 -168 -525 -168 q -338 0 -525 168 q -187 168 -187 467 Z M 245150 454905 q -403 0 -605 396 q -203 396 -203 1192 q 0 793 203 1189 q 203 396 605 396 q 405 0 608 -396 q 203 -396 203 -1189 q 0 -795 -203 -1192 q -203 -396 -608 -396 m 0 -413 q 648 0 990 513 q 342 513 342 1489 q 0 973 -342 1486 q -342 513 -990 513 q -648 0 -990 -513 q -342 -513 -342 -1486 q 0 -976 342 -1489 q 342 -513 990 -513 Z M 248514 454905 q -403 0 -605 396 q -203 396 -203 1192 q 0 793 203 1189 q 203 396 605 396 q 405 0 608 -396 q 203 -396 203 -1189 q 0 -795 -203 -1192 q -203 -396 -608 -396 m 0 -413 q 648 0 990 513 q 342 513 342 1489 q 0 973 -342 1486 q -342 513 -990 513 q -648 0 -990 -513 q -342 -513 -342 -1486 q 0 -976 342 -1489 q 342 -513 990 -513 Z" class="C2" /><path d="M 127823 440784 l 0 0" class="C1" /><path d="M 359115 440784 l 0 0" class="C1" /><path d="M 359115 459573 l 0 0" class="C1" /><path d="M 370612 430661 l 9773 0" class="C6" /><path d="M 370612 404962 l 9773 0" class="C6" /><path d="M 380384 429119 l 0 -22615" class="C6" /><path d="M 379430 429980 l 1635 1635 273 -273 -1635 -1635 Z" class="C7" /><path d="M 380384 428348 l 0 4626" class="C6" /><path d="M 378842 430661 l 3084 0" class="C6" /><path d="M 381338 405643 l -1635 -1635 -273 273 1635 1635 Z" class="C7" /><path d="M 380384 407275 l 0 -4626" class="C6" /><path d="M 381926 404962 l -3084 0" class="C6" /><path d="M 378788 421843 l 0 -1820 l 439 0 l 0 2448 l -439 0 q -307 -297 -825 -809 q -518 -513 -667 -644 q -281 -250 -476 -350 q -195 -99 -383 -99 q -307 0 -501 216 q -194 216 -194 562 q 0 245 85 518 q 85 272 258 582 l -527 0 q -127 -315 -191 -589 q -65 -274 -65 -501 q 0 -599 300 -955 q 300 -356 800 -356 q 238 0 451 89 q 213 89 502 324 q 75 65 432 411 q 358 346 1001 976 Z M 375716 417813 q 0 403 396 605 q 396 203 1192 203 q 793 0 1189 -203 q 396 -203 396 -605 q 0 -405 -396 -608 q -396 -203 -1189 -203 q -795 0 -1192 203 q -396 203 -396 608 m -413 0 q 0 -648 513 -990 q 513 -342 1489 -342 q 973 0 1486 342 q 513 342 513 990 q 0 648 -513 990 q -513 342 -1486 342 q -976 0 -1489 -342 q -513 -342 -513 -990 Z M 375716 414448 q 0 403 396 605 q 396 203 1192 203 q 793 0 1189 -203 q 396 -203 396 -605 q 0 -405 -396 -608 q -396 -203 -1189 -203 q -795 0 -1192 203 q -396 203 -396 608 m -413 0 q 0 -648 513 -990 q 513 -342 1489 -342 q 973 0 1486 342 q 513 342 513 990 q 0 648 -513 990 q -513 342 -1486 342 q -976 0 -1489 -342 q -513 -342 -513 -990 Z" class="C2" /><path d="M 370612 430661 l 0 0" class="C1" /><path d="M 370612 404962 l 0 0" class="C1" /><path d="M 380384 404962 l 0 0" class="C1" /><path d="M 370612 404962 l 9773 0" class="C6" /><path d="M 370612 398537 l 9773 0" class="C6" /><path d="M 380384 406504 l 0 1542" class="C6" /><path d="M 380384 396995 l 0 -1542" class="C6" /><path d="M 380384 404962 l 0 -6425" class="C6" /><path d="M 381338 405643 l -1635 -1635 -273 273 1635 1635 Z" class="C7" /><path d="M 380384 407275 l 0 -4626" class="C6" /><path d="M 381926 404962 l -3084 0" class="C6" /><path d="M 379430 397856 l 1635 1635 273 -273 -1635 -1635 Z" class="C7" /><path d="M 380384 396224 l 0 4626" class="C6" /><path d="M 378842 398537 l 3084 0" class="C6" /><path d="M 375372 404543 l 0 -2047 l 439 0 l 0 1570 l 945 0 q -39 -114 -58 -227 q -19 -114 -19 -227 q 0 -645 354 -1022 q 354 -377 958 -377 q 622 0 967 387 q 345 387 345 1092 q 0 243 -41 494 q -41 252 -124 520 l -524 0 q 127 -232 188 -480 q 62 -248 62 -524 q 0 -447 -235 -707 q -235 -261 -638 -261 q -403 0 -638 261 q -235 261 -235 707 q 0 209 46 417 q 46 208 145 425 l -1936 0 Z M 375716 400069 q 0 403 396 605 q 396 203 1192 203 q 793 0 1189 -203 q 396 -203 396 -605 q 0 -405 -396 -608 q -396 -203 -1189 -203 q -795 0 -1192 203 q -396 203 -396 608 m -413 0 q 0 -648 513 -990 q 513 -342 1489 -342 q 973 0 1486 342 q 513 342 513 990 q 0 648 -513 990 q -513 342 -1486 342 q -976 0 -1489 -342 q -513 -342 -513 -990 Z" class="C2" /><path d="M 370612 404962 l 0 0" class="C1" /><path d="M 370612 398537 l 0 0" class="C1" /><path d="M 380384 398537 l 0 0" class="C1" /><path d="M 370612 398537 l 9773 0" class="C6" /><path d="M 370612 359988 l 9773 0" class="C6" /><path d="M 380384 396995 l 0 -35465" class="C6" /><path d="M 379430 397856 l 1635 1635 273 -273 -1635 -1635 Z" class="C7" /><path d="M 380384 396224 l 0 4626" class="C6" /><path d="M 378842 398537 l 3084 0" class="C6" /><path d="M 381338 360670 l -1635 -1635 -273 273 1635 1635 Z" class="C7" /><path d="M 380384 362301 l 0 -4626" class="C6" /><path d="M 381926 359988 l -3084 0" class="C6" /><path d="M 377149 382164 q 80 -374 333 -585 q 253 -210 625 -210 q 571 0 883 392 q 312 392 312 1115 q 0 243 -48 500 q -48 257 -143 531 l -503 0 q 127 -217 191 -475 q 65 -258 65 -540 q 0 -491 -194 -747 q -194 -257 -563 -257 q -341 0 -533 239 q -192 239 -192 665 l 0 449 l -429 0 l 0 -470 q 0 -385 -154 -589 q -154 -204 -443 -204 q -297 0 -456 210 q -159 210 -159 603 q 0 214 46 460 q 46 245 145 540 l -465 0 q -83 -297 -124 -556 q -41 -259 -41 -489 q 0 -594 270 -940 q 270 -346 729 -346 q 320 0 541 183 q 221 183 306 522 Z M 375716 379264 q 0 403 396 605 q 396 203 1192 203 q 793 0 1189 -203 q 396 -203 396 -605 q 0 -405 -396 -608 q -396 -203 -1189 -203 q -795 0 -1192 203 q -396 203 -396 608 m -413 0 q 0 -648 513 -990 q 513 -342 1489 -342 q 973 0 1486 342 q 513 342 513 990 q 0 648 -513 990 q -513 342 -1486 342 q -976 0 -1489 -342 q -513 -342 -513 -990 Z M 375716 375900 q 0 403 396 605 q 396 203 1192 203 q 793 0 1189 -203 q 396 -203 396 -605 q 0 -405 -396 -608 q -396 -203 -1189 -203 q -795 0 -1192 203 q -396 203 -396 608 m -413 0 q 0 -648 513 -990 q 513 -342 1489 -342 q 973 0 1486 342 q 513 342 513 990 q 0 648 -513 990 q -513 342 -1486 342 q -976 0 -1489 -342 q -513 -342 -513 -990 Z" class="C2" /><path d="M 370612 398537 l 0 0" class="C1" /><path d="M 370612 359988 l 0 0" class="C1" /><path d="M 380384 359988 l 0 0" class="C1" /><path d="M 370612 359988 l 9773 0" class="C6" /><path d="M 370612 353564 l 9773 0" class="C6" /><path d="M 380384 361530 l 0 1542" class="C6" /><path d="M 380384 352022 l 0 -1542" class="C6" /><path d="M 380384 359988 l 0 -6425" class="C6" /><path d="M 381338 360670 l -1635 -1635 -273 273 1635 1635 Z" class="C7" /><path d="M 380384 362301 l 0 -4626" class="C6" /><path d="M 381926 359988 l -3084 0" class="C6" /><path d="M 379430 352882 l 1635 1635 273 -273 -1635 -1635 Z" class="C7" /><path d="M 380384 351251 l 0 4626" class="C6" /><path d="M 378842 353564 l 3084 0" class="C6" /><path d="M 375372 359570 l 0 -2047 l 439 0 l 0 1570 l 945 0 q -39 -114 -58 -227 q -19 -114 -19 -227 q 0 -645 354 -1022 q 354 -377 958 -377 q 622 0 967 387 q 345 387 345 1092 q 0 243 -41 494 q -41 252 -124 520 l -524 0 q 127 -232 188 -480 q 62 -248 62 -524 q 0 -447 -235 -707 q -235 -261 -638 -261 q -403 0 -638 261 q -235 261 -235 707 q 0 209 46 417 q 46 208 145 425 l -1936 0 Z M 375716 355095 q 0 403 396 605 q 396 203 1192 203 q 793 0 1189 -203 q 396 -203 396 -605 q 0 -405 -396 -608 q -396 -203 -1189 -203 q -795 0 -1192 203 q -396 203 -396 608 m -413 0 q 0 -648 513 -990 q 513 -342 1489 -342 q 973 0 1486 342 q 513 342 513 990 q 0 648 -513 990 q -513 342 -1486 342 q -976 0 -1489 -342 q -513 -342 -513 -990 Z" class="C2" /><path d="M 370612 359988 l 0 0" class="C1" /><path d="M 370612 353564 l 0 0" class="C1" /><path d="M 380384 353564 l 0 0" class="C1" /><path d="M 370612 353564 l 9773 0" class="C6" /><path d="M 370612 327864 l 9773 0" class="C6" /><path d="M 380384 352022 l 0 -22615" class="C6" /><path d="M 379430 352882 l 1635 1635 273 -273 -1635 -1635 Z" class="C7" /><path d="M 380384 351251 l 0 4626" class="C6" /><path d="M 378842 353564 l 3084 0" class="C6" /><path d="M 381338 328546 l -1635 -1635 -273 273 1635 1635 Z" class="C7" /><path d="M 380384 330177 l 0 -4626" class="C6" /><path d="M 381926 327864 l -3084 0" class="C6" /><path d="M 378788 344746 l 0 -1820 l 439 0 l 0 2448 l -439 0 q -307 -297 -825 -809 q -518 -513 -667 -644 q -281 -250 -476 -350 q -195 -99 -383 -99 q -307 0 -501 216 q -194 216 -194 562 q 0 245 85 518 q 85 272 258 582 l -527 0 q -127 -315 -191 -589 q -65 -274 -65 -501 q 0 -599 300 -955 q 300 -356 800 -356 q 238 0 451 89 q 213 89 502 324 q 75 65 432 411 q 358 346 1001 976 Z M 375716 340715 q 0 403 396 605 q 396 203 1192 203 q 793 0 1189 -203 q 396 -203 396 -605 q 0 -405 -396 -608 q -396 -203 -1189 -203 q -795 0 -1192 203 q -396 203 -396 608 m -413 0 q 0 -648 513 -990 q 513 -342 1489 -342 q 973 0 1486 342 q 513 342 513 990 q 0 648 -513 990 q -513 342 -1486 342 q -976 0 -1489 -342 q -513 -342 -513 -990 Z M 375716 337351 q 0 403 396 605 q 396 203 1192 203 q 793 0 1189 -203 q 396 -203 396 -605 q 0 -405 -396 -608 q -396 -203 -1189 -203 q -795 0 -1192 203 q -396 203 -396 608 m -413 0 q 0 -648 513 -990 q 513 -342 1489 -342 q 973 0 1486 342 q 513 342 513 990 q 0 648 -513 990 q -513 342 -1486 342 q -976 0 -1489 -342 q -513 -342 -513 -990 Z" class="C2" /><path d="M 370612 353564 l 0 0" class="C1" /><path d="M 370612 327864 l 0 0" class="C1" /><path d="M 380384 327864 l 0 0" class="C1" /><path d="M 370612 430661 l 19410 0" class="C6" /><path d="M 370612 327864 l 19410 0" class="C6" /><path d="M 390021 429119 l 0 -99713" class="C6" /><path d="M 389067 429980 l 1635 1635 273 -273 -1635 -1635 Z" class="C7" /><path d="M 390021 428348 l 0 4626" class="C6" /><path d="M 388479 430661 l 3084 0" class="C6" /><path d="M 390975 328546 l -1635 -1635 -273 273 1635 1635 Z" class="C7" /><path d="M 390021 330177 l 0 -4626" class="C6" /><path d="M 391563 327864 l -3084 0" class="C6" /><path d="M 387034 382628 q 0 372 199 585 q 199 213 547 213 q 349 0 547 -213 q 199 -213 199 -585 q 0 -372 -200 -586 q -200 -214 -546 -214 q -349 0 -547 213 q -199 213 -199 587 m -222 522 q -83 336 -312 523 q -230 187 -560 187 q -462 0 -731 -329 q -269 -329 -269 -902 q 0 -576 269 -904 q 269 -328 731 -328 q 330 0 560 187 q 230 187 312 520 q 88 -377 343 -587 q 256 -210 625 -210 q 560 0 860 342 q 300 342 300 980 q 0 638 -300 980 q -300 342 -860 342 q -369 0 -625 -212 q -256 -212 -343 -589 m -824 191 q 300 0 467 -187 q 168 -187 168 -525 q 0 -336 -168 -525 q -168 -190 -467 -190 q -300 0 -467 190 q -168 190 -168 525 q 0 338 168 525 q 168 187 467 187 Z M 385353 379264 q 0 403 396 605 q 396 203 1192 203 q 793 0 1189 -203 q 396 -203 396 -605 q 0 -405 -396 -608 q -396 -203 -1189 -203 q -795 0 -1192 203 q -396 203 -396 608 m -413 0 q 0 -648 513 -990 q 513 -342 1489 -342 q 973 0 1486 342 q 513 342 513 990 q 0 648 -513 990 q -513 342 -1486 342 q -976 0 -1489 -342 q -513 -342 -513 -990 Z M 385353 375900 q 0 403 396 605 q 396 203 1192 203 q 793 0 1189 -203 q 396 -203 396 -605 q 0 -405 -396 -608 q -396 -203 -1189 -203 q -795 0 -1192 203 q -396 203 -396 608 m -413 0 q 0 -648 513 -990 q 513 -342 1489 -342 q 973 0 1486 342 q 513 342 513 990 q 0 648 -513 990 q -513 342 -1486 342 q -976 0 -1489 -342 q -513 -342 -513 -990 Z" class="C2" /><path d="M 370612 430661 l 0 0" class="C1" /><path d="M 370612 327864 l 0 0" class="C1" /><path d="M 390021 327864 l 0 0" class="C1" /><path d="M 127823 640295 l 0 8908" class="C6" /><path d="M 159947 640295 l 0 8908" class="C6" /><path d="M 129365 649201 l 29040 0" class="C6" /><path d="M 128504 648247 l -1635 1635 273 273 1635 -1635 Z" class="C7" /><path d="M 130136 649201 l -4626 0" class="C6" /><path d="M 127823 647659 l 0 3084" class="C6" /><path d="M 159265 650155 l 1635 -1635 -273 -273 -1635 1635 Z" class="C7" /><path d="M 157634 649201 l 4626 0" class="C6" /><path d="M 159947 650743 l 0 -3084" class="C6" /><path d="M 139853 647606 l 1820 0 l 0 439 l -2448 0 l 0 -439 q 297 -307 809 -825 q 513 -518 644 -667 q 250 -281 350 -476 q 99 -195 99 -383 q 0 -307 -216 -501 q -216 -194 -562 -194 q -245 0 -518 85 q -272 85 -582 258 l 0 -527 q 315 -127 589 -191 q 274 -65 501 -65 q 599 0 955 300 q 356 300 356 800 q 0 238 -89 451 q -89 213 -324 502 q -65 75 -411 432 q -346 358 -976 1001 Z M 142773 644190 l 2047 0 l 0 439 l -1570 0 l 0 945 q 114 -39 227 -58 q 114 -19 227 -19 q 645 0 1022 354 q 377 354 377 958 q 0 622 -387 967 q -387 345 -1092 345 q -243 0 -494 -41 q -252 -41 -520 -124 l 0 -524 q 232 127 480 188 q 248 62 524 62 q 447 0 707 -235 q 261 -235 261 -638 q 0 -403 -261 -638 q -261 -235 -707 -235 q -209 0 -417 46 q -208 46 -425 145 l 0 -1936 Z M 147248 644533 q -403 0 -605 396 q -203 396 -203 1192 q 0 793 203 1189 q 203 396 605 396 q 405 0 608 -396 q 203 -396 203 -1189 q 0 -795 -203 -1192 q -203 -396 -608 -396 m 0 -413 q 648 0 990 513 q 342 513 342 1489 q 0 973 -342 1486 q -342 513 -990 513 q -648 0 -990 -513 q -342 -513 -342 -1486 q 0 -976 342 -1489 q 342 -513 990 -513 Z" class="C2" /><path d="M 127823 640295 l 0 0" class="C1" /><path d="M 159947 640295 l 0 0" class="C1" /><path d="M 159947 649201 l 0 0" class="C1" /><path d="M 159947 640295 l 0 8908" class="C6" /><path d="M 326991 640295 l 0 8908" class="C6" /><path d="M 161489 649201 l 163961 0" class="C6" /><path d="M 160628 648247 l -1635 1635 273 273 1635 -1635 Z" class="C7" /><path d="M 162260 649201 l -4626 0" class="C6" /><path d="M 159947 647659 l 0 3084" class="C6" /><path d="M 326310 650155 l 1635 -1635 -273 -273 -1635 1635 Z" class="C7" /><path d="M 324678 649201 l 4626 0" class="C6" /><path d="M 326991 650743 l 0 -3084" class="C6" /><path d="M 237396 647606 l 852 0 l 0 -2941 l -927 186 l 0 -475 l 922 -186 l 522 0 l 0 3416 l 852 0 l 0 439 l -2220 0 l 0 -439 Z M 242250 645966 q 374 80 585 333 q 210 253 210 625 q 0 571 -392 883 q -392 312 -1115 312 q -243 0 -500 -48 q -257 -48 -531 -143 l 0 -503 q 217 127 475 191 q 258 65 540 65 q 491 0 747 -194 q 257 -194 257 -563 q 0 -341 -239 -533 q -239 -192 -665 -192 l -449 0 l 0 -429 l 470 0 q 385 0 589 -154 q 204 -154 204 -443 q 0 -297 -210 -456 q -210 -159 -603 -159 q -214 0 -460 46 q -245 46 -540 145 l 0 -465 q 297 -83 556 -124 q 259 -41 489 -41 q 594 0 940 270 q 346 270 346 729 q 0 320 -183 541 q -183 221 -522 306 Z M 245150 644533 q -403 0 -605 396 q -203 396 -203 1192 q 0 793 203 1189 q 203 396 605 396 q 405 0 608 -396 q 203 -396 203 -1189 q 0 -795 -203 -1192 q -203 -396 -608 -396 m 0 -413 q 648 0 990 513 q 342 513 342 1489 q 0 973 -342 1486 q -342 513 -990 513 q -648 0 -990 -513 q -342 -513 -342 -1486 q 0 -976 342 -1489 q 342 -513 990 -513 Z M 248514 644533 q -403 0 -605 396 q -203 396 -203 1192 q 0 793 203 1189 q 203 396 605 396 q 405 0 608 -396 q 203 -396 203 -1189 q 0 -795 -203 -1192 q -203 -396 -608 -396 m 0 -413 q 648 0 990 513 q 342 513 342 1489 q 0 973 -342 1486 q -342 513 -990 513 q -648 0 -990 -513 q -342 -513 -342 -1486 q 0 -976 342 -1489 q 342 -513 990 -513 Z" class="C2" /><path d="M 159947 640295 l 0 0" class="C1" /><path d="M 326991 640295 l 0 0" class="C1" /><path d="M 326991 649201 l 0 0" class="C1" /><path d="M 326991 640295 l 0 8908" class="C6" /><path d="M 359115 640295 l 0 8908" class="C6" /><path d="M 328533 649201 l 29040 0" class="C6" /><path d="M 327673 648247 l -1635 1635 273 273 1635 -1635 Z" class="C7" /><path d="M 329304 649201 l -4626 0" class="C6" /><path d="M 326991 647659 l 0 3084" class="C6" /><path d="M 358434 650155 l 1635 -1635 -273 -273 -1635 1635 Z" class="C7" /><path d="M 356802 649201 l 4626 0" class="C6" /><path d="M 359115 650743 l 0 -3084" class="C6" /><path d="M 339021 647606 l 1820 0 l 0 439 l -2448 0 l 0 -439 q 297 -307 809 -825 q 513 -518 644 -667 q 250 -281 350 -476 q 99 -195 99 -383 q 0 -307 -216 -501 q -216 -194 -562 -194 q -245 0 -518 85 q -272 85 -582 258 l 0 -527 q 315 -127 589 -191 q 274 -65 501 -65 q 599 0 955 300 q 356 300 356 800 q 0 238 -89 451 q -89 213 -324 502 q -65 75 -411 432 q -346 358 -976 1001 Z M 341942 644190 l 2047 0 l 0 439 l -1570 0 l 0 945 q 114 -39 227 -58 q 114 -19 227 -19 q 645 0 1022 354 q 377 354 377 958 q 0 622 -387 967 q -387 345 -1092 345 q -243 0 -494 -41 q -252 -41 -520 -124 l 0 -524 q 232 127 480 188 q 248 62 524 62 q 447 0 707 -235 q 261 -235 261 -638 q 0 -403 -261 -638 q -261 -235 -707 -235 q -209 0 -417 46 q -208 46 -425 145 l 0 -1936 Z M 346416 644533 q -403 0 -605 396 q -203 396 -203 1192 q 0 793 203 1189 q 203 396 605 396 q 405 0 608 -396 q 203 -396 203 -1189 q 0 -795 -203 -1192 q -203 -396 -608 -396 m 0 -413 q 648 0 990 513 q 342 513 342 1489 q 0 973 -342 1486 q -342 513 -990 513 q -648 0 -990 -513 q -342 -513 -342 -1486 q 0 -976 342 -1489 q 342 -513 990 -513 Z" class="C2" /><path d="M 326991 640295 l 0 0" class="C1" /><path d="M 359115 640295 l 0 0" class="C1" /><path d="M 359115 649201 l 0 0" class="C1" /><path d="M 127823 640295 l 0 18545" class="C6" /><path d="M 359115 640295 l 0 18545" class="C6" /><path d="M 129365 658838 l 228209 0" class="C6" /><path d="M 128504 657884 l -1635 1635 273 273 1635 -1635 Z" class="C7" /><path d="M 130136 658838 l -4626 0" class="C6" /><path d="M 127823 657296 l 0 3084" class="C6" /><path d="M 358434 659792 l 1635 -1635 -273 -273 -1635 1635 Z" class="C7" /><path d="M 356802 658838 l 4626 0" class="C6" /><path d="M 359115 660380 l 0 -3084" class="C6" /><path d="M 237396 657243 l 852 0 l 0 -2941 l -927 186 l 0 -475 l 922 -186 l 522 0 l 0 3416 l 852 0 l 0 439 l -2220 0 l 0 -439 Z M 241785 655851 q -372 0 -585 199 q -213 199 -213 547 q 0 349 213 547 q 213 199 585 199 q 372 0 586 -200 q 214 -200 214 -546 q 0 -349 -213 -547 q -213 -199 -587 -199 m -522 -222 q -336 -83 -523 -312 q -187 -230 -187 -560 q 0 -462 329 -731 q 329 -269 902 -269 q 576 0 904 269 q 328 269 328 731 q 0 330 -187 560 q -187 230 -520 312 q 377 88 587 343 q 210 256 210 625 q 0 560 -342 860 q -342 300 -980 300 q -638 0 -980 -300 q -342 -300 -342 -860 q 0 -369 212 -625 q 212 -256 589 -343 m -191 -824 q 0 300 187 467 q 187 168 525 168 q 336 0 525 -168 q 190 -168 190 -467 q 0 -300 -190 -467 q -190 -168 -525 -168 q -338 0 -525 168 q -187 168 -187 467 Z M 245150 654170 q -403 0 -605 396 q -203 396 -203 1192 q 0 793 203 1189 q 203 396 605 396 q 405 0 608 -396 q 203 -396 203 -1189 q 0 -795 -203 -1192 q -203 -396 -608 -396 m 0 -413 q 648 0 990 513 q 342 513 342 1489 q 0 973 -342 1486 q -342 513 -990 513 q -648 0 -990 -513 q -342 -513 -342 -1486 q 0 -976 342 -1489 q 342 -513 990 -513 Z M 248514 654170 q -403 0 -605 396 q -203 396 -203 1192 q 0 793 203 1189 q 203 396 605 396 q 405 0 608 -396 q 203 -396 203 -1189 q 0 -795 -203 -1192 q -203 -396 -608 -396 m 0 -413 q 648 0 990 513 q 342 513 342 1489 q 0 973 -342 1486 q -342 513 -990 513 q -648 0 -990 -513 q -342 -513 -342 -1486 q 0 -976 342 -1489 q 342 -513 990 -513 Z" class="C2" /><path d="M 127823 640295 l 0 0" class="C1" /><path d="M 359115 640295 l 0 0" class="C1" /><path d="M 359115 658838 l 0 0" class="C1" /><path d="M 410781 641357 l 0 7846" class="C6" /><path d="M 423631 641357 l 0 7846" class="C6" /><path d="M 412323 649201 l 9766 0" class="C6" /><path d="M 411463 648247 l -1635 1635 273 273 1635 -1635 Z" class="C7" /><path d="M 413094 649201 l -4626 0" class="C6" /><path d="M 410781 647659 l 0 3084" class="C6" /><path d="M 422949 650155 l 1635 -1635 -273 -273 -1635 1635 Z" class="C7" /><path d="M 421318 649201 l 4626 0" class="C6" /><path d="M 423631 650743 l 0 -3084" class="C6" /><path d="M 412815 647606 l 852 0 l 0 -2941 l -927 186 l 0 -475 l 922 -186 l 522 0 l 0 3416 l 852 0 l 0 439 l -2220 0 l 0 -439 Z M 417205 644533 q -403 0 -605 396 q -203 396 -203 1192 q 0 793 203 1189 q 203 396 605 396 q 405 0 608 -396 q 203 -396 203 -1189 q 0 -795 -203 -1192 q -203 -396 -608 -396 m 0 -413 q 648 0 990 513 q 342 513 342 1489 q 0 973 -342 1486 q -342 513 -990 513 q -648 0 -990 -513 q -342 -513 -342 -1486 q 0 -976 342 -1489 q 342 -513 990 -513 Z M 420569 644533 q -403 0 -605 396 q -203 396 -203 1192 q 0 793 203 1189 q 203 396 605 396 q 405 0 608 -396 q 203 -396 203 -1189 q 0 -795 -203 -1192 q -203 -396 -608 -396 m 0 -413 q 648 0 990 513 q 342 513 342 1489 q 0 973 -342 1486 q -342 513 -990 513 q -648 0 -990 -513 q -342 -513 -342 -1486 q 0 -976 342 -1489 q 342 -513 990 -513 Z" class="C2" /><path d="M 410781 641357 l 0 0" class="C1" /><path d="M 423631 641357 l 0 0" class="C1" /><path d="M 423631 649201 l 0 0" class="C1" /><path d="M 423631 641357 l 0 7846" class="C6" /><path d="M 500728 641357 l 0 7846" class="C6" /><path d="M 425173 649201 l 74014 0" class="C6" /><path d="M 424312 648247 l -1635 1635 273 273 1635 -1635 Z" class="C7" /><path d="M 425944 649201 l -4626 0" class="C6" /><path d="M 423631 647659 l 0 3084" class="C6" /><path d="M 500047 650155 l 1635 -1635 -273 -273 -1635 1635 Z" class="C7" /><path d="M 498415 649201 l 4626 0" class="C6" /><path d="M 500728 650743 l 0 -3084" class="C6" /><path d="M 458879 645909 q -351 0 -556 240 q -205 240 -205 658 q 0 416 205 657 q 205 241 556 241 q 351 0 556 -241 q 205 -241 205 -657 q 0 -418 -205 -658 q -205 -240 -556 -240 m 1035 -1634 l 0 475 q -196 -93 -396 -142 q -200 -49 -396 -49 q -516 0 -789 349 q -272 349 -311 1053 q 152 -225 382 -345 q 230 -120 506 -120 q 581 0 918 352 q 337 352 337 959 q 0 594 -351 953 q -351 359 -935 359 q -669 0 -1022 -513 q -354 -513 -354 -1486 q 0 -914 434 -1458 q 434 -544 1164 -544 q 196 0 396 39 q 200 39 417 116 Z M 462178 644533 q -403 0 -605 396 q -203 396 -203 1192 q 0 793 203 1189 q 203 396 605 396 q 405 0 608 -396 q 203 -396 203 -1189 q 0 -795 -203 -1192 q -203 -396 -608 -396 m 0 -413 q 648 0 990 513 q 342 513 342 1489 q 0 973 -342 1486 q -342 513 -990 513 q -648 0 -990 -513 q -342 -513 -342 -1486 q 0 -976 342 -1489 q 342 -513 990 -513 Z M 465543 644533 q -403 0 -605 396 q -203 396 -203 1192 q 0 793 203 1189 q 203 396 605 396 q 405 0 608 -396 q 203 -396 203 -1189 q 0 -795 -203 -1192 q -203 -396 -608 -396 m 0 -413 q 648 0 990 513 q 342 513 342 1489 q 0 973 -342 1486 q -342 513 -990 513 q -648 0 -990 -513 q -342 -513 -342 -1486 q 0 -976 342 -1489 q 342 -513 990 -513 Z" class="C2" /><path d="M 423631 641357 l 0 0" class="C1" /><path d="M 500728 641357 l 0 0" class="C1" /><path d="M 500728 649201 l 0 0" class="C1" /><path d="M 500728 641357 l 0 7846" class="C6" /><path d="M 513578 641357 l 0 7846" class="C6" /><path d="M 502270 649201 l 9766 0" class="C6" /><path d="M 501410 648247 l -1635 1635 273 273 1635 -1635 Z" class="C7" /><path d="M 503041 649201 l -4626 0" class="C6" /><path d="M 500728 647659 l 0 3084" class="C6" /><path d="M 512896 650155 l 1635 -1635 -273 -273 -1635 1635 Z" class="C7" /><path d="M 511265 649201 l 4626 0" class="C6" /><path d="M 513578 650743 l 0 -3084" class="C6" /><path d="M 502762 647606 l 852 0 l 0 -2941 l -927 186 l 0 -475 l 922 -186 l 522 0 l 0 3416 l 852 0 l 0 439 l -2220 0 l 0 -439 Z M 507152 644533 q -403 0 -605 396 q -203 396 -203 1192 q 0 793 203 1189 q 203 396 605 396 q 405 0 608 -396 q 203 -396 203 -1189 q 0 -795 -203 -1192 q -203 -396 -608 -396 m 0 -413 q 648 0 990 513 q 342 513 342 1489 q 0 973 -342 1486 q -342 513 -990 513 q -648 0 -990 -513 q -342 -513 -342 -1486 q 0 -976 342 -1489 q 342 -513 990 -513 Z M 510516 644533 q -403 0 -605 396 q -203 396 -203 1192 q 0 793 203 1189 q 203 396 605 396 q 405 0 608 -396 q 203 -396 203 -1189 q 0 -795 -203 -1192 q -203 -396 -608 -396 m 0 -413 q 648 0 990 513 q 342 513 342 1489 q 0 973 -342 1486 q -342 513 -990 513 q -648 0 -990 -513 q -342 -513 -342 -1486 q 0 -976 342 -1489 q 342 -513 990 -513 Z" class="C2" /><path d="M 500728 641357 l 0 0" class="C1" /><path d="M 513578 641357 l 0 0" class="C1" /><path d="M 513578 649201 l 0 0" class="C1" /><path d="M 410781 641357 l 0 17483" class="C6" /><path d="M 513578 641357 l 0 17483" class="C6" /><path d="M 412323 658838 l 99713 0" class="C6" /><path d="M 411463 657884 l -1635 1635 273 273 1635 -1635 Z" class="C7" /><path d="M 413094 658838 l -4626 0" class="C6" /><path d="M 410781 657296 l 0 3084" class="C6" /><path d="M 512896 659792 l 1635 -1635 -273 -273 -1635 1635 Z" class="C7" /><path d="M 511265 658838 l 4626 0" class="C6" /><path d="M 513578 660380 l 0 -3084" class="C6" /><path d="M 458814 655851 q -372 0 -585 199 q -213 199 -213 547 q 0 349 213 547 q 213 199 585 199 q 372 0 586 -200 q 214 -200 214 -546 q 0 -349 -213 -547 q -213 -199 -587 -199 m -522 -222 q -336 -83 -523 -312 q -187 -230 -187 -560 q 0 -462 329 -731 q 329 -269 902 -269 q 576 0 904 269 q 328 269 328 731 q 0 330 -187 560 q -187 230 -520 312 q 377 88 587 343 q 210 256 210 625 q 0 560 -342 860 q -342 300 -980 300 q -638 0 -980 -300 q -342 -300 -342 -860 q 0 -369 212 -625 q 212 -256 589 -343 m -191 -824 q 0 300 187 467 q 187 168 525 168 q 336 0 525 -168 q 190 -168 190 -467 q 0 -300 -190 -467 q -190 -168 -525 -168 q -338 0 -525 168 q -187 168 -187 467 Z M 462178 654170 q -403 0 -605 396 q -203 396 -203 1192 q 0 793 203 1189 q 203 396 605 396 q 405 0 608 -396 q 203 -396 203 -1189 q 0 -795 -203 -1192 q -203 -396 -608 -396 m 0 -413 q 648 0 990 513 q 342 513 342 1489 q 0 973 -342 1486 q -342 513 -990 513 q -648 0 -990 -513 q -342 -513 -342 -1486 q 0 -976 342 -1489 q 342 -513 990 -513 Z M 465543 654170 q -403 0 -605 396 q -203 396 -203 1192 q 0 793 203 1189 q 203 396 605 396 q 405 0 608 -396 q 203 -396 203 -1189 q 0 -795 -203 -1192 q -203 -396 -608 -396 m 0 -413 q 648 0 990 513 q 342 513 342 1489 q 0 973 -342 1486 q -342 513 -990 513 q -648 0 -990 -513 q -342 -513 -342 -1486 q 0 -976 342 -1489 q 342 -513 990 -513 Z" class="C2" /><path d="M 410781 641357 l 0 0" class="C1" /><path d="M 513578 641357 l 0 0" class="C1" /><path d="M 513578 658838 l 0 0" class="C1" /><path d="M 369750 533555 l 10635 0" class="C6" /><path d="M 369750 538181 l 10635 0" class="C6" /><path d="M 380384 532013 l 0 -1542" class="C6" /><path d="M 380384 539722 l 0 1542" class="C6" /><path d="M 380384 533555 l 0 4626" class="C6" /><path d="M 379430 532873 l 1635 1635 273 -273 -1635 -1635 Z" class="C7" /><path d="M 380384 531242 l 0 4626" class="C6" /><path d="M 378842 533555 l 3084 0" class="C6" /><path d="M 381338 538862 l -1635 -1635 -273 273 1635 1635 Z" class="C7" /><path d="M 380384 540493 l 0 -4626" class="C6" /><path d="M 381926 538181 l -3084 0" class="C6" /><path d="M 377149 537086 q 80 -374 333 -585 q 253 -210 625 -210 q 571 0 883 392 q 312 392 312 1115 q 0 243 -48 500 q -48 257 -143 531 l -503 0 q 127 -217 191 -475 q 65 -258 65 -540 q 0 -491 -194 -747 q -194 -257 -563 -257 q -341 0 -533 239 q -192 239 -192 665 l 0 449 l -429 0 l 0 -470 q 0 -385 -154 -589 q -154 -204 -443 -204 q -297 0 -456 210 q -159 210 -159 603 q 0 214 46 460 q 46 245 145 540 l -465 0 q -83 -297 -124 -556 q -41 -259 -41 -489 q 0 -594 270 -940 q 270 -346 729 -346 q 320 0 541 183 q 221 183 306 522 Z M 377092 534122 q 0 351 240 556 q 240 205 658 205 q 416 0 657 -205 q 241 -205 241 -556 q 0 -351 -241 -556 q -241 -205 -657 -205 q -418 0 -658 205 q -240 205 -240 556 m -1634 -1035 l 475 0 q -93 196 -142 396 q -49 200 -49 396 q 0 516 349 789 q 349 272 1053 311 q -225 -152 -345 -382 q -120 -230 -120 -506 q 0 -581 352 -918 q 352 -337 959 -337 q 594 0 953 351 q 359 351 359 935 q 0 669 -513 1022 q -513 354 -1486 354 q -914 0 -1458 -434 q -544 -434 -544 -1164 q 0 -196 39 -396 q 39 -200 116 -417 Z" class="C2" /><path d="M 369750 533555 l 0 0" class="C1" /><path d="M 369750 538181 l 0 0" class="C1" /><path d="M 380384 538181 l 0 0" class="C1" /><path d="M 369750 538181 l 10635 0" class="C6" /><path d="M 369750 620675 l 10635 0" class="C6" /><path d="M 380384 539722 l 0 79410" class="C6" /><path d="M 381338 538862 l -1635 -1635 -273 273 1635 1635 Z" class="C7" /><path d="M 380384 540493 l 0 -4626" class="C6" /><path d="M 381926 538181 l -3084 0" class="C6" /><path d="M 379430 619993 l 1635 1635 273 -273 -1635 -1635 Z" class="C7" /><path d="M 380384 618362 l 0 4626" class="C6" /><path d="M 378842 620675 l 3084 0" class="C6" /><path d="M 377092 582729 q 0 351 240 556 q 240 205 658 205 q 416 0 657 -205 q 241 -205 241 -556 q 0 -351 -241 -556 q -241 -205 -657 -205 q -418 0 -658 205 q -240 205 -240 556 m -1634 -1035 l 475 0 q -93 196 -142 396 q -49 200 -49 396 q 0 516 349 789 q 349 272 1053 311 q -225 -152 -345 -382 q -120 -230 -120 -506 q 0 -581 352 -918 q 352 -337 959 -337 q 594 0 953 351 q 359 351 359 935 q 0 669 -513 1022 q -513 354 -1486 354 q -914 0 -1458 -434 q -544 -434 -544 -1164 q 0 -196 39 -396 q 39 -200 116 -417 Z M 375827 579111 l 2058 1317 l 0 -1317 l -2058 0 m -454 137 l 0 -656 l 2512 0 l 0 -550 l 434 0 l 0 550 l 909 0 l 0 519 l -909 0 l 0 1740 l -503 0 l -2443 -1603 Z M 378788 576731 l 0 -1820 l 439 0 l 0 2448 l -439 0 q -307 -297 -825 -809 q -518 -513 -667 -644 q -281 -250 -476 -350 q -195 -99 -383 -99 q -307 0 -501 216 q -194 216 -194 562 q 0 245 85 518 q 85 272 258 582 l -527 0 q -127 -315 -191 -589 q -65 -274 -65 -501 q 0 -599 300 -955 q 300 -356 800 -356 q 238 0 451 89 q 213 89 502 324 q 75 65 432 411 q 358 346 1001 976 Z" class="C2" /><path d="M 369750 538181 l 0 0" class="C1" /><path d="M 369750 620675 l 0 0" class="C1" /><path d="M 380384 620675 l 0 0" class="C1" /><path d="M 369750 620675 l 10635 0" class="C6" /><path d="M 369750 625301 l 10635 0" class="C6" /><path d="M 380384 619133 l 0 -1542" class="C6" /><path d="M 380384 626843 l 0 1542" class="C6" /><path d="M 377149 619097 q 80 -374 333 -585 q 253 -210 625 -210 q 571 0 883 392 q 312 392 312 1115 q 0 243 -48 500 q -48 257 -143 531 l -503 0 q 127 -217 191 -475 q 65 -258 65 -540 q 0 -491 -194 -747 q -194 -257 -563 -257 q -341 0 -533 239 q -192 239 -192 665 l 0 449 l -429 0 l 0 -470 q 0 -385 -154 -589 q -154 -204 -443 -204 q -297 0 -456 210 q -159 210 -159 603 q 0 214 46 460 q 46 245 145 540 l -465 0 q -83 -297 -124 -556 q -41 -259 -41 -489 q 0 -594 270 -940 q 270 -346 729 -346 q 320 0 541 183 q 221 183 306 522 Z M 377092 616133 q 0 351 240 556 q 240 205 658 205 q 416 0 657 -205 q 241 -205 241 -556 q 0 -351 -241 -556 q -241 -205 -657 -205 q -418 0 -658 205 q -240 205 -240 556 m -1634 -1035 l 475 0 q -93 196 -142 396 q -49 200 -49 396 q 0 516 349 789 q 349 272 1053 311 q -225 -152 -345 -382 q -120 -230 -120 -506 q 0 -581 352 -918 q 352 -337 959 -337 q 594 0 953 351 q 359 351 359 935 q 0 669 -513 1022 q -513 354 -1486 354 q -914 0 -1458 -434 q -544 -434 -544 -1164 q 0 -196 39 -396 q 39 -200 116 -417 Z" class="C2" /><path d="M 380384 620675 l 0 4626" class="C6" /><path d="M 379430 619993 l 1635 1635 273 -273 -1635 -1635 Z" class="C7" /><path d="M 380384 618362 l 0 4626" class="C6" /><path d="M 378842 620675 l 3084 0" class="C6" /><path d="M 381338 625982 l -1635 -1635 -273 273 1635 1635 Z" class="C7" /><path d="M 380384 627614 l 0 -4626" class="C6" /><path d="M 381926 625301 l -3084 0" class="C6" /><path d="M 369750 620675 l 0 0" class="C1" /><path d="M 369750 625301 l 0 0" class="C1" /><path d="M 380384 625301 l 0 0" class="C1" /><path d="M 369750 625301 l 10635 0" class="C6" /><path d="M 369750 629927 l 10635 0" class="C6" /><path d="M 380384 623759 l 0 -1542" class="C6" /><path d="M 380384 631468 l 0 1542" class="C6" /><path d="M 380384 625301 l 0 4626" class="C6" /><path d="M 379430 624619 l 1635 1635 273 -273 -1635 -1635 Z" class="C7" /><path d="M 380384 622988 l 0 4626" class="C6" /><path d="M 378842 625301 l 3084 0" class="C6" /><path d="M 381338 630608 l -1635 -1635 -273 273 1635 1635 Z" class="C7" /><path d="M 380384 632239 l 0 -4626" class="C6" /><path d="M 381926 629927 l -3084 0" class="C6" /><path d="M 377149 628832 q 80 -374 333 -585 q 253 -210 625 -210 q 571 0 883 392 q 312 392 312 1115 q 0 243 -48 500 q -48 257 -143 531 l -503 0 q 127 -217 191 -475 q 65 -258 65 -540 q 0 -491 -194 -747 q -194 -257 -563 -257 q -341 0 -533 239 q -192 239 -192 665 l 0 449 l -429 0 l 0 -470 q 0 -385 -154 -589 q -154 -204 -443 -204 q -297 0 -456 210 q -159 210 -159 603 q 0 214 46 460 q 46 245 145 540 l -465 0 q -83 -297 -124 -556 q -41 -259 -41 -489 q 0 -594 270 -940 q 270 -346 729 -346 q 320 0 541 183 q 221 183 306 522 Z M 377092 625868 q 0 351 240 556 q 240 205 658 205 q 416 0 657 -205 q 241 -205 241 -556 q 0 -351 -241 -556 q -241 -205 -657 -205 q -418 0 -658 205 q -240 205 -240 556 m -1634 -1035 l 475 0 q -93 196 -142 396 q -49 200 -49 396 q 0 516 349 789 q 349 272 1053 311 q -225 -152 -345 -382 q -120 -230 -120 -506 q 0 -581 352 -918 q 352 -337 959 -337 q 594 0 953 351 q 359 351 359 935 q 0 669 -513 1022 q -513 354 -1486 354 q -914 0 -1458 -434 q -544 -434 -544 -1164 q 0 -196 39 -396 q 39 -200 116 -417 Z" class="C2" /><path d="M 369750 625301 l 0 0" class="C1" /><path d="M 369750 629927 l 0 0" class="C1" /><path d="M 380384 629927 l 0 0" class="C1" /><path d="M 369750 629927 l 20272 0" class="C6" /><path d="M 369750 533555 l 20272 0" class="C6" /><path d="M 390021 628385 l 0 -93288" class="C6" /><path d="M 389067 629245 l 1635 1635 273 -273 -1635 -1635 Z" class="C7" /><path d="M 390021 627614 l 0 4626" class="C6" /><path d="M 388479 629927 l 3084 0" class="C6" /><path d="M 390975 534236 l -1635 -1635 -273 273 1635 1635 Z" class="C7" /><path d="M 390021 535868 l 0 -4626" class="C6" /><path d="M 391563 533555 l -3084 0" class="C6" /><path d="M 385009 586353 l 0 -2479 l 222 0 l 3633 1399 l 0 545 l -3416 -1317 l 0 1851 l -439 0 Z M 385009 582852 l 0 -2047 l 439 0 l 0 1570 l 945 0 q -39 -114 -58 -227 q -19 -114 -19 -227 q 0 -645 354 -1022 q 354 -377 958 -377 q 622 0 967 387 q 345 387 345 1092 q 0 243 -41 494 q -41 252 -124 520 l -524 0 q 127 -232 188 -480 q 62 -248 62 -524 q 0 -447 -235 -707 q -235 -261 -638 -261 q -403 0 -638 261 q -235 261 -235 707 q 0 209 46 417 q 46 208 145 425 l -1936 0 Z M 385353 578378 q 0 403 396 605 q 396 203 1192 203 q 793 0 1189 -203 q 396 -203 396 -605 q 0 -405 -396 -608 q -396 -203 -1189 -203 q -795 0 -1192 203 q -396 203 -396 608 m -413 0 q 0 -648 513 -990 q 513 -342 1489 -342 q 973 0 1486 342 q 513 342 513 990 q 0 648 -513 990 q -513 342 -1486 342 q -976 0 -1489 -342 q -513 -342 -513 -990 Z" class="C2" /><path d="M 369750 629927 l 0 0" class="C1" /><path d="M 369750 533555 l 0 0" class="C1" /><path d="M 390021 533555 l 0 0" class="C1" /><path d="M 524213 533555 l 10635 0" class="C6" /><path d="M 524213 538181 l 10635 0" class="C6" /><path d="M 534846 532013 l 0 -1542" class="C6" /><path d="M 534846 539722 l 0 1542" class="C6" /><path d="M 534846 533555 l 0 4626" class="C6" /><path d="M 533892 532873 l 1635 1635 273 -273 -1635 -1635 Z" class="C7" /><path d="M 534846 531242 l 0 4626" class="C6" /><path d="M 533304 533555 l 3084 0" class="C6" /><path d="M 535800 538862 l -1635 -1635 -273 273 1635 1635 Z" class="C7" /><path d="M 534846 540493 l 0 -4626" class="C6" /><path d="M 536388 538181 l -3084 0" class="C6" /><path d="M 531611 537086 q 80 -374 333 -585 q 253 -210 625 -210 q 571 0 883 392 q 312 392 312 1115 q 0 243 -48 500 q -48 257 -143 531 l -503 0 q 127 -217 191 -475 q 65 -258 65 -540 q 0 -491 -194 -747 q -194 -257 -563 -257 q -341 0 -533 239 q -192 239 -192 665 l 0 449 l -429 0 l 0 -470 q 0 -385 -154 -589 q -154 -204 -443 -204 q -297 0 -456 210 q -159 210 -159 603 q 0 214 46 460 q 46 245 145 540 l -465 0 q -83 -297 -124 -556 q -41 -259 -41 -489 q 0 -594 270 -940 q 270 -346 729 -346 q 320 0 541 183 q 221 183 306 522 Z M 531555 534122 q 0 351 240 556 q 240 205 658 205 q 416 0 657 -205 q 241 -205 241 -556 q 0 -351 -241 -556 q -241 -205 -657 -205 q -418 0 -658 205 q -240 205 -240 556 m -1634 -1035 l 475 0 q -93 196 -142 396 q -49 200 -49 396 q 0 516 349 789 q 349 272 1053 311 q -225 -152 -345 -382 q -120 -230 -120 -506 q 0 -581 352 -918 q 352 -337 959 -337 q 594 0 953 351 q 359 351 359 935 q 0 669 -513 1022 q -513 354 -1486 354 q -914 0 -1458 -434 q -544 -434 -544 -1164 q 0 -196 39 -396 q 39 -200 116 -417 Z" class="C2" /><path d="M 524213 533555 l 0 0" class="C1" /><path d="M 524213 538181 l 0 0" class="C1" /><path d="M 534846 538181 l 0 0" class="C1" /><path d="M 524213 538181 l 10635 0" class="C6" /><path d="M 524213 620675 l 10635 0" class="C6" /><path d="M 534846 539722 l 0 79410" class="C6" /><path d="M 535800 538862 l -1635 -1635 -273 273 1635 1635 Z" class="C7" /><path d="M 534846 540493 l 0 -4626" class="C6" /><path d="M 536388 538181 l -3084 0" class="C6" /><path d="M 533892 619993 l 1635 1635 273 -273 -1635 -1635 Z" class="C7" /><path d="M 534846 618362 l 0 4626" class="C6" /><path d="M 533304 620675 l 3084 0" class="C6" /><path d="M 531555 582729 q 0 351 240 556 q 240 205 658 205 q 416 0 657 -205 q 241 -205 241 -556 q 0 -351 -241 -556 q -241 -205 -657 -205 q -418 0 -658 205 q -240 205 -240 556 m -1634 -1035 l 475 0 q -93 196 -142 396 q -49 200 -49 396 q 0 516 349 789 q 349 272 1053 311 q -225 -152 -345 -382 q -120 -230 -120 -506 q 0 -581 352 -918 q 352 -337 959 -337 q 594 0 953 351 q 359 351 359 935 q 0 669 -513 1022 q -513 354 -1486 354 q -914 0 -1458 -434 q -544 -434 -544 -1164 q 0 -196 39 -396 q 39 -200 116 -417 Z M 530289 579111 l 2058 1317 l 0 -1317 l -2058 0 m -454 137 l 0 -656 l 2512 0 l 0 -550 l 434 0 l 0 550 l 909 0 l 0 519 l -909 0 l 0 1740 l -503 0 l -2443 -1603 Z M 533251 576731 l 0 -1820 l 439 0 l 0 2448 l -439 0 q -307 -297 -825 -809 q -518 -513 -667 -644 q -281 -250 -476 -350 q -195 -99 -383 -99 q -307 0 -501 216 q -194 216 -194 562 q 0 245 85 518 q 85 272 258 582 l -527 0 q -127 -315 -191 -589 q -65 -274 -65 -501 q 0 -599 300 -955 q 300 -356 800 -356 q 238 0 451 89 q 213 89 502 324 q 75 65 432 411 q 358 346 1001 976 Z" class="C2" /><path d="M 524213 538181 l 0 0" class="C1" /><path d="M 524213 620675 l 0 0" class="C1" /><path d="M 534846 620675 l 0 0" class="C1" /><path d="M 524213 620675 l 10635 0" class="C6" /><path d="M 524213 625301 l 10635 0" class="C6" /><path d="M 534846 619133 l 0 -1542" class="C6" /><path d="M 534846 626843 l 0 1542" class="C6" /><path d="M 531611 619097 q 80 -374 333 -585 q 253 -210 625 -210 q 571 0 883 392 q 312 392 312 1115 q 0 243 -48 500 q -48 257 -143 531 l -503 0 q 127 -217 191 -475 q 65 -258 65 -540 q 0 -491 -194 -747 q -194 -257 -563 -257 q -341 0 -533 239 q -192 239 -192 665 l 0 449 l -429 0 l 0 -470 q 0 -385 -154 -589 q -154 -204 -443 -204 q -297 0 -456 210 q -159 210 -159 603 q 0 214 46 460 q 46 245 145 540 l -465 0 q -83 -297 -124 -556 q -41 -259 -41 -489 q 0 -594 270 -940 q 270 -346 729 -346 q 320 0 541 183 q 221 183 306 522 Z M 531555 616133 q 0 351 240 556 q 240 205 658 205 q 416 0 657 -205 q 241 -205 241 -556 q 0 -351 -241 -556 q -241 -205 -657 -205 q -418 0 -658 205 q -240 205 -240 556 m -1634 -1035 l 475 0 q -93 196 -142 396 q -49 200 -49 396 q 0 516 349 789 q 349 272 1053 311 q -225 -152 -345 -382 q -120 -230 -120 -506 q 0 -581 352 -918 q 352 -337 959 -337 q 594 0 953 351 q 359 351 359 935 q 0 669 -513 1022 q -513 354 -1486 354 q -914 0 -1458 -434 q -544 -434 -544 -1164 q 0 -196 39 -396 q 39 -200 116 -417 Z" class="C2" /><path d="M 534846 620675 l 0 4626" class="C6" /><path d="M 533892 619993 l 1635 1635 273 -273 -1635 -1635 Z" class="C7" /><path d="M 534846 618362 l 0 4626" class="C6" /><path d="M 533304 620675 l 3084 0" class="C6" /><path d="M 535800 625982 l -1635 -1635 -273 273 1635 1635 Z" class="C7" /><path d="M 534846 627614 l 0 -4626" class="C6" /><path d="M 536388 625301 l -3084 0" class="C6" /><path d="M 524213 620675 l 0 0" class="C1" /><path d="M 524213 625301 l 0 0" class="C1" /><path d="M 534846 625301 l 0 0" class="C1" /><path d="M 524213 625301 l 10635 0" class="C6" /><path d="M 524213 629927 l 10635 0" class="C6" /><path d="M 534846 623759 l 0 -1542" class="C6" /><path d="M 534846 631468 l 0 1542" class="C6" /><path d="M 534846 625301 l 0 4626" class="C6" /><path d="M 533892 624619 l 1635 1635 273 -273 -1635 -1635 Z" class="C7" /><path d="M 534846 622988 l 0 4626" class="C6" /><path d="M 533304 625301 l 3084 0" class="C6" /><path d="M 535800 630608 l -1635 -1635 -273 273 1635 1635 Z" class="C7" /><path d="M 534846 632239 l 0 -4626" class="C6" /><path d="M 536388 629927 l -3084 0" class="C6" /><path d="M 531611 628832 q 80 -374 333 -585 q 253 -210 625 -210 q 571 0 883 392 q 312 392 312 1115 q 0 243 -48 500 q -48 257 -143 531 l -503 0 q 127 -217 191 -475 q 65 -258 65 -540 q 0 -491 -194 -747 q -194 -257 -563 -257 q -341 0 -533 239 q -192 239 -192 665 l 0 449 l -429 0 l 0 -470 q 0 -385 -154 -589 q -154 -204 -443 -204 q -297 0 -456 210 q -159 210 -159 603 q 0 214 46 460 q 46 245 145 540 l -465 0 q -83 -297 -124 -556 q -41 -259 -41 -489 q 0 -594 270 -940 q 270 -346 729 -346 q 320 0 541 183 q 221 183 306 522 Z M 531555 625868 q 0 351 240 556 q 240 205 658 205 q 416 0 657 -205 q 241 -205 241 -556 q 0 -351 -241 -556 q -241 -205 -657 -205 q -418 0 -658 205 q -240 205 -240 556 m -1634 -1035 l 475 0 q -93 196 -142 396 q -49 200 -49 396 q 0 516 349 789 q 349 272 1053 311 q -225 -152 -345 -382 q -120 -230 -120 -506 q 0 -581 352 -918 q 352 -337 959 -337 q 594 0 953 351 q 359 351 359 935 q 0 669 -513 1022 q -513 354 -1486 354 q -914 0 -1458 -434 q -544 -434 -544 -1164 q 0 -196 39 -396 q 39 -200 116 -417 Z" class="C2" /><path d="M 524213 625301 l 0 0" class="C1" /><path d="M 524213 629927 l 0 0" class="C1" /><path d="M 534846 629927 l 0 0" class="C1" /><path d="M 524213 629927 l 20272 0" class="C6" /><path d="M 524213 533555 l 20272 0" class="C6" /><path d="M 544484 628385 l 0 -93288" class="C6" /><path d="M 543529 629245 l 1635 1635 273 -273 -1635 -1635 Z" class="C7" /><path d="M 544484 627614 l 0 4626" class="C6" /><path d="M 542942 629927 l 3084 0" class="C6" /><path d="M 545438 534236 l -1635 -1635 -273 273 1635 1635 Z" class="C7" /><path d="M 544484 535868 l 0 -4626" class="C6" /><path d="M 546025 533555 l -3084 0" class="C6" /><path d="M 539472 586353 l 0 -2479 l 222 0 l 3633 1399 l 0 545 l -3416 -1317 l 0 1851 l -439 0 Z M 539472 582852 l 0 -2047 l 439 0 l 0 1570 l 945 0 q -39 -114 -58 -227 q -19 -114 -19 -227 q 0 -645 354 -1022 q 354 -377 958 -377 q 622 0 967 387 q 345 387 345 1092 q 0 243 -41 494 q -41 252 -124 520 l -524 0 q 127 -232 188 -480 q 62 -248 62 -524 q 0 -447 -235 -707 q -235 -261 -638 -261 q -403 0 -638 261 q -235 261 -235 707 q 0 209 46 417 q 46 208 145 425 l -1936 0 Z M 539816 578378 q 0 403 396 605 q 396 203 1192 203 q 793 0 1189 -203 q 396 -203 396 -605 q 0 -405 -396 -608 q -396 -203 -1189 -203 q -795 0 -1192 203 q -396 203 -396 608 m -413 0 q 0 -648 513 -990 q 513 -342 1489 -342 q 973 0 1486 342 q 513 342 513 990 q 0 648 -513 990 q -513 342 -1486 342 q -976 0 -1489 -342 q -513 -342 -513 -990 Z" class="C2" /><path d="M 524213 629927 l 0 0" class="C1" /><path d="M 524213 533555 l 0 0" class="C1" /><path d="M 544484 533555 l 0 0" class="C1" /><path d="M 449372 670317 l 1243 0 l 1574 5247 l 1582 -5247 l 1243 0 l 0 7710 l -814 0 l 0 -6770 l -1590 5288 l -839 0 l -1590 -5288 l 0 6770 l -810 0 l 0 -7710 Z M 457514 668019 l 487 0 q 45 387 246 581 q 200 194 560 194 q 355 0 554 -191 q 198 -191 252 -584 l 487 0 q -41 738 -368 1110 q -326 372 -925 372 q -599 0 -925 -372 q -326 -372 -368 -1110 m 1219 3326 l -1132 3837 l 2268 0 l -1136 -3837 m -471 -1028 l 946 0 l 2351 7710 l -868 0 l -562 -1978 l -2780 0 l -562 1978 l -880 0 l 2355 -7710 m 99 8438 l 760 0 l 0 1208 l -760 0 l 0 -1208 Z M 461604 670317 l 5218 0 l 0 878 l -2190 0 l 0 6832 l -839 0 l 0 -6832 l -2190 0 l 0 -878 Z M 471151 674345 l 0 2825 l 1338 0 q 673 0 998 -349 q 324 -349 324 -1066 q 0 -723 -324 -1066 q -324 -343 -998 -343 l -1338 0 m 0 -3171 l 0 2324 l 1235 0 q 611 0 911 -287 q 300 -287 300 -875 q 0 -584 -300 -873 q -300 -289 -911 -289 l -1235 0 m -834 -857 l 2132 0 q 954 0 1471 496 q 516 496 516 1410 q 0 707 -264 1126 q -264 418 -777 522 q 616 165 956 689 q 341 524 341 1309 q 0 1033 -562 1596 q -562 563 -1599 563 l -2214 0 l 0 -7710 Z M 476121 670317 l 3900 0 l 0 878 l -3065 0 l 0 2282 l 2937 0 l 0 878 l -2937 0 l 0 2794 l 3140 0 l 0 878 l -3974 0 l 0 -7710 m 1549 -2107 l 777 0 l 872 1374 l -574 0 l -686 -919 l -686 919 l -574 0 l 872 -1374 Z M 481467 670317 l 1124 0 l 2735 6450 l 0 -6450 l 810 0 l 0 7710 l -1124 0 l -2735 -6450 l 0 6450 l -810 0 l 0 -7710 Z" class="C2" /></g></svg>