<?xml version='1.0' encoding='utf-8'?>
<svg xmlns="http://www.w3.org/2000/svg" width="210mm" height="297mm" viewBox="0 0 707071 1000000"><defs><style>.C1 {stroke: #ffffff; stroke-width: 438; stroke-opacity: 1.000; fill: none; fill-opacity: 1.000;}</style><style>.C2 {stroke: none; stroke-width: none; stroke-opacity: 1.000; fill: #ffffff; fill-opacity: 1.000;}</style><style>.C3 {stroke: #ffffff; stroke-width: 673; stroke-opacity: 1.000; fill: none; fill-opacity: 1.000;}</style><style>.C4 {stroke: #00ffff; stroke-width: 842; stroke-opacity: 1.000; fill: none; fill-opacity: 1.000;}</style><style>.C5 {stroke: #808080; stroke-width: 438; stroke-opacity: 1.000; fill: none; fill-opacity: 1.000;}</style><style>.C6 {stroke: none; stroke-width: none; stroke-opacity: 1.000; fill: #ffff00; fill-opacity: 1.000;}</style><style>.C7 {stroke: none; stroke-width: none; stroke-opacity: 1.000; fill: #808080; fill-opacity: 1.000;}</style></defs><rect fill="#212830" x="0" y="0" width="707071" height="1000000" fill-opacity="1.0" /><g stroke-linecap="round" stroke-linejoin="round" fill-rule="evenodd"><path d="M 129175 501216 l 1762 0" class="C1" /><path d="M 132186 501216 l 1855 0" class="C1" /><path d="M 129175 501216 l 1762 0" class="C1" /><path d="M 132186 501216 l 1855 0" class="C1" /><path d="M 127911 466976 l 0 -7683 c 0 -532 431 -964 964 -964 l 20704 0" class="C1" /><path d="M 127430 465653 l 0 -6359 c 0 -798 647 -1446 1446 -1446 l 20704 0" class="C1" /><path d="M 127911 467004 l 21668 0" class="C1" /><path d="M 127911 466522 l 21668 0" class="C1" /><path d="M 128163 457593 c 33 -76 70 -199 110 -314 c 356 -1016 1021 -1435 1648 -1874 c 742 -518 1431 -1063 1973 -1728 c 846 -1038 1331 -2369 1811 -3672 c 473 -1285 942 -2543 1218 -3848 c 279 -1317 362 -2682 459 -4050 c 122 -1726 267 -3457 0 -5141 c -161 -1019 -473 -2021 -838 -2997 c -403 -1079 -871 -2126 -1486 -3105 c -510 -812 -1122 -1578 -1435 -2471 c -121 -346 -198 -711 -243 -1080 c -111 -899 -36 -1816 27 -2700 c 102 -1440 173 -2791 94 -4400 c -20 -416 -50 -848 160 -1125 c 155 -205 443 -324 727 -423 c 1155 -398 2275 -449 3398 -304 c 235 30 470 69 704 108" class="C1" /><path d="M 127539 458408 c 205 -1060 229 -1111 255 -1162 c 21 -41 43 -82 66 -363 c 23 -281 47 -321 72 -360 c 50 -78 104 -152 160 -222 c 135 -171 285 -323 442 -463 c 157 -140 320 -267 484 -387 c 164 -120 329 -233 489 -344 c 98 -68 193 -134 287 -201 c 94 -67 187 -134 279 -202 c 183 -136 359 -273 528 -415 c 173 -144 337 -293 491 -446 c 147 -146 286 -296 414 -453 c 123 -150 239 -308 348 -472 c 109 -165 213 -337 311 -514 c 284 -514 524 -1079 750 -1663 c 89 -231 176 -465 263 -701 c 52 -142 105 -284 157 -426 c 52 -142 104 -283 155 -424 c 103 -281 203 -561 299 -840 c 193 -557 368 -1110 512 -1664 c 48 -185 92 -369 133 -555 c 45 -209 86 -418 122 -630 c 36 -212 68 -426 97 -641 c 57 -431 101 -868 138 -1309 c 27 -318 50 -639 73 -962 c 12 -173 24 -346 37 -520 c 29 -404 58 -807 84 -1207 c 48 -767 80 -1524 58 -2267 c -9 -298 -26 -593 -54 -886 c -19 -195 -42 -389 -71 -582 c -25 -168 -55 -335 -88 -503 c -33 -167 -71 -335 -112 -502 c -82 -334 -178 -668 -284 -1001 c -101 -316 -211 -630 -328 -943 c -139 -374 -285 -742 -442 -1104 c -157 -362 -324 -716 -506 -1063 c -110 -210 -224 -416 -345 -619 c -51 -86 -103 -171 -156 -256 c -106 -169 -218 -339 -333 -511 c -115 -172 -233 -346 -349 -525 c -175 -269 -348 -548 -501 -844 c -65 -125 -127 -254 -183 -386 c -41 -96 -80 -194 -116 -295 c -47 -131 -87 -264 -123 -398 c -35 -134 -65 -268 -90 -403 c -42 -223 -71 -447 -90 -669 c -19 -222 -29 -443 -31 -663 c -6 -478 21 -948 52 -1403 c 11 -165 23 -329 35 -490 c 11 -161 22 -321 33 -480 c 21 -318 39 -633 54 -949 c 30 -632 44 -1266 34 -1938 c -2 -128 -5 -257 -8 -388 c -3 -93 -6 -187 -10 -282 c -3 -84 -7 -168 -11 -253 c -2 -43 -4 -87 -6 -132 c -2 -45 -4 -92 -6 -139 c -3 -94 -5 -192 -2 -293 c 3 -101 12 -205 30 -312 c 15 -89 37 -180 71 -271 c 34 -91 79 -184 139 -271 c 20 -30 43 -59 66 -86 c 23 -27 47 -53 72 -78 c 49 -49 100 -92 153 -130 c 98 -72 199 -129 299 -176 c 100 -48 199 -87 294 -122 c 38 -14 75 -27 111 -39 c 37 -13 73 -25 110 -37 c 73 -24 146 -46 219 -68 c 146 -43 291 -80 436 -113 c 290 -66 578 -112 864 -142 c 279 -29 556 -42 832 -41 c 208 1 415 9 621 25 c 149 11 297 26 445 44 c 100 12 199 26 297 40 c 98 15 195 30 292 46 c 29 5 58 9 87 14" class="C1" /><path d="M 144728 418172 c -2707 -789 -5596 -684 -8238 299" class="C1" /><path d="M 144733 417672 c -2727 -766 -5625 -660 -8289 303" class="C1" /><path d="M 149579 417564 c -1637 -25 -3270 179 -4851 609" class="C1" /><path d="M 149587 417082 c -1637 -25 -3270 173 -4854 590" class="C1" /><path d="M 136497 425436 c 863 -2242 861 -4724 -6 -6964" class="C1" /><path d="M 140527 434409 c -461 -3000 -1864 -5775 -4006 -7926" class="C1" /><path d="M 140309 435361 c -1710 155 -3404 456 -5062 902" class="C1" /><path d="M 144525 443457 c -563 -2905 -1811 -5634 -3639 -7961" class="C1" /><path d="M 140573 451418 c -1752 -1665 -3766 -3032 -5961 -4044" class="C1" /><path d="M 141307 451443 c 1613 -1908 2706 -4201 3174 -6655" class="C1" /><path d="M 149091 451735 c -1138 -2424 -2492 -4741 -4046 -6921" class="C1" /><path d="M 145214 443539 c 1449 -2643 2755 -5362 3910 -8146" class="C1" /><path d="M 140972 434425 c 1653 -2457 2900 -5163 3696 -8015" class="C1" /><path d="M 149186 434390 c -1259 -2717 -2633 -5379 -4116 -7980" class="C1" /><path d="M 140925 452862 c 73 500 286 970 616 1354" class="C1" /><path d="M 144983 424934 c 377 -2248 290 -4549 -254 -6762" class="C1" /><path d="M 136788 425984 c 0 331 -269 600 -600 600 c -331 0 -600 -269 -600 -600 c 0 -331 269 -600 600 -600 c 331 0 600 269 600 600" class="C1" /><path d="M 145571 425720 c 0 401 -325 727 -727 727 c -401 0 -727 -325 -727 -727 c 0 -401 325 -727 727 -727 c 401 0 727 325 727 727" class="C1" /><path d="M 141282 434951 c 0 316 -256 572 -572 572 c -316 0 -572 -256 -572 -572 c 0 -316 256 -572 572 -572 c 316 0 572 256 572 572" class="C1" /><path d="M 149579 434262 c -378 0 -684 306 -684 684 c 0 378 306 684 684 684" class="C1" /><path d="M 145521 444132 c 0 401 -325 727 -727 727 c -401 0 -727 -325 -727 -727 c 0 -401 325 -727 727 -727 c 401 0 727 325 727 727" class="C1" /><path d="M 141680 452099 c 0 421 -342 763 -763 763 c -421 0 -763 -342 -763 -763 c 0 -421 342 -763 763 -763 c 421 0 763 342 763 763" class="C1" /><path d="M 149579 451429 c -370 0 -670 300 -670 670 c 0 370 300 670 670 670" class="C1" /><path d="M 149579 454133 c -6851 -414 -13721 380 -20297 2345" class="C1" /><path d="M 127911 466976 l 1264 34239" class="C1" /><path d="M 132007 466976 l -1071 34239" class="C1" /><path d="M 133018 466976 c 10 2883 20 5767 -81 8647 c -112 3195 -361 6385 -515 9580 c -163 3374 -221 6753 -237 10131 c -9 1961 -5 3921 0 5881" class="C1" /><path d="M 138080 466976 c 27 1925 54 3850 -88 5757 c -391 5224 -2054 10305 -3019 15485 c -275 1477 -493 2962 -638 4453 c -275 2834 -284 5689 -294 8544" class="C1" /><path d="M 127314 458995 c -575 2188 -535 4492 115 6658" class="C1" /><path d="M 129282 456478 c -1010 490 -1736 1419 -1968 2517" class="C1" /><path d="M 135588 425984 c -1408 -384 -2902 -309 -4265 212" class="C1" /><path d="M 127430 465653 c -118 243 -133 523 -42 777 c 91 254 280 461 525 574" class="C1" /><path d="M 169983 501216 l -1762 0" class="C1" /><path d="M 166973 501216 l -1855 0" class="C1" /><path d="M 169983 501216 l -1762 0" class="C1" /><path d="M 166973 501216 l -1855 0" class="C1" /><path d="M 171247 466976 l 0 -7683 c 0 -532 -431 -964 -964 -964 l -20704 0" class="C1" /><path d="M 171729 465653 l 0 -6359 c 0 -798 -647 -1446 -1446 -1446 l -20704 0" class="C1" /><path d="M 171247 467004 l -21668 0" class="C1" /><path d="M 171247 466522 l -21668 0" class="C1" /><path d="M 170996 457593 c -33 -76 -70 -199 -110 -314 c -356 -1016 -1021 -1435 -1648 -1874 c -742 -518 -1431 -1063 -1973 -1728 c -846 -1038 -1331 -2369 -1811 -3672 c -473 -1285 -942 -2543 -1218 -3848 c -279 -1317 -362 -2682 -459 -4050 c -122 -1726 -267 -3457 -0 -5141 c 161 -1019 473 -2021 838 -2997 c 403 -1079 871 -2126 1486 -3105 c 510 -812 1122 -1578 1435 -2471 c 121 -346 198 -711 243 -1080 c 111 -899 36 -1816 -27 -2700 c -102 -1440 -173 -2791 -94 -4400 c 20 -416 50 -848 -160 -1125 c -155 -205 -443 -324 -727 -423 c -1155 -398 -2275 -449 -3398 -304 c -235 30 -470 69 -704 108" class="C1" /><path d="M 171619 458408 c -205 -1060 -229 -1111 -255 -1162 c -21 -41 -43 -82 -66 -363 c -23 -281 -47 -321 -72 -360 c -50 -78 -104 -152 -160 -222 c -135 -171 -285 -323 -442 -463 c -157 -140 -320 -267 -484 -387 c -164 -120 -329 -233 -489 -344 c -98 -68 -193 -134 -287 -201 c -94 -67 -187 -134 -279 -202 c -183 -136 -359 -273 -528 -415 c -173 -144 -337 -293 -491 -446 c -147 -146 -286 -296 -414 -453 c -123 -150 -239 -308 -348 -472 c -109 -165 -213 -337 -311 -514 c -284 -514 -524 -1079 -750 -1663 c -89 -231 -176 -465 -263 -701 c -52 -142 -105 -284 -157 -426 c -52 -142 -104 -283 -155 -424 c -103 -281 -203 -561 -299 -840 c -193 -557 -368 -1110 -512 -1664 c -48 -185 -92 -369 -133 -555 c -45 -209 -86 -418 -122 -630 c -36 -212 -68 -426 -97 -641 c -57 -431 -101 -868 -138 -1309 c -27 -318 -50 -639 -73 -962 c -12 -173 -24 -346 -37 -520 c -29 -404 -58 -807 -84 -1207 c -48 -767 -80 -1524 -58 -2267 c 9 -298 26 -593 54 -886 c 19 -195 42 -389 71 -582 c 25 -168 55 -335 88 -503 c 33 -167 71 -335 112 -502 c 82 -334 178 -668 284 -1001 c 101 -316 211 -630 328 -943 c 139 -374 285 -742 442 -1104 c 157 -362 324 -716 506 -1063 c 110 -210 224 -416 345 -619 c 51 -86 103 -171 156 -256 c 106 -169 218 -339 333 -511 c 115 -172 233 -346 349 -525 c 175 -269 348 -548 501 -844 c 65 -125 127 -254 183 -386 c 41 -96 80 -194 116 -295 c 47 -131 87 -264 123 -398 c 35 -134 65 -268 90 -403 c 42 -223 71 -447 90 -669 c 19 -222 29 -443 31 -663 c 6 -478 -21 -948 -52 -1403 c -11 -165 -23 -329 -35 -490 c -11 -161 -22 -321 -33 -480 c -21 -318 -39 -633 -54 -949 c -30 -632 -44 -1266 -34 -1938 c 2 -128 5 -257 8 -388 c 3 -93 6 -187 10 -282 c 3 -84 7 -168 11 -253 c 2 -43 4 -87 6 -132 c 2 -45 4 -92 6 -139 c 3 -94 5 -192 2 -293 c -3 -101 -12 -205 -30 -312 c -15 -89 -37 -180 -71 -271 c -34 -91 -79 -184 -139 -271 c -20 -30 -43 -59 -66 -86 c -23 -27 -47 -53 -72 -78 c -49 -49 -100 -92 -153 -130 c -98 -72 -199 -129 -299 -176 c -100 -48 -199 -87 -294 -122 c -38 -14 -75 -27 -111 -39 c -37 -13 -73 -25 -110 -37 c -73 -24 -146 -46 -219 -68 c -146 -43 -291 -80 -436 -113 c -290 -66 -578 -112 -864 -142 c -279 -29 -556 -42 -832 -41 c -208 1 -415 9 -621 25 c -149 11 -297 26 -445 44 c -100 12 -199 26 -297 40 c -98 15 -195 30 -292 46 c -29 5 -58 9 -87 14" class="C1" /><path d="M 162667 418472 c -2642 -984 -5531 -1089 -8238 -299" class="C1" /><path d="M 162714 417976 c -2664 -963 -5562 -1069 -8289 -303" class="C1" /><path d="M 154430 418172 c -1580 -429 -3213 -634 -4851 -609" class="C1" /><path d="M 154425 417672 c -1583 -417 -3216 -616 -4854 -590" class="C1" /><path d="M 162667 418472 c -867 2240 -869 4723 -6 6964" class="C1" /><path d="M 162637 426483 c -2142 2150 -3544 4926 -4006 7926" class="C1" /><path d="M 163911 436263 c -1658 -445 -3352 -747 -5062 -902" class="C1" /><path d="M 158272 435496 c -1828 2327 -3076 5056 -3639 7961" class="C1" /><path d="M 164546 447374 c -2195 1013 -4209 2379 -5961 4044" class="C1" /><path d="M 154677 444788 c 467 2455 1561 4747 3174 6655" class="C1" /><path d="M 154113 444814 c -1554 2181 -2908 4497 -4046 6921" class="C1" /><path d="M 150034 435393 c 1156 2784 2461 5503 3910 8146" class="C1" /><path d="M 154491 426410 c 796 2852 2043 5558 3696 8015" class="C1" /><path d="M 154088 426410 c -1484 2601 -2857 5263 -4116 7980" class="C1" /><path d="M 157617 454216 c 329 -384 543 -853 616 -1354" class="C1" /><path d="M 154430 418172 c -544 2213 -631 4514 -254 6762" class="C1" /><path d="M 163570 425984 c 0 331 -269 600 -600 600 c -331 0 -600 -269 -600 -600 c 0 -331 269 -600 600 -600 c 331 0 600 269 600 600" class="C1" /><path d="M 155040 425720 c 0 401 -325 727 -727 727 c -401 0 -727 -325 -727 -727 c 0 -401 325 -727 727 -727 c 401 0 727 325 727 727" class="C1" /><path d="M 159021 434951 c 0 316 -256 572 -572 572 c -316 0 -572 -256 -572 -572 c 0 -316 256 -572 572 -572 c 316 0 572 256 572 572" class="C1" /><path d="M 149579 435629 c 378 0 684 -306 684 -684 c 0 -378 -306 -684 -684 -684" class="C1" /><path d="M 155091 444132 c 0 401 -325 727 -727 727 c -401 0 -727 -325 -727 -727 c 0 -401 325 -727 727 -727 c 401 0 727 325 727 727" class="C1" /><path d="M 159004 452099 c 0 421 -342 763 -763 763 c -421 0 -763 -342 -763 -763 c 0 -421 342 -763 763 -763 c 421 0 763 342 763 763" class="C1" /><path d="M 149579 452769 c 370 0 670 -300 670 -670 c 0 -370 -300 -670 -670 -670" class="C1" /><path d="M 169876 456478 c -6576 -1965 -13446 -2759 -20297 -2345" class="C1" /><path d="M 171247 466976 l -1264 34239" class="C1" /><path d="M 167151 466976 l 1071 34239" class="C1" /><path d="M 166140 466976 c -10 2883 -20 5767 81 8647 c 112 3195 361 6385 515 9580 c 163 3374 221 6753 237 10131 c 9 1961 5 3921 0 5881" class="C1" /><path d="M 161078 466976 c -27 1925 -54 3850 88 5757 c 391 5224 2054 10305 3019 15485 c 275 1477 493 2962 638 4453 c 275 2834 284 5689 294 8544" class="C1" /><path d="M 171729 465653 c 651 -2166 691 -4470 115 -6658" class="C1" /><path d="M 171844 458995 c -232 -1098 -959 -2027 -1968 -2517" class="C1" /><path d="M 167835 426196 c -1363 -521 -2857 -595 -4265 -212" class="C1" /><path d="M 171246 467004 c 245 -113 434 -320 525 -574 c 91 -254 76 -534 -42 -777" class="C1" /><path d="M 227279 501216 l 1798 0" class="C1" /><path d="M 265512 501216 l 1821 0" class="C1" /><path d="M 249223 458330 l -21456 0" class="C1" /><path d="M 226890 467004 l 41650 0" class="C1" /><path d="M 225931 466136 c -29 -295 -58 -589 -86 -884 c -146 -1527 -267 -3057 33 -4595 c 70 -360 164 -721 331 -1025 c 455 -826 1455 -1224 2417 -1661 c 1103 -500 2155 -1050 3242 -1374 c 1377 -411 2810 -461 4235 -463 c 1627 -2 3245 58 4864 66 c 2103 10 4208 -68 6320 -99 c 1471 -22 2945 -22 4400 132 c 1034 109 2059 295 3110 331 c 976 33 1974 -65 2878 -397 c 1356 -497 2502 -1520 3452 -2654 c 616 -736 1149 -1518 1522 -2380 c 225 -520 391 -1069 698 -1554 c 516 -816 1430 -1452 2366 -1619 c 831 -149 1680 71 2528 290" class="C1" /><path d="M 249857 467004 c -122 -1502 -245 -3004 -56 -4540 c 55 -448 136 -899 34 -1324 c -56 -235 -169 -462 -272 -679 c -129 -272 -244 -528 -340 -849 c -135 -450 -234 -1027 0 -1281 c 209 -227 685 -195 1134 -172 c 2046 105 3530 17 5228 -93 c 812 -53 1673 -111 2481 -306 c 1973 -477 3633 -1773 5300 -3024 c 1675 -1258 3358 -2472 4506 -4160 c 229 -337 436 -692 614 -1057 c 1137 -2336 1060 -5072 1201 -7727 c 128 -2410 434 -4755 239 -7093 c -121 -1445 -434 -2888 -552 -4351 c -129 -1602 -25 -3229 88 -4800 c 128 -1797 267 -3521 574 -5462 c 20 -128 41 -258 116 -344 c 81 -94 227 -137 365 -150 c 336 -32 629 113 923 257" class="C1" /><path d="M 271440 419847 c 347 131 694 262 1030 407 c 281 121 553 253 828 413 c 339 198 681 441 850 762 c 187 357 159 809 131 1262" class="C1" /><path d="M 268540 466522 c 480 0 887 -353 954 -828" class="C1" /><path d="M 265887 466522 c -156 2549 -312 5098 -213 7634 c 184 4744 1257 9445 1660 14184 c 363 4272 182 8574 0 12876" class="C1" /><path d="M 265512 501265 c 19 -2026 38 -4053 -149 -6057 c -336 -3595 -1336 -7119 -2274 -10628 c -584 -2187 -1144 -4367 -1617 -6578 c -439 -2054 -803 -4134 -925 -6226 c -93 -1586 -46 -3180 0 -4773" class="C1" /><path d="M 226573 467004 c -68 2617 -136 5234 -140 7858 c -3 2157 38 4318 305 6452 c 224 1786 606 3553 844 5338 c 405 3046 388 6147 183 9219 c -121 1804 -306 3599 -492 5394" class="C1" /><path d="M 229071 501265 c 474 -3970 949 -7940 1169 -11925 c 215 -3887 188 -7789 178 -11687 c -9 -3551 -5 -7100 -0 -10649" class="C1" /><path d="M 262773 450830 c -48 -1414 -95 -2828 -12 -4237 c 85 -1434 306 -2863 611 -4269 c 224 -1033 494 -2054 652 -3100 c 66 -435 112 -875 113 -1313 c 1 -995 -233 -1980 -337 -2973 c -133 -1270 -53 -2550 -38 -3827 c 11 -951 -14 -1901 38 -2852 c 52 -969 184 -1939 188 -2900 c 5 -1216 -195 -2417 38 -3677 c 162 -880 536 -1789 1239 -2251 c 377 -248 850 -367 1314 -413 c 621 -62 1229 6 1840 75 c 619 70 1241 142 1838 311 c 251 71 497 160 743 249" class="C1" /><path d="M 225931 466136 c 49 492 464 867 959 867" class="C1" /><path d="M 269494 465693 c 3140 -14120 4744 -28538 4784 -43002" class="C1" /><path d="M 127538 551631 l -11 19321 c 96 2656 2257 4770 4914 4807 l 34472 0 c 2661 0 4819 -2157 4819 -4819 l -23 -19309" class="C1" /><path d="M 171709 551666 c 90 -4909 -215 -9818 -2036 -13839 c -2871 -6339 -9511 -10469 -20991 -10254" class="C1" /><path d="M 127539 551666 c -90 -4909 5 -9818 1698 -13839 c 2668 -6339 9308 -10469 19445 -10254" class="C1" /><path d="M 129717 544270 c 105 -489 225 -967 360 -1433 c 134 -463 283 -914 449 -1351 c 118 -312 244 -617 350 -1414 c 307 -2318 777 -3132 1323 -3892 c 546 -760 1170 -1466 1872 -2115 c 703 -648 1486 -1239 2353 -1767 c 867 -527 1818 -991 2856 -1382 c 1039 -391 2165 -710 3381 -946 c 1216 -236 2522 -390 3918 -450 c 667 -29 1355 -100 2104 -89 c 748 -11 1436 60 2103 89 c 1396 60 4389 214 5433 450 c 1044 236 2170 555 3209 946 c 1039 391 1990 855 2856 1382 c 867 527 1650 1118 2353 1767 c 703 648 1326 1355 1872 2115 c 546 760 1015 1575 1408 2440 c 135 298 891 3547 1009 3858 c 165 437 314 887 449 1351 c 115 396 218 801 311 1214" class="C1" /><path d="M 148682 533724 c -2793 110 -5586 220 -8026 1447 c -3395 1707 -6107 5575 -8024 9121" class="C1" /><path d="M 148682 533724 c 3397 3 6633 7 9487 1106 c 3261 1256 6024 3942 8579 10372" class="C1" /><path d="M 128080 542828 c 941 1553 2881 2177 4551 1464" class="C1" /><path d="M 166633 545155 c 1751 733 3771 -2 4642 -1688" class="C1" /><path d="M 139075 588476 l 622 0 l 787 2623 l 791 -2623 l 622 0 l 0 3855 l -407 0 l 0 -3385 l -795 2644 l -419 0 l -795 -2644 l 0 3385 l -405 0 l 0 -3855 Z M 143147 587327 l 244 0 q 23 194 123 290 q 100 97 280 97 q 178 0 277 -96 q 99 -96 126 -292 l 244 0 q -21 369 -184 555 q -163 186 -463 186 q -300 0 -463 -186 q -163 -186 -184 -555 m 609 1663 l -566 1918 l 1134 0 l -568 -1918 m -235 -514 l 473 0 l 1175 3855 l -434 0 l -281 -989 l -1390 0 l -281 989 l -440 0 l 1177 -3855 m 50 4219 l 380 0 l 0 604 l -380 0 l 0 -604 Z M 145192 588476 l 2609 0 l 0 439 l -1095 0 l 0 3416 l -419 0 l 0 -3416 l -1095 0 l 0 -439 Z M 149965 590490 l 0 1412 l 669 0 q 337 0 499 -174 q 162 -174 162 -533 q 0 -361 -162 -533 q -162 -172 -499 -172 l -669 0 m 0 -1585 l 0 1162 l 618 0 q 306 0 455 -143 q 150 -143 150 -438 q 0 -292 -150 -436 q -150 -145 -455 -145 l -618 0 m -417 -429 l 1066 0 q 477 0 735 248 q 258 248 258 705 q 0 354 -132 563 q -132 209 -388 261 q 308 83 478 345 q 170 262 170 655 q 0 516 -281 798 q -281 281 -799 281 l -1107 0 l 0 -3855 Z M 153481 588990 l -566 1918 l 1134 0 l -568 -1918 m -235 -514 l 473 0 l 1175 3855 l -434 0 l -281 -989 l -1390 0 l -281 989 l -440 0 l 1177 -3855 m -411 -958 l 244 0 q 27 139 129 213 q 102 74 274 74 q 169 0 270 -71 q 100 -71 133 -216 l 244 0 q -21 307 -186 466 q -165 159 -461 159 q -297 0 -462 -157 q -164 -157 -185 -467 m 430 -707 l 405 682 l -316 0 l -475 -682 l 386 0 Z M 155344 588476 l 562 0 l 1367 3225 l 0 -3225 l 405 0 l 0 3855 l -562 0 l -1367 -3225 l 0 3225 l -405 0 l 0 -3855 Z M 160611 591781 l 0 -1035 l -682 0 l 0 -429 l 1095 0 l 0 1655 q -242 214 -533 324 q -291 110 -622 110 q -723 0 -1131 -528 q -408 -528 -408 -1470 q 0 -945 408 -1473 q 408 -528 1131 -528 q 302 0 573 93 q 272 93 501 274 l 0 555 q -231 -245 -492 -369 q -260 -124 -547 -124 q -566 0 -850 395 q -284 395 -284 1177 q 0 780 284 1175 q 284 395 850 395 q 221 0 395 -48 q 174 -48 312 -148 Z" class="C2" /><path d="M 337337 593769 l 0 1267 l 516 0 q 287 0 443 -165 q 157 -165 157 -470 q 0 -303 -157 -468 q -157 -165 -443 -165 l -516 0 m -411 -375 l 927 0 q 510 0 772 256 q 261 256 261 751 q 0 499 -261 755 q -261 255 -772 255 l -516 0 l 0 1356 l -411 0 l 0 -3373 Z M 339848 595157 l 0 1236 l 659 0 q 331 0 491 -152 q 160 -152 160 -467 q 0 -316 -160 -467 q -160 -150 -491 -150 l -659 0 m 0 -1387 l 0 1017 l 608 0 q 301 0 448 -125 q 147 -125 147 -383 q 0 -255 -147 -382 q -147 -127 -448 -127 l -608 0 m -411 -375 l 1049 0 q 470 0 724 217 q 254 217 254 617 q 0 310 -130 493 q -130 183 -382 228 q 303 72 471 302 q 168 229 168 573 q 0 452 -277 698 q -277 246 -787 246 l -1090 0 l 0 -3373 Z M 342089 595315 l 1096 0 l 0 371 l -1096 0 l 0 -371 Z M 344712 593695 q -317 0 -477 347 q -160 347 -160 1043 q 0 694 160 1040 q 160 347 477 347 q 319 0 479 -347 q 160 -347 160 -1040 q 0 -696 -160 -1043 q -160 -347 -479 -347 m 0 -361 q 510 0 780 448 q 269 448 269 1302 q 0 852 -269 1300 q -269 448 -780 448 q -510 0 -780 -448 q -269 -448 -269 -1300 q 0 -854 269 -1302 q 269 -448 780 -448 Z M 347611 593792 l -1037 1801 l 1037 0 l 0 -1801 m -108 -398 l 516 0 l 0 2198 l 433 0 l 0 380 l -433 0 l 0 795 l -409 0 l 0 -795 l -1370 0 l 0 -441 l 1263 -2137 Z" class="C2" /><path d="M 313907 593666 l 239 0 l 0 -1029 l -260 65 l 0 -166 l 258 -65 l 146 0 l 0 1196 l 239 0 l 0 154 l -622 0 l 0 -154 Z M 315041 592470 l 123 0 l -376 1521 l -123 0 l 376 -1521 Z M 315348 593666 l 239 0 l 0 -1029 l -260 65 l 0 -166 l 258 -65 l 146 0 l 0 1196 l 239 0 l 0 154 l -622 0 l 0 -154 Z M 316577 592590 q -113 0 -170 139 q -57 139 -57 417 q 0 277 57 416 q 57 139 170 139 q 114 0 170 -139 q 57 -139 57 -416 q 0 -278 -57 -417 q -57 -139 -170 -139 m 0 -145 q 181 0 277 179 q 96 179 96 521 q 0 341 -96 520 q -96 179 -277 179 q -181 0 -277 -179 q -96 -179 -96 -520 q 0 -342 96 -521 q 96 -179 277 -179 Z" class="C2" /><path d="M 331178 572549 l 0 -906 l -671 0 l 0 -375 l 1078 0 l 0 1448 q -238 188 -525 284 q -287 96 -612 96 q -712 0 -1113 -462 q -402 -462 -402 -1287 q 0 -827 402 -1289 q 402 -462 1113 -462 q 297 0 564 81 q 267 81 493 239 l 0 486 q -228 -215 -484 -323 q -256 -108 -539 -108 q -557 0 -837 346 q -280 346 -280 1030 q 0 682 280 1028 q 280 346 837 346 q 218 0 388 -42 q 171 -42 307 -130 Z M 332334 569657 l 411 0 l 0 1383 l 1492 0 l 0 -1383 l 411 0 l 0 3373 l -411 0 l 0 -1606 l -1492 0 l 0 1606 l -411 0 l 0 -3373 Z M 335466 569657 l 1919 0 l 0 384 l -1509 0 l 0 999 l 1446 0 l 0 384 l -1446 0 l 0 1222 l 1545 0 l 0 384 l -1956 0 l 0 -3373 m 823 -922 l 382 0 l 429 601 l -283 0 l -338 -402 l -338 402 l -283 0 l 429 -601 m 1043 -463 l 376 0 l -464 596 l -311 0 l 399 -596 Z" class="C2" /><path d="M 325914 578308 l 0 1236 l 659 0 q 331 0 491 -152 q 160 -152 160 -467 q 0 -316 -160 -467 q -160 -150 -491 -150 l -659 0 m 0 -1387 l 0 1017 l 608 0 q 301 0 448 -125 q 147 -125 147 -383 q 0 -255 -147 -382 q -147 -127 -448 -127 l -608 0 m -411 -375 l 1049 0 q 470 0 724 217 q 254 217 254 617 q 0 310 -130 493 q -130 183 -382 228 q 303 72 471 302 q 168 229 168 573 q 0 452 -277 698 q -277 246 -787 246 l -1090 0 l 0 -3373 Z M 329374 576996 l -557 1679 l 1116 0 l -559 -1679 m -232 -450 l 466 0 l 1157 3373 l -427 0 l -277 -865 l -1368 0 l -277 865 l -433 0 l 1159 -3373 m 116 -917 l 399 596 l -311 0 l -468 -596 l 380 0 Z M 331209 576546 l 553 0 l 1346 2822 l 0 -2822 l 399 0 l 0 3373 l -553 0 l -1346 -2822 l 0 2822 l -399 0 l 0 -3373 Z M 336062 575541 l 240 0 q 22 169 121 254 q 99 85 276 85 q 175 0 272 -84 q 98 -84 124 -255 l 240 0 q -20 323 -181 486 q -161 163 -455 163 q -295 0 -455 -163 q -161 -163 -181 -486 m 600 1455 l -557 1679 l 1116 0 l -559 -1679 m -232 -450 l 466 0 l 1157 3373 l -427 0 l -277 -865 l -1368 0 l -277 865 l -433 0 l 1159 -3373 Z M 338496 576546 l 553 0 l 1346 2822 l 0 -2822 l 399 0 l 0 3373 l -553 0 l -1346 -2822 l 0 2822 l -399 0 l 0 -3373 Z" class="C2" /><path d="M 67340 398810 l 286195 0 l 0 202381 l -286195 0 l 0 -202381" class="C1" /><path d="M 351619 599274 l -276673 0 l 0 -198549 l 276673 0 l 0 198549 Z M 75289 401069 l 275986 0 l 0 197861 l -275986 0 l 0 -197861 Z" class="C2" /><path d="M 351619 599274 l -276673 0 l 0 -198549 l 276673 0 l 0 198549" class="C3" /><path d="M 75289 401069 l 275986 0 l 0 197861 l -275986 0 l 0 -197861" class="C3" /><path d="M 314654 401069 l 0 198205" class="C3" /><path d="M 78048 402105 l 261 0 l 0 815 l 865 -815 l 336 0 l -957 899 l 1025 1029 l -343 0 l -926 -928 l 0 928 l -261 0 l 0 -1927 Z M 79782 402105 l 261 0 l 0 1927 l -261 0 l 0 -1927 Z M 80562 402105 l 1219 0 l 0 219 l -958 0 l 0 571 l 918 0 l 0 219 l -918 0 l 0 698 l 981 0 l 0 219 l -1242 0 l 0 -1927 m 800 -768 q 145 -66 280 -66 q 134 0 216 55 q 82 55 82 141 q 0 79 -114 163 l -57 41 q -45 34 -50 45 q -9 21 -9 62 l -154 0 l 0 -15 q 0 -52 19 -86 q 19 -35 85 -83 l 58 -44 q 59 -44 59 -96 q 0 -27 -40 -50 q -40 -23 -132 -23 q -116 0 -245 67 l 0 -111 m -301 241 l 243 0 l 272 343 l -179 0 l -214 -230 l -214 230 l -179 0 l 272 -343 Z M 82233 402105 l 389 0 l 492 1312 l 494 -1312 l 389 0 l 0 1927 l -254 0 l 0 -1692 l -497 1322 l -262 0 l -497 -1322 l 0 1692 l -253 0 l 0 -1927 Z M 85087 402105 l 1631 0 l 0 219 l -684 0 l 0 1708 l -262 0 l 0 -1708 l -684 0 l 0 -219 Z M 87883 403129 q 84 28 163 121 q 79 93 159 256 l 265 527 l -280 0 l -247 -494 q -96 -194 -185 -257 q -90 -63 -245 -63 l -284 0 l 0 815 l -261 0 l 0 -1927 l 589 0 q 330 0 493 138 q 163 138 163 417 q 0 182 -85 302 q -85 120 -246 167 m -653 -809 l 0 684 l 328 0 q 188 0 285 -87 q 96 -87 96 -256 q 0 -169 -96 -255 q -96 -86 -285 -86 l -328 0 Z M 89450 402362 l -354 959 l 709 0 l -355 -959 m -147 -257 l 296 0 l 735 1927 l -271 0 l -176 -494 l -869 0 l -176 494 l -275 0 l 736 -1927 Z M 91455 402105 l 261 0 l 0 815 l 865 -815 l 336 0 l -957 899 l 1025 1029 l -343 0 l -926 -928 l 0 928 l -261 0 l 0 -1927 Z M 93733 401825 l -74 -43 q -32 -18 -52 -25 q -20 -7 -36 -7 q -46 0 -72 32 q -26 32 -26 90 l 0 8 l -161 0 q 0 -130 66 -207 q 66 -76 178 -76 q 46 0 86 10 q 39 10 101 45 l 74 39 q 30 17 52 25 q 22 8 41 8 q 41 0 67 -33 q 26 -33 26 -86 l 0 -8 l 161 0 q -3 129 -69 206 q -66 77 -175 77 q -44 0 -82 -10 q -38 -10 -105 -45 m -808 280 l 280 0 l 534 793 l 531 -793 l 280 0 l -682 1010 l 0 918 l -262 0 l 0 -918 l -682 -1010 Z M 95377 402105 l 1631 0 l 0 219 l -684 0 l 0 1708 l -262 0 l 0 -1708 l -684 0 l 0 -219 Z M 98174 403129 q 84 28 163 121 q 79 93 159 256 l 265 527 l -280 0 l -247 -494 q -96 -194 -185 -257 q -90 -63 -245 -63 l -284 0 l 0 815 l -261 0 l 0 -1927 l 589 0 q 330 0 493 138 q 163 138 163 417 q 0 182 -85 302 q -85 120 -246 167 m -653 -809 l 0 684 l 328 0 q 188 0 285 -87 q 96 -87 96 -256 q 0 -169 -96 -255 q -96 -86 -285 -86 l -328 0 Z M 99060 402079 l 262 0 l 0 1171 q 0 310 112 446 q 112 136 364 136 q 250 0 363 -136 q 112 -136 112 -446 l 0 -1171 l 262 0 l 0 1203 q 0 377 -187 569 q -187 192 -551 192 q -365 0 -552 -192 q -187 -192 -187 -569 l 0 -1203 m 1372 287 l 0 -154 q 79 58 136 86 q 57 28 97 28 q 59 0 89 -36 q 30 -36 30 -105 q 0 -41 -10 -81 q -10 -40 -29 -80 l 172 0 q 13 49 19 93 q 6 44 6 83 q 0 157 -56 232 q -56 74 -176 74 q -62 0 -130 -34 q -68 -34 -148 -105 Z M 102218 401581 l 239 0 l -294 341 l -198 0 l 253 -341 m -86 701 q -284 0 -451 212 q -167 212 -167 577 q 0 364 167 576 q 167 212 451 212 q 284 0 450 -212 q 166 -212 166 -576 q 0 -365 -166 -577 q -166 -212 -450 -212 m 0 -212 q 405 0 648 272 q 243 272 243 729 q 0 456 -243 727 q -243 272 -648 272 q -407 0 -650 -271 q -243 -271 -243 -728 q 0 -457 243 -729 q 243 -272 650 -272 m 484 296 l 0 -154 q 79 58 136 86 q 57 28 97 28 q 59 0 89 -36 q 30 -36 30 -105 q 0 -41 -10 -81 q -10 -40 -29 -80 l 172 0 q 13 49 19 93 q 6 44 6 83 q 0 157 -56 232 q -56 74 -176 74 q -62 0 -130 -34 q -68 -34 -148 -105 Z M 105222 402254 l 0 275 q -132 -123 -281 -183 q -149 -61 -317 -61 q -330 0 -506 202 q -176 202 -176 584 q 0 381 176 583 q 176 202 506 202 q 168 0 317 -61 q 149 -61 281 -183 l 0 272 q -137 93 -290 139 q -153 46 -323 46 q -438 0 -689 -268 q -252 -268 -252 -731 q 0 -465 252 -733 q 252 -268 689 -268 q 173 0 326 46 q 153 46 287 137 Z M 106466 402105 l 261 0 l 0 815 l 865 -815 l 336 0 l -957 899 l 1025 1029 l -343 0 l -926 -928 l 0 928 l -261 0 l 0 -1927 Z M 108199 402105 l 261 0 l 0 790 l 948 0 l 0 -790 l 261 0 l 0 1927 l -261 0 l 0 -918 l -948 0 l 0 918 l -261 0 l 0 -1927 Z M 110187 402105 l 261 0 l 0 1927 l -261 0 l 0 -1927 Z M 111540 402105 l 1631 0 l 0 219 l -684 0 l 0 1708 l -262 0 l 0 -1708 l -684 0 l 0 -219 Z M 113423 402105 l 261 0 l 0 790 l 948 0 l 0 -790 l 261 0 l 0 1927 l -261 0 l 0 -918 l -948 0 l 0 918 l -261 0 l 0 -1927 Z M 115411 402105 l 261 0 l 0 1927 l -261 0 l 0 -1927 Z M 118474 402254 l 0 275 q -132 -123 -281 -183 q -149 -61 -317 -61 q -330 0 -506 202 q -176 202 -176 584 q 0 381 176 583 q 176 202 506 202 q 168 0 317 -61 q 149 -61 281 -183 l 0 272 q -137 93 -290 139 q -153 46 -323 46 q -438 0 -689 -268 q -252 -268 -252 -731 q 0 -465 252 -733 q 252 -268 689 -268 q 173 0 326 46 q 153 46 287 137 Z M 119659 402282 q -284 0 -451 212 q -167 212 -167 577 q 0 364 167 576 q 167 212 451 212 q 284 0 450 -212 q 166 -212 166 -576 q 0 -365 -166 -577 q -166 -212 -450 -212 m 0 -212 q 405 0 648 272 q 243 272 243 729 q 0 456 -243 727 q -243 272 -648 272 q -407 0 -650 -271 q -243 -271 -243 -728 q 0 -457 243 -729 q 243 -272 650 -272 m -121 -492 l 243 0 l 272 343 l -179 0 l -214 -230 l -214 230 l -179 0 l 272 -343 Z M 120958 402105 l 351 0 l 855 1612 l 0 -1612 l 253 0 l 0 1927 l -351 0 l -855 -1612 l 0 1612 l -253 0 l 0 -1927 Z M 124250 403758 l 0 -518 l -426 0 l 0 -214 l 684 0 l 0 828 q -151 107 -333 162 q -182 55 -389 55 q -452 0 -707 -264 q -255 -264 -255 -735 q 0 -472 255 -737 q 255 -264 707 -264 q 188 0 358 46 q 170 46 313 137 l 0 278 q -145 -123 -307 -185 q -163 -62 -342 -62 q -354 0 -531 198 q -178 198 -178 589 q 0 390 178 587 q 178 198 531 198 q 138 0 247 -24 q 108 -24 195 -74 Z" class="C2" /><path d="M 67340 601190 l 286195 0 l 0 -202381 l -286195 0 l 0 202381" class="C4" /><path d="M 123043 417080 l -5783 0" class="C5" /><path d="M 123043 457848 l -5783 0" class="C5" /><path d="M 117261 418005 l 0 38918" class="C5" /><path d="M 117833 417489 l -981 -981 -164 164 981 981 Z" class="C6" /><path d="M 117261 418467 l 0 -2776" class="C5" /><path d="M 118186 417080 l -1850 0" class="C5" /><path d="M 116688 457439 l 981 981 164 -164 -981 -981 Z" class="C6" /><path d="M 117261 456461 l 0 2776" class="C5" /><path d="M 116335 457848 l 1850 0" class="C5" /><path d="M 114526 439293 l 1235 790 l 0 -790 l -1235 0 m -273 82 l 0 -393 l 1507 0 l 0 -330 l 260 0 l 0 330 l 545 0 l 0 311 l -545 0 l 0 1044 l -302 0 l -1466 -962 Z M 116303 437864 l 0 -1092 l 263 0 l 0 1469 l -263 0 q -184 -178 -495 -486 q -311 -308 -400 -387 q -169 -150 -286 -210 q -117 -60 -230 -60 q -184 0 -301 129 q -116 129 -116 337 q 0 147 51 311 q 51 163 155 349 l -316 0 q -76 -189 -115 -353 q -39 -164 -39 -301 q 0 -359 180 -573 q 180 -214 480 -214 q 143 0 270 53 q 128 53 301 194 q 45 39 259 246 q 215 208 600 586 Z M 115320 435167 q 48 -225 200 -351 q 152 -126 375 -126 q 342 0 530 235 q 187 235 187 669 q 0 146 -29 300 q -29 154 -86 318 l -302 0 q 76 -130 115 -285 q 39 -155 39 -324 q 0 -294 -116 -448 q -116 -154 -338 -154 q -204 0 -320 143 q -115 143 -115 399 l 0 270 l -257 0 l 0 -282 q 0 -231 -92 -353 q -92 -122 -266 -122 q -178 0 -273 126 q -95 126 -95 362 q 0 129 28 276 q 28 147 87 324 l -279 0 q -50 -178 -74 -334 q -25 -156 -25 -294 q 0 -356 162 -564 q 162 -208 438 -208 q 192 0 325 110 q 132 110 184 313 Z" class="C2" /><path d="M 123043 417080 l 0 0" class="C1" /><path d="M 123043 457848 l 0 0" class="C1" /><path d="M 117261 457848 l 0 0" class="C1" /><path d="M 123043 457848 l -5783 0" class="C5" /><path d="M 123043 501216 l -5783 0" class="C5" /><path d="M 117261 458773 l 0 41517" class="C5" /><path d="M 117833 458257 l -981 -981 -164 164 981 981 Z" class="C6" /><path d="M 117261 459236 l 0 -2776" class="C5" /><path d="M 118186 457848 l -1850 0" class="C5" /><path d="M 116688 500807 l 981 981 164 -164 -981 -981 Z" class="C6" /><path d="M 117261 499828 l 0 2776" class="C5" /><path d="M 116335 501216 l 1850 0" class="C5" /><path d="M 114526 481361 l 1235 790 l 0 -790 l -1235 0 m -273 82 l 0 -393 l 1507 0 l 0 -330 l 260 0 l 0 330 l 545 0 l 0 311 l -545 0 l 0 1044 l -302 0 l -1466 -962 Z M 114254 480199 l 0 -1228 l 263 0 l 0 942 l 567 0 q -23 -68 -35 -136 q -12 -68 -12 -136 q 0 -387 212 -613 q 212 -226 575 -226 q 373 0 580 232 q 207 232 207 655 q 0 146 -25 297 q -25 151 -74 312 l -314 0 q 76 -139 113 -288 q 37 -149 37 -314 q 0 -268 -141 -424 q -141 -156 -383 -156 q -242 0 -383 156 q -141 156 -141 424 q 0 125 28 250 q 28 125 87 255 l -1162 0 Z M 114460 477514 q 0 242 238 363 q 238 122 715 122 q 476 0 713 -122 q 238 -122 238 -363 q 0 -243 -238 -365 q -238 -122 -713 -122 q -477 0 -715 122 q -238 122 -238 365 m -248 0 q 0 -389 308 -594 q 308 -205 893 -205 q 584 0 892 205 q 308 205 308 594 q 0 389 -308 594 q -308 205 -892 205 q -586 0 -893 -205 q -308 -205 -308 -594 Z" class="C2" /><path d="M 123043 457848 l 0 0" class="C1" /><path d="M 123043 501216 l 0 0" class="C1" /><path d="M 117261 501216 l 0 0" class="C1" /><path d="M 123043 417080 l -12240 0" class="C5" /><path d="M 123043 501216 l -12240 0" class="C5" /><path d="M 110804 418005 l 0 82286" class="C5" /><path d="M 111376 417489 l -981 -981 -164 164 981 981 Z" class="C6" /><path d="M 110804 418467 l 0 -2776" class="C5" /><path d="M 111729 417080 l -1850 0" class="C5" /><path d="M 110231 500807 l 981 981 164 -164 -981 -981 Z" class="C6" /><path d="M 110804 499828 l 0 2776" class="C5" /><path d="M 109878 501216 l 1850 0" class="C5" /><path d="M 109011 461167 q 0 223 119 351 q 119 128 328 128 q 209 0 328 -128 q 119 -128 119 -351 q 0 -223 -120 -352 q -120 -129 -328 -129 q -209 0 -328 128 q -119 128 -119 352 m -133 313 q -50 201 -187 314 q -138 112 -336 112 q -277 0 -438 -198 q -161 -198 -161 -541 q 0 -345 161 -542 q 161 -197 438 -197 q 198 0 336 112 q 138 112 187 312 q 53 -226 206 -352 q 153 -126 375 -126 q 336 0 516 205 q 180 205 180 588 q 0 383 -180 588 q -180 205 -516 205 q -222 0 -375 -127 q -153 -127 -206 -353 m -494 115 q 180 0 280 -112 q 101 -112 101 -315 q 0 -201 -101 -315 q -101 -114 -280 -114 q -180 0 -280 114 q -101 114 -101 315 q 0 203 101 315 q 101 112 280 112 Z M 107797 459897 l 0 -1487 l 133 0 l 2180 840 l 0 327 l -2050 -790 l 0 1111 l -263 0 Z M 108863 456851 q 48 -225 200 -351 q 152 -126 375 -126 q 342 0 530 235 q 187 235 187 669 q 0 146 -29 300 q -29 154 -86 318 l -302 0 q 76 -130 115 -285 q 39 -155 39 -324 q 0 -294 -116 -448 q -116 -154 -338 -154 q -204 0 -320 143 q -115 143 -115 399 l 0 270 l -257 0 l 0 -282 q 0 -231 -92 -353 q -92 -122 -266 -122 q -178 0 -273 126 q -95 126 -95 362 q 0 129 28 276 q 28 147 87 324 l -279 0 q -50 -178 -74 -334 q -25 -156 -25 -294 q 0 -356 162 -564 q 162 -208 438 -208 q 192 0 325 110 q 132 110 184 313 Z" class="C2" /><path d="M 123043 417080 l 0 0" class="C1" /><path d="M 123043 501216 l 0 0" class="C1" /><path d="M 110804 501216 l 0 0" class="C1" /><path d="M 176115 417080 l 5783 0" class="C5" /><path d="M 176115 457848 l 5783 0" class="C5" /><path d="M 181898 418005 l 0 38918" class="C5" /><path d="M 182470 417489 l -981 -981 -164 164 981 981 Z" class="C6" /><path d="M 181898 418467 l 0 -2776" class="C5" /><path d="M 182823 417080 l -1850 0" class="C5" /><path d="M 181325 457439 l 981 981 164 -164 -981 -981 Z" class="C6" /><path d="M 181898 456461 l 0 2776" class="C5" /><path d="M 180972 457848 l 1850 0" class="C5" /><path d="M 179163 439293 l 1235 790 l 0 -790 l -1235 0 m -273 82 l 0 -393 l 1507 0 l 0 -330 l 260 0 l 0 330 l 545 0 l 0 311 l -545 0 l 0 1044 l -302 0 l -1466 -962 Z M 180940 437864 l 0 -1092 l 263 0 l 0 1469 l -263 0 q -184 -178 -495 -486 q -311 -308 -400 -387 q -169 -150 -286 -210 q -117 -60 -230 -60 q -184 0 -301 129 q -116 129 -116 337 q 0 147 51 311 q 51 163 155 349 l -316 0 q -76 -189 -115 -353 q -39 -164 -39 -301 q 0 -359 180 -573 q 180 -214 480 -214 q 143 0 270 53 q 128 53 301 194 q 45 39 259 246 q 215 208 600 586 Z M 179957 435167 q 48 -225 200 -351 q 152 -126 375 -126 q 342 0 530 235 q 187 235 187 669 q 0 146 -29 300 q -29 154 -86 318 l -302 0 q 76 -130 115 -285 q 39 -155 39 -324 q 0 -294 -116 -448 q -116 -154 -338 -154 q -204 0 -320 143 q -115 143 -115 399 l 0 270 l -257 0 l 0 -282 q 0 -231 -92 -353 q -92 -122 -266 -122 q -178 0 -273 126 q -95 126 -95 362 q 0 129 28 276 q 28 147 87 324 l -279 0 q -50 -178 -74 -334 q -25 -156 -25 -294 q 0 -356 162 -564 q 162 -208 438 -208 q 192 0 325 110 q 132 110 184 313 Z" class="C2" /><path d="M 176115 417080 l 0 0" class="C1" /><path d="M 176115 457848 l 0 0" class="C1" /><path d="M 181898 457848 l 0 0" class="C1" /><path d="M 176115 457848 l 5783 0" class="C5" /><path d="M 176115 501216 l 5783 0" class="C5" /><path d="M 181898 458773 l 0 41517" class="C5" /><path d="M 182470 458257 l -981 -981 -164 164 981 981 Z" class="C6" /><path d="M 181898 459236 l 0 -2776" class="C5" /><path d="M 182823 457848 l -1850 0" class="C5" /><path d="M 181325 500807 l 981 981 164 -164 -981 -981 Z" class="C6" /><path d="M 181898 499828 l 0 2776" class="C5" /><path d="M 180972 501216 l 1850 0" class="C5" /><path d="M 179163 481361 l 1235 790 l 0 -790 l -1235 0 m -273 82 l 0 -393 l 1507 0 l 0 -330 l 260 0 l 0 330 l 545 0 l 0 311 l -545 0 l 0 1044 l -302 0 l -1466 -962 Z M 178891 480199 l 0 -1228 l 263 0 l 0 942 l 567 0 q -23 -68 -35 -136 q -12 -68 -12 -136 q 0 -387 212 -613 q 212 -226 575 -226 q 373 0 580 232 q 207 232 207 655 q 0 146 -25 297 q -25 151 -74 312 l -314 0 q 76 -139 113 -288 q 37 -149 37 -314 q 0 -268 -141 -424 q -141 -156 -383 -156 q -242 0 -383 156 q -141 156 -141 424 q 0 125 28 250 q 28 125 87 255 l -1162 0 Z M 179097 477514 q 0 242 238 363 q 238 122 715 122 q 476 0 713 -122 q 238 -122 238 -363 q 0 -243 -238 -365 q -238 -122 -713 -122 q -477 0 -715 122 q -238 122 -238 365 m -248 0 q 0 -389 308 -594 q 308 -205 893 -205 q 584 0 892 205 q 308 205 308 594 q 0 389 -308 594 q -308 205 -892 205 q -586 0 -893 -205 q -308 -205 -308 -594 Z" class="C2" /><path d="M 176115 457848 l 0 0" class="C1" /><path d="M 176115 501216 l 0 0" class="C1" /><path d="M 181898 501216 l 0 0" class="C1" /><path d="M 176115 417080 l 12240 0" class="C5" /><path d="M 176115 501216 l 12240 0" class="C5" /><path d="M 188355 418005 l 0 82286" class="C5" /><path d="M 188927 417489 l -981 -981 -164 164 981 981 Z" class="C6" /><path d="M 188355 418467 l 0 -2776" class="C5" /><path d="M 189280 417080 l -1850 0" class="C5" /><path d="M 187782 500807 l 981 981 164 -164 -981 -981 Z" class="C6" /><path d="M 188355 499828 l 0 2776" class="C5" /><path d="M 187429 501216 l 1850 0" class="C5" /><path d="M 186562 461167 q 0 223 119 351 q 119 128 328 128 q 209 0 328 -128 q 119 -128 119 -351 q 0 -223 -120 -352 q -120 -129 -328 -129 q -209 0 -328 128 q -119 128 -119 352 m -133 313 q -50 201 -187 314 q -138 112 -336 112 q -277 0 -438 -198 q -161 -198 -161 -541 q 0 -345 161 -542 q 161 -197 438 -197 q 198 0 336 112 q 138 112 187 312 q 53 -226 206 -352 q 153 -126 375 -126 q 336 0 516 205 q 180 205 180 588 q 0 383 -180 588 q -180 205 -516 205 q -222 0 -375 -127 q -153 -127 -206 -353 m -494 115 q 180 0 280 -112 q 101 -112 101 -315 q 0 -201 -101 -315 q -101 -114 -280 -114 q -180 0 -280 114 q -101 114 -101 315 q 0 203 101 315 q 101 112 280 112 Z M 185348 459897 l 0 -1487 l 133 0 l 2180 840 l 0 327 l -2050 -790 l 0 1111 l -263 0 Z M 186414 456851 q 48 -225 200 -351 q 152 -126 375 -126 q 342 0 530 235 q 187 235 187 669 q 0 146 -29 300 q -29 154 -86 318 l -302 0 q 76 -130 115 -285 q 39 -155 39 -324 q 0 -294 -116 -448 q -116 -154 -338 -154 q -204 0 -320 143 q -115 143 -115 399 l 0 270 l -257 0 l 0 -282 q 0 -231 -92 -353 q -92 -122 -266 -122 q -178 0 -273 126 q -95 126 -95 362 q 0 129 28 276 q 28 147 87 324 l -279 0 q -50 -178 -74 -334 q -25 -156 -25 -294 q 0 -356 162 -564 q 162 -208 438 -208 q 192 0 325 110 q 132 110 184 313 Z" class="C2" /><path d="M 176115 417080 l 0 0" class="C1" /><path d="M 176115 501216 l 0 0" class="C1" /><path d="M 188355 501216 l 0 0" class="C1" /><path d="M 221631 417080 l -5783 0" class="C5" /><path d="M 221631 457848 l -5783 0" class="C5" /><path d="M 215849 418005 l 0 38918" class="C5" /><path d="M 216421 417489 l -981 -981 -164 164 981 981 Z" class="C6" /><path d="M 215849 418467 l 0 -2776" class="C5" /><path d="M 216774 417080 l -1850 0" class="C5" /><path d="M 215277 457439 l 981 981 164 -164 -981 -981 Z" class="C6" /><path d="M 215849 456461 l 0 2776" class="C5" /><path d="M 214924 457848 l 1850 0" class="C5" /><path d="M 213115 439293 l 1235 790 l 0 -790 l -1235 0 m -273 82 l 0 -393 l 1507 0 l 0 -330 l 260 0 l 0 330 l 545 0 l 0 311 l -545 0 l 0 1044 l -302 0 l -1466 -962 Z M 214892 437864 l 0 -1092 l 263 0 l 0 1469 l -263 0 q -184 -178 -495 -486 q -311 -308 -400 -387 q -169 -150 -286 -210 q -117 -60 -230 -60 q -184 0 -301 129 q -116 129 -116 337 q 0 147 51 311 q 51 163 155 349 l -316 0 q -76 -189 -115 -353 q -39 -164 -39 -301 q 0 -359 180 -573 q 180 -214 480 -214 q 143 0 270 53 q 128 53 301 194 q 45 39 259 246 q 215 208 600 586 Z M 213908 435167 q 48 -225 200 -351 q 152 -126 375 -126 q 342 0 530 235 q 187 235 187 669 q 0 146 -29 300 q -29 154 -86 318 l -302 0 q 76 -130 115 -285 q 39 -155 39 -324 q 0 -294 -116 -448 q -116 -154 -338 -154 q -204 0 -320 143 q -115 143 -115 399 l 0 270 l -257 0 l 0 -282 q 0 -231 -92 -353 q -92 -122 -266 -122 q -178 0 -273 126 q -95 126 -95 362 q 0 129 28 276 q 28 147 87 324 l -279 0 q -50 -178 -74 -334 q -25 -156 -25 -294 q 0 -356 162 -564 q 162 -208 438 -208 q 192 0 325 110 q 132 110 184 313 Z" class="C2" /><path d="M 221631 417080 l 0 0" class="C1" /><path d="M 221631 457848 l 0 0" class="C1" /><path d="M 215849 457848 l 0 0" class="C1" /><path d="M 221631 457848 l -5783 0" class="C5" /><path d="M 221631 501216 l -5783 0" class="C5" /><path d="M 215849 458773 l 0 41517" class="C5" /><path d="M 216421 458257 l -981 -981 -164 164 981 981 Z" class="C6" /><path d="M 215849 459236 l 0 -2776" class="C5" /><path d="M 216774 457848 l -1850 0" class="C5" /><path d="M 215277 500807 l 981 981 164 -164 -981 -981 Z" class="C6" /><path d="M 215849 499828 l 0 2776" class="C5" /><path d="M 214924 501216 l 1850 0" class="C5" /><path d="M 213115 481361 l 1235 790 l 0 -790 l -1235 0 m -273 82 l 0 -393 l 1507 0 l 0 -330 l 260 0 l 0 330 l 545 0 l 0 311 l -545 0 l 0 1044 l -302 0 l -1466 -962 Z M 212842 480199 l 0 -1228 l 263 0 l 0 942 l 567 0 q -23 -68 -35 -136 q -12 -68 -12 -136 q 0 -387 212 -613 q 212 -226 575 -226 q 373 0 580 232 q 207 232 207 655 q 0 146 -25 297 q -25 151 -74 312 l -314 0 q 76 -139 113 -288 q 37 -149 37 -314 q 0 -268 -141 -424 q -141 -156 -383 -156 q -242 0 -383 156 q -141 156 -141 424 q 0 125 28 250 q 28 125 87 255 l -1162 0 Z M 213048 477514 q 0 242 238 363 q 238 122 715 122 q 476 0 713 -122 q 238 -122 238 -363 q 0 -243 -238 -365 q -238 -122 -713 -122 q -477 0 -715 122 q -238 122 -238 365 m -248 0 q 0 -389 308 -594 q 308 -205 893 -205 q 584 0 892 205 q 308 205 308 594 q 0 389 -308 594 q -308 205 -892 205 q -586 0 -893 -205 q -308 -205 -308 -594 Z" class="C2" /><path d="M 221631 457848 l 0 0" class="C1" /><path d="M 221631 501216 l 0 0" class="C1" /><path d="M 215849 501216 l 0 0" class="C1" /><path d="M 221631 417080 l -12240 0" class="C5" /><path d="M 221631 501216 l -12240 0" class="C5" /><path d="M 209392 418005 l 0 82286" class="C5" /><path d="M 209965 417489 l -981 -981 -164 164 981 981 Z" class="C6" /><path d="M 209392 418467 l 0 -2776" class="C5" /><path d="M 210317 417080 l -1850 0" class="C5" /><path d="M 208820 500807 l 981 981 164 -164 -981 -981 Z" class="C6" /><path d="M 209392 499828 l 0 2776" class="C5" /><path d="M 208467 501216 l 1850 0" class="C5" /><path d="M 207600 461167 q 0 223 119 351 q 119 128 328 128 q 209 0 328 -128 q 119 -128 119 -351 q 0 -223 -120 -352 q -120 -129 -328 -129 q -209 0 -328 128 q -119 128 -119 352 m -133 313 q -50 201 -187 314 q -138 112 -336 112 q -277 0 -438 -198 q -161 -198 -161 -541 q 0 -345 161 -542 q 161 -197 438 -197 q 198 0 336 112 q 138 112 187 312 q 53 -226 206 -352 q 153 -126 375 -126 q 336 0 516 205 q 180 205 180 588 q 0 383 -180 588 q -180 205 -516 205 q -222 0 -375 -127 q -153 -127 -206 -353 m -494 115 q 180 0 280 -112 q 101 -112 101 -315 q 0 -201 -101 -315 q -101 -114 -280 -114 q -180 0 -280 114 q -101 114 -101 315 q 0 203 101 315 q 101 112 280 112 Z M 206385 459897 l 0 -1487 l 133 0 l 2180 840 l 0 327 l -2050 -790 l 0 1111 l -263 0 Z M 207451 456851 q 48 -225 200 -351 q 152 -126 375 -126 q 342 0 530 235 q 187 235 187 669 q 0 146 -29 300 q -29 154 -86 318 l -302 0 q 76 -130 115 -285 q 39 -155 39 -324 q 0 -294 -116 -448 q -116 -154 -338 -154 q -204 0 -320 143 q -115 143 -115 399 l 0 270 l -257 0 l 0 -282 q 0 -231 -92 -353 q -92 -122 -266 -122 q -178 0 -273 126 q -95 126 -95 362 q 0 129 28 276 q 28 147 87 324 l -279 0 q -50 -178 -74 -334 q -25 -156 -25 -294 q 0 -356 162 -564 q 162 -208 438 -208 q 192 0 325 110 q 132 110 184 313 Z" class="C2" /><path d="M 221631 417080 l 0 0" class="C1" /><path d="M 221631 501216 l 0 0" class="C1" /><path d="M 209392 501216 l 0 0" class="C1" /><path d="M 275600 417080 l 5783 0" class="C5" /><path d="M 275600 457848 l 5783 0" class="C5" /><path d="M 281382 418005 l 0 38918" class="C5" /><path d="M 281954 417489 l -981 -981 -164 164 981 981 Z" class="C6" /><path d="M 281382 418467 l 0 -2776" class="C5" /><path d="M 282307 417080 l -1850 0" class="C5" /><path d="M 280809 457439 l 981 981 164 -164 -981 -981 Z" class="C6" /><path d="M 281382 456461 l 0 2776" class="C5" /><path d="M 280457 457848 l 1850 0" class="C5" /><path d="M 278648 439293 l 1235 790 l 0 -790 l -1235 0 m -273 82 l 0 -393 l 1507 0 l 0 -330 l 260 0 l 0 330 l 545 0 l 0 311 l -545 0 l 0 1044 l -302 0 l -1466 -962 Z M 280425 437864 l 0 -1092 l 263 0 l 0 1469 l -263 0 q -184 -178 -495 -486 q -311 -308 -400 -387 q -169 -150 -286 -210 q -117 -60 -230 -60 q -184 0 -301 129 q -116 129 -116 337 q 0 147 51 311 q 51 163 155 349 l -316 0 q -76 -189 -115 -353 q -39 -164 -39 -301 q 0 -359 180 -573 q 180 -214 480 -214 q 143 0 270 53 q 128 53 301 194 q 45 39 259 246 q 215 208 600 586 Z M 279441 435167 q 48 -225 200 -351 q 152 -126 375 -126 q 342 0 530 235 q 187 235 187 669 q 0 146 -29 300 q -29 154 -86 318 l -302 0 q 76 -130 115 -285 q 39 -155 39 -324 q 0 -294 -116 -448 q -116 -154 -338 -154 q -204 0 -320 143 q -115 143 -115 399 l 0 270 l -257 0 l 0 -282 q 0 -231 -92 -353 q -92 -122 -266 -122 q -178 0 -273 126 q -95 126 -95 362 q 0 129 28 276 q 28 147 87 324 l -279 0 q -50 -178 -74 -334 q -25 -156 -25 -294 q 0 -356 162 -564 q 162 -208 438 -208 q 192 0 325 110 q 132 110 184 313 Z" class="C2" /><path d="M 275600 417080 l 0 0" class="C1" /><path d="M 275600 457848 l 0 0" class="C1" /><path d="M 281382 457848 l 0 0" class="C1" /><path d="M 275600 457848 l 5783 0" class="C5" /><path d="M 275600 501216 l 5783 0" class="C5" /><path d="M 281382 458773 l 0 41517" class="C5" /><path d="M 281954 458257 l -981 -981 -164 164 981 981 Z" class="C6" /><path d="M 281382 459236 l 0 -2776" class="C5" /><path d="M 282307 457848 l -1850 0" class="C5" /><path d="M 280809 500807 l 981 981 164 -164 -981 -981 Z" class="C6" /><path d="M 281382 499828 l 0 2776" class="C5" /><path d="M 280457 501216 l 1850 0" class="C5" /><path d="M 278648 481361 l 1235 790 l 0 -790 l -1235 0 m -273 82 l 0 -393 l 1507 0 l 0 -330 l 260 0 l 0 330 l 545 0 l 0 311 l -545 0 l 0 1044 l -302 0 l -1466 -962 Z M 278375 480199 l 0 -1228 l 263 0 l 0 942 l 567 0 q -23 -68 -35 -136 q -12 -68 -12 -136 q 0 -387 212 -613 q 212 -226 575 -226 q 373 0 580 232 q 207 232 207 655 q 0 146 -25 297 q -25 151 -74 312 l -314 0 q 76 -139 113 -288 q 37 -149 37 -314 q 0 -268 -141 -424 q -141 -156 -383 -156 q -242 0 -383 156 q -141 156 -141 424 q 0 125 28 250 q 28 125 87 255 l -1162 0 Z M 278581 477514 q 0 242 238 363 q 238 122 715 122 q 476 0 713 -122 q 238 -122 238 -363 q 0 -243 -238 -365 q -238 -122 -713 -122 q -477 0 -715 122 q -238 122 -238 365 m -248 0 q 0 -389 308 -594 q 308 -205 893 -205 q 584 0 892 205 q 308 205 308 594 q 0 389 -308 594 q -308 205 -892 205 q -586 0 -893 -205 q -308 -205 -308 -594 Z" class="C2" /><path d="M 275600 457848 l 0 0" class="C1" /><path d="M 275600 501216 l 0 0" class="C1" /><path d="M 281382 501216 l 0 0" class="C1" /><path d="M 275600 417080 l 12240 0" class="C5" /><path d="M 275600 501216 l 12240 0" class="C5" /><path d="M 287839 418005 l 0 82286" class="C5" /><path d="M 288411 417489 l -981 -981 -164 164 981 981 Z" class="C6" /><path d="M 287839 418467 l 0 -2776" class="C5" /><path d="M 288764 417080 l -1850 0" class="C5" /><path d="M 287266 500807 l 981 981 164 -164 -981 -981 Z" class="C6" /><path d="M 287839 499828 l 0 2776" class="C5" /><path d="M 286914 501216 l 1850 0" class="C5" /><path d="M 286047 461167 q 0 223 119 351 q 119 128 328 128 q 209 0 328 -128 q 119 -128 119 -351 q 0 -223 -120 -352 q -120 -129 -328 -129 q -209 0 -328 128 q -119 128 -119 352 m -133 313 q -50 201 -187 314 q -138 112 -336 112 q -277 0 -438 -198 q -161 -198 -161 -541 q 0 -345 161 -542 q 161 -197 438 -197 q 198 0 336 112 q 138 112 187 312 q 53 -226 206 -352 q 153 -126 375 -126 q 336 0 516 205 q 180 205 180 588 q 0 383 -180 588 q -180 205 -516 205 q -222 0 -375 -127 q -153 -127 -206 -353 m -494 115 q 180 0 280 -112 q 101 -112 101 -315 q 0 -201 -101 -315 q -101 -114 -280 -114 q -180 0 -280 114 q -101 114 -101 315 q 0 203 101 315 q 101 112 280 112 Z M 284832 459897 l 0 -1487 l 133 0 l 2180 840 l 0 327 l -2050 -790 l 0 1111 l -263 0 Z M 285898 456851 q 48 -225 200 -351 q 152 -126 375 -126 q 342 0 530 235 q 187 235 187 669 q 0 146 -29 300 q -29 154 -86 318 l -302 0 q 76 -130 115 -285 q 39 -155 39 -324 q 0 -294 -116 -448 q -116 -154 -338 -154 q -204 0 -320 143 q -115 143 -115 399 l 0 270 l -257 0 l 0 -282 q 0 -231 -92 -353 q -92 -122 -266 -122 q -178 0 -273 126 q -95 126 -95 362 q 0 129 28 276 q 28 147 87 324 l -279 0 q -50 -178 -74 -334 q -25 -156 -25 -294 q 0 -356 162 -564 q 162 -208 438 -208 q 192 0 325 110 q 132 110 184 313 Z" class="C2" /><path d="M 275600 417080 l 0 0" class="C1" /><path d="M 275600 501216 l 0 0" class="C1" /><path d="M 287839 501216 l 0 0" class="C1" /><path d="M 126912 413048 l 0 -4434" class="C5" /><path d="M 172246 413048 l 0 -4434" class="C5" /><path d="M 127837 408615 l 43484 0" class="C5" /><path d="M 127321 408042 l -981 981 164 164 981 -981 Z" class="C6" /><path d="M 128300 408615 l -2776 0" class="C5" /><path d="M 126912 407690 l 0 1850" class="C5" /><path d="M 171837 409187 l 981 -981 -164 -164 -981 981 Z" class="C6" /><path d="M 170858 408615 l 2776 0" class="C5" /><path d="M 172246 409540 l 0 -1850" class="C5" /><path d="M 147750 405881 l -790 1235 l 790 0 l 0 -1235 m -82 -273 l 393 0 l 0 1507 l 330 0 l 0 260 l -330 0 l 0 545 l -311 0 l 0 -545 l -1044 0 l 0 -302 l 962 -1466 Z M 148830 405608 l 1487 0 l 0 133 l -840 2180 l -327 0 l 790 -2050 l -1111 0 l 0 -263 Z M 151597 405814 q -242 0 -363 238 q -122 238 -122 715 q 0 476 122 713 q 122 238 363 238 q 243 0 365 -238 q 122 -238 122 -713 q 0 -477 -122 -715 q -122 -238 -365 -238 m 0 -248 q 389 0 594 308 q 205 308 205 893 q 0 584 -205 892 q -205 308 -594 308 q -389 0 -594 -308 q -205 -308 -205 -892 q 0 -586 205 -893 q 205 -308 594 -308 Z" class="C2" /><path d="M 126912 413048 l 0 0" class="C1" /><path d="M 172246 413048 l 0 0" class="C1" /><path d="M 172246 408615 l 0 0" class="C1" /><path d="M 126912 505247 l 0 4434" class="C5" /><path d="M 172246 505247 l 0 4434" class="C5" /><path d="M 127837 509681 l 43484 0" class="C5" /><path d="M 127321 509108 l -981 981 164 164 981 -981 Z" class="C6" /><path d="M 128300 509681 l -2776 0" class="C5" /><path d="M 126912 508755 l 0 1850" class="C5" /><path d="M 171837 510253 l 981 -981 -164 -164 -981 981 Z" class="C6" /><path d="M 170858 509681 l 2776 0" class="C5" /><path d="M 172246 510606 l 0 -1850" class="C5" /><path d="M 147750 506946 l -790 1235 l 790 0 l 0 -1235 m -82 -273 l 393 0 l 0 1507 l 330 0 l 0 260 l -330 0 l 0 545 l -311 0 l 0 -545 l -1044 0 l 0 -302 l 962 -1466 Z M 148830 506674 l 1487 0 l 0 133 l -840 2180 l -327 0 l 790 -2050 l -1111 0 l 0 -263 Z M 151597 506880 q -242 0 -363 238 q -122 238 -122 715 q 0 476 122 713 q 122 238 363 238 q 243 0 365 -238 q 122 -238 122 -713 q 0 -477 -122 -715 q -122 -238 -365 -238 m 0 -248 q 389 0 594 308 q 205 308 205 893 q 0 584 -205 892 q -205 308 -594 308 q -389 0 -594 -308 q -205 -308 -205 -892 q 0 -586 205 -893 q 205 -308 594 -308 Z" class="C2" /><path d="M 126912 505247 l 0 0" class="C1" /><path d="M 172246 505247 l 0 0" class="C1" /><path d="M 172246 509681 l 0 0" class="C1" /><path d="M 225549 414638 l 0 -1929" class="C5" /><path d="M 262629 414638 l 0 -1929" class="C5" /><path d="M 226474 412711 l 35230 0" class="C5" /><path d="M 225957 412138 l -981 981 164 164 981 -981 Z" class="C6" /><path d="M 226936 412711 l -2776 0" class="C5" /><path d="M 225549 411785 l 0 1850" class="C5" /><path d="M 262220 413283 l 981 -981 -164 -164 -981 981 Z" class="C6" /><path d="M 261241 412711 l 2776 0" class="C5" /><path d="M 262629 413636 l 0 -1850" class="C5" /><path d="M 242348 410770 q 225 48 351 200 q 126 152 126 375 q 0 342 -235 530 q -235 187 -669 187 q -146 0 -300 -29 q -154 -29 -318 -86 l 0 -302 q 130 76 285 115 q 155 39 324 39 q 294 0 448 -116 q 154 -116 154 -338 q 0 -204 -143 -320 q -143 -115 -399 -115 l -270 0 l 0 -257 l 282 0 q 231 0 353 -92 q 122 -92 122 -266 q 0 -178 -126 -273 q -126 -95 -362 -95 q -129 0 -276 28 q -147 28 -324 87 l 0 -279 q 178 -50 334 -74 q 156 -25 294 -25 q 356 0 564 162 q 208 162 208 438 q 0 192 -110 325 q -110 132 -313 184 Z M 244088 410918 q -223 0 -351 119 q -128 119 -128 328 q 0 209 128 328 q 128 119 351 119 q 223 0 352 -120 q 129 -120 129 -328 q 0 -209 -128 -328 q -128 -119 -352 -119 m -313 -133 q -201 -50 -314 -187 q -112 -138 -112 -336 q 0 -277 198 -438 q 198 -161 541 -161 q 345 0 542 161 q 197 161 197 438 q 0 198 -112 336 q -112 138 -312 187 q 226 53 352 206 q 126 153 126 375 q 0 336 -205 516 q -205 180 -588 180 q -383 0 -588 -180 q -205 -180 -205 -516 q 0 -222 127 -375 q 127 -153 353 -206 m -115 -494 q 0 180 112 280 q 112 101 315 101 q 201 0 315 -101 q 114 -101 114 -280 q 0 -180 -114 -280 q -114 -101 -315 -101 q -203 0 -315 101 q -112 101 -112 280 Z M 245441 409704 l 1228 0 l 0 263 l -942 0 l 0 567 q 68 -23 136 -35 q 68 -12 136 -12 q 387 0 613 212 q 226 212 226 575 q 0 373 -232 580 q -232 207 -655 207 q -146 0 -297 -25 q -151 -25 -312 -74 l 0 -314 q 139 76 288 113 q 149 37 314 37 q 268 0 424 -141 q 156 -141 156 -383 q 0 -242 -156 -383 q -156 -141 -424 -141 q -125 0 -250 28 q -125 28 -255 87 l 0 -1162 Z" class="C2" /><path d="M 225549 414638 l 0 0" class="C1" /><path d="M 262629 414638 l 0 0" class="C1" /><path d="M 262629 412711 l 0 0" class="C1" /><path d="M 262629 414638 l 0 -1929" class="C5" /><path d="M 273782 414638 l 0 -1929" class="C5" /><path d="M 263554 412711 l 9302 0" class="C5" /><path d="M 263038 412138 l -981 981 164 164 981 -981 Z" class="C6" /><path d="M 264017 412711 l -2776 0" class="C5" /><path d="M 262629 411785 l 0 1850" class="C5" /><path d="M 273373 413283 l 981 -981 -164 -164 -981 981 Z" class="C6" /><path d="M 272394 412711 l 2776 0" class="C5" /><path d="M 273782 413636 l 0 -1850" class="C5" /><path d="M 265571 411753 l 511 0 l 0 -1765 l -556 112 l 0 -285 l 553 -112 l 313 0 l 0 2050 l 511 0 l 0 263 l -1332 0 l 0 -263 Z M 267590 411753 l 511 0 l 0 -1765 l -556 112 l 0 -285 l 553 -112 l 313 0 l 0 2050 l 511 0 l 0 263 l -1332 0 l 0 -263 Z M 270262 410736 q -211 0 -334 144 q -123 144 -123 395 q 0 249 123 394 q 123 145 334 145 q 211 0 334 -145 q 123 -145 123 -394 q 0 -251 -123 -395 q -123 -144 -334 -144 m 621 -981 l 0 285 q -118 -56 -238 -85 q -120 -29 -238 -29 q -310 0 -473 209 q -163 209 -187 632 q 91 -135 229 -207 q 138 -72 304 -72 q 349 0 551 211 q 202 211 202 576 q 0 356 -211 572 q -211 215 -561 215 q -401 0 -613 -308 q -212 -308 -212 -892 q 0 -548 260 -875 q 260 -326 699 -326 q 118 0 238 23 q 120 23 250 70 Z" class="C2" /><path d="M 262629 414638 l 0 0" class="C1" /><path d="M 273782 414638 l 0 0" class="C1" /><path d="M 273782 412711 l 0 0" class="C1" /><path d="M 225549 414638 l 0 -6024" class="C5" /><path d="M 273782 414638 l 0 -6024" class="C5" /><path d="M 226474 408615 l 46383 0" class="C5" /><path d="M 225957 408042 l -981 981 164 164 981 -981 Z" class="C6" /><path d="M 226936 408615 l -2776 0" class="C5" /><path d="M 225549 407690 l 0 1850" class="C5" /><path d="M 273373 409187 l 981 -981 -164 -164 -981 981 Z" class="C6" /><path d="M 272394 408615 l 2776 0" class="C5" /><path d="M 273782 409540 l 0 -1850" class="C5" /><path d="M 246980 405608 l 1228 0 l 0 263 l -942 0 l 0 567 q 68 -23 136 -35 q 68 -12 136 -12 q 387 0 613 212 q 226 212 226 575 q 0 373 -232 580 q -232 207 -655 207 q -146 0 -297 -25 q -151 -25 -312 -74 l 0 -314 q 139 76 288 113 q 149 37 314 37 q 268 0 424 -141 q 156 -141 156 -383 q 0 -242 -156 -383 q -156 -141 -424 -141 q -125 0 -250 28 q -125 28 -255 87 l 0 -1162 Z M 249664 405814 q -242 0 -363 238 q -122 238 -122 715 q 0 476 122 713 q 122 238 363 238 q 243 0 365 -238 q 122 -238 122 -713 q 0 -477 -122 -715 q -122 -238 -365 -238 m 0 -248 q 389 0 594 308 q 205 308 205 893 q 0 584 -205 892 q -205 308 -594 308 q -389 0 -594 -308 q -205 -308 -205 -892 q 0 -586 205 -893 q 205 -308 594 -308 Z M 251683 405814 q -242 0 -363 238 q -122 238 -122 715 q 0 476 122 713 q 122 238 363 238 q 243 0 365 -238 q 122 -238 122 -713 q 0 -477 -122 -715 q -122 -238 -365 -238 m 0 -248 q 389 0 594 308 q 205 308 205 893 q 0 584 -205 892 q -205 308 -594 308 q -389 0 -594 -308 q -205 -308 -205 -892 q 0 -586 205 -893 q 205 -308 594 -308 Z" class="C2" /><path d="M 225549 414638 l 0 0" class="C1" /><path d="M 273782 414638 l 0 0" class="C1" /><path d="M 273782 408615 l 0 0" class="C1" /><path d="M 225549 505247 l 0 4434" class="C5" /><path d="M 273782 505247 l 0 4434" class="C5" /><path d="M 226474 509681 l 46383 0" class="C5" /><path d="M 225957 509108 l -981 981 164 164 981 -981 Z" class="C6" /><path d="M 226936 509681 l -2776 0" class="C5" /><path d="M 225549 508755 l 0 1850" class="C5" /><path d="M 273373 510253 l 981 -981 -164 -164 -981 981 Z" class="C6" /><path d="M 272394 509681 l 2776 0" class="C5" /><path d="M 273782 510606 l 0 -1850" class="C5" /><path d="M 246980 506674 l 1228 0 l 0 263 l -942 0 l 0 567 q 68 -23 136 -35 q 68 -12 136 -12 q 387 0 613 212 q 226 212 226 575 q 0 373 -232 580 q -232 207 -655 207 q -146 0 -297 -25 q -151 -25 -312 -74 l 0 -314 q 139 76 288 113 q 149 37 314 37 q 268 0 424 -141 q 156 -141 156 -383 q 0 -242 -156 -383 q -156 -141 -424 -141 q -125 0 -250 28 q -125 28 -255 87 l 0 -1162 Z M 249664 506880 q -242 0 -363 238 q -122 238 -122 715 q 0 476 122 713 q 122 238 363 238 q 243 0 365 -238 q 122 -238 122 -713 q 0 -477 -122 -715 q -122 -238 -365 -238 m 0 -248 q 389 0 594 308 q 205 308 205 893 q 0 584 -205 892 q -205 308 -594 308 q -389 0 -594 -308 q -205 -308 -205 -892 q 0 -586 205 -893 q 205 -308 594 -308 Z M 251683 506880 q -242 0 -363 238 q -122 238 -122 715 q 0 476 122 713 q 122 238 363 238 q 243 0 365 -238 q 122 -238 122 -713 q 0 -477 -122 -715 q -122 -238 -365 -238 m 0 -248 q 389 0 594 308 q 205 308 205 893 q 0 584 -205 892 q -205 308 -594 308 q -389 0 -594 -308 q -205 -308 -205 -892 q 0 -586 205 -893 q 205 -308 594 -308 Z" class="C2" /><path d="M 225549 505247 l 0 0" class="C1" /><path d="M 273782 505247 l 0 0" class="C1" /><path d="M 273782 509681 l 0 0" class="C1" /><path d="M 126912 578635 l 0 4434" class="C5" /><path d="M 172246 578635 l 0 4434" class="C5" /><path d="M 127837 583068 l 43484 0" class="C5" /><path d="M 127321 582495 l -981 981 164 164 981 -981 Z" class="C6" /><path d="M 128300 583068 l -2776 0" class="C5" /><path d="M 126912 582143 l 0 1850" class="C5" /><path d="M 171837 583640 l 981 -981 -164 -164 -981 981 Z" class="C6" /><path d="M 170858 583068 l 2776 0" class="C5" /><path d="M 172246 583993 l 0 -1850" class="C5" /><path d="M 147750 580334 l -790 1235 l 790 0 l 0 -1235 m -82 -273 l 393 0 l 0 1507 l 330 0 l 0 260 l -330 0 l 0 545 l -311 0 l 0 -545 l -1044 0 l 0 -302 l 962 -1466 Z M 148830 580061 l 1487 0 l 0 133 l -840 2180 l -327 0 l 790 -2050 l -1111 0 l 0 -263 Z M 151597 580267 q -242 0 -363 238 q -122 238 -122 715 q 0 476 122 713 q 122 238 363 238 q 243 0 365 -238 q 122 -238 122 -713 q 0 -477 -122 -715 q -122 -238 -365 -238 m 0 -248 q 389 0 594 308 q 205 308 205 893 q 0 584 -205 892 q -205 308 -594 308 q -389 0 -594 -308 q -205 -308 -205 -892 q 0 -586 205 -893 q 205 -308 594 -308 Z" class="C2" /><path d="M 126912 578635 l 0 0" class="C1" /><path d="M 172246 578635 l 0 0" class="C1" /><path d="M 172246 583068 l 0 0" class="C1" /><path d="M 123043 527573 l -12240 0" class="C5" /><path d="M 123043 575759 l -12240 0" class="C5" /><path d="M 110804 528498 l 0 46335" class="C5" /><path d="M 111376 527982 l -981 -981 -164 164 981 981 Z" class="C6" /><path d="M 110804 528960 l 0 -2776" class="C5" /><path d="M 111729 527573 l -1850 0" class="C5" /><path d="M 110231 575350 l 981 981 164 -164 -981 -981 Z" class="C6" /><path d="M 110804 574371 l 0 2776" class="C5" /><path d="M 109878 575759 l 1850 0" class="C5" /><path d="M 107797 554351 l 0 -1228 l 263 0 l 0 942 l 567 0 q -23 -68 -35 -136 q -12 -68 -12 -136 q 0 -387 212 -613 q 212 -226 575 -226 q 373 0 580 232 q 207 232 207 655 q 0 146 -25 297 q -25 151 -74 312 l -314 0 q 76 -139 113 -288 q 37 -149 37 -314 q 0 -268 -141 -424 q -141 -156 -383 -156 q -242 0 -383 156 q -141 156 -141 424 q 0 125 28 250 q 28 125 87 255 l -1162 0 Z M 108003 551666 q 0 242 238 363 q 238 122 715 122 q 476 0 713 -122 q 238 -122 238 -363 q 0 -243 -238 -365 q -238 -122 -713 -122 q -477 0 -715 122 q -238 122 -238 365 m -248 0 q 0 -389 308 -594 q 308 -205 893 -205 q 584 0 892 205 q 308 205 308 594 q 0 389 -308 594 q -308 205 -892 205 q -586 0 -893 -205 q -308 -205 -308 -594 Z M 108003 549648 q 0 242 238 363 q 238 122 715 122 q 476 0 713 -122 q 238 -122 238 -363 q 0 -243 -238 -365 q -238 -122 -713 -122 q -477 0 -715 122 q -238 122 -238 365 m -248 0 q 0 -389 308 -594 q 308 -205 893 -205 q 584 0 892 205 q 308 205 308 594 q 0 389 -308 594 q -308 205 -892 205 q -586 0 -893 -205 q -308 -205 -308 -594 Z" class="C2" /><path d="M 123043 527573 l 0 0" class="C1" /><path d="M 123043 575759 l 0 0" class="C1" /><path d="M 110804 575759 l 0 0" class="C1" /><path d="M 138520 514366 l 622 0 l 787 2623 l 791 -2623 l 622 0 l 0 3855 l -407 0 l 0 -3385 l -795 2644 l -419 0 l -795 -2644 l 0 3385 l -405 0 l 0 -3855 Z M 142591 513217 l 244 0 q 23 194 123 290 q 100 97 280 97 q 178 0 277 -96 q 99 -96 126 -292 l 244 0 q -21 369 -184 555 q -163 186 -463 186 q -300 0 -463 -186 q -163 -186 -184 -555 m 609 1663 l -566 1918 l 1134 0 l -568 -1918 m -235 -514 l 473 0 l 1175 3855 l -434 0 l -281 -989 l -1390 0 l -281 989 l -440 0 l 1177 -3855 m 50 4219 l 380 0 l 0 604 l -380 0 l 0 -604 Z M 144636 514366 l 2609 0 l 0 439 l -1095 0 l 0 3416 l -419 0 l 0 -3416 l -1095 0 l 0 -439 Z M 149013 514366 l 859 0 q 894 0 1314 466 q 419 466 419 1458 q 0 997 -420 1464 q -420 467 -1313 467 l -859 0 l 0 -1807 l -415 0 l 0 -372 l 415 0 l 0 -1676 m 419 429 l 0 1247 l 694 0 l 0 372 l -694 0 l 0 1379 l 502 0 q 638 0 935 -361 q 296 -361 296 -1141 q 0 -775 -296 -1135 q -296 -360 -935 -360 l -502 0 Z M 153518 513318 l 382 0 l -471 682 l -316 0 l 405 -682 m -1305 997 l 419 0 l 0 2342 q 0 620 180 892 q 180 272 582 272 q 401 0 580 -272 q 180 -272 180 -892 l 0 -2342 l 419 0 l 0 2406 q 0 754 -298 1139 q -298 385 -881 385 q -585 0 -883 -385 q -298 -385 -298 -1139 l 0 -2406 m 2196 573 l 0 -307 q 126 116 217 172 q 91 56 155 56 q 95 0 143 -71 q 48 -71 48 -210 q 0 -83 -15 -163 q -15 -80 -46 -160 l 275 0 q 21 98 31 186 q 10 88 10 165 q 0 315 -90 463 q -90 148 -282 148 q -99 0 -208 -68 q -108 -68 -237 -210 Z M 155899 514366 l 562 0 l 1367 3225 l 0 -3225 l 405 0 l 0 3855 l -562 0 l -1367 -3225 l 0 3225 l -405 0 l 0 -3855 Z M 161167 517671 l 0 -1035 l -682 0 l 0 -429 l 1095 0 l 0 1655 q -242 214 -533 324 q -291 110 -622 110 q -723 0 -1131 -528 q -408 -528 -408 -1470 q 0 -945 408 -1473 q 408 -528 1131 -528 q 302 0 573 93 q 272 93 501 274 l 0 555 q -231 -245 -492 -369 q -260 -124 -547 -124 q -566 0 -850 395 q -284 395 -284 1177 q 0 780 284 1175 q 284 395 850 395 q 221 0 395 -48 q 174 -48 312 -148 Z" class="C2" /><path d="M 240570 514366 l 622 0 l 787 2623 l 791 -2623 l 622 0 l 0 3855 l -407 0 l 0 -3385 l -795 2644 l -419 0 l -795 -2644 l 0 3385 l -405 0 l 0 -3855 Z M 244641 513217 l 244 0 q 23 194 123 290 q 100 97 280 97 q 178 0 277 -96 q 99 -96 126 -292 l 244 0 q -21 369 -184 555 q -163 186 -463 186 q -300 0 -463 -186 q -163 -186 -184 -555 m 609 1663 l -566 1918 l 1134 0 l -568 -1918 m -235 -514 l 473 0 l 1175 3855 l -434 0 l -281 -989 l -1390 0 l -281 989 l -440 0 l 1177 -3855 m 50 4219 l 380 0 l 0 604 l -380 0 l 0 -604 Z M 246686 514366 l 2609 0 l 0 439 l -1095 0 l 0 3416 l -419 0 l 0 -3416 l -1095 0 l 0 -439 Z M 251459 516380 l 0 1412 l 669 0 q 337 0 499 -174 q 162 -174 162 -533 q 0 -361 -162 -533 q -162 -172 -499 -172 l -669 0 m 0 -1585 l 0 1162 l 618 0 q 306 0 455 -143 q 150 -143 150 -438 q 0 -292 -150 -436 q -150 -145 -455 -145 l -618 0 m -417 -429 l 1066 0 q 477 0 735 248 q 258 248 258 705 q 0 354 -132 563 q -132 209 -388 261 q 308 83 478 345 q 170 262 170 655 q 0 516 -281 798 q -281 281 -799 281 l -1107 0 l 0 -3855 Z M 253944 514366 l 1950 0 l 0 439 l -1533 0 l 0 1141 l 1469 0 l 0 439 l -1469 0 l 0 1397 l 1570 0 l 0 439 l -1987 0 l 0 -3855 m 775 -1053 l 388 0 l 436 687 l -287 0 l -343 -460 l -343 460 l -287 0 l 436 -687 Z M 256617 514366 l 562 0 l 1367 3225 l 0 -3225 l 405 0 l 0 3855 l -562 0 l -1367 -3225 l 0 3225 l -405 0 l 0 -3855 Z" class="C2" /><path d="M 490425 589306 l 0 1448 l 525 0 q 291 0 450 -188 q 159 -188 159 -537 q 0 -346 -159 -534 q -159 -188 -450 -188 l -525 0 m -417 -429 l 942 0 q 518 0 784 293 q 265 293 265 859 q 0 571 -265 862 q -265 292 -784 292 l -525 0 l 0 1549 l -417 0 l 0 -3855 Z M 494868 589175 l 0 550 q -211 -245 -449 -367 q -239 -121 -507 -121 q -529 0 -810 404 q -281 404 -281 1168 q 0 762 281 1166 q 281 404 810 404 q 269 0 507 -121 q 239 -121 449 -367 l 0 545 q -219 186 -464 279 q -245 93 -517 93 q -700 0 -1103 -536 q -403 -536 -403 -1463 q 0 -930 403 -1465 q 403 -536 1103 -536 q 277 0 522 92 q 245 92 460 275 Z" class="C2" /><path d="M 623532 593769 l 0 1267 l 516 0 q 287 0 443 -165 q 157 -165 157 -470 q 0 -303 -157 -468 q -157 -165 -443 -165 l -516 0 m -411 -375 l 927 0 q 510 0 772 256 q 261 256 261 751 q 0 499 -261 755 q -261 255 -772 255 l -516 0 l 0 1356 l -411 0 l 0 -3373 Z M 626043 595157 l 0 1236 l 659 0 q 331 0 491 -152 q 160 -152 160 -467 q 0 -316 -160 -467 q -160 -150 -491 -150 l -659 0 m 0 -1387 l 0 1017 l 608 0 q 301 0 448 -125 q 147 -125 147 -383 q 0 -255 -147 -382 q -147 -127 -448 -127 l -608 0 m -411 -375 l 1049 0 q 470 0 724 217 q 254 217 254 617 q 0 310 -130 493 q -130 183 -382 228 q 303 72 471 302 q 168 229 168 573 q 0 452 -277 698 q -277 246 -787 246 l -1090 0 l 0 -3373 Z M 628284 595315 l 1096 0 l 0 371 l -1096 0 l 0 -371 Z M 630907 593695 q -317 0 -477 347 q -160 347 -160 1043 q 0 694 160 1040 q 160 347 477 347 q 319 0 479 -347 q 160 -347 160 -1040 q 0 -696 -160 -1043 q -160 -347 -479 -347 m 0 -361 q 510 0 780 448 q 269 448 269 1302 q 0 852 -269 1300 q -269 448 -780 448 q -510 0 -780 -448 q -269 -448 -269 -1300 q 0 -854 269 -1302 q 269 -448 780 -448 Z M 632682 593394 l 1612 0 l 0 384 l -1236 0 l 0 827 q 89 -34 179 -51 q 89 -17 179 -17 q 508 0 805 310 q 297 310 297 838 q 0 544 -305 846 q -305 302 -860 302 q -191 0 -389 -36 q -198 -36 -410 -108 l 0 -459 q 183 111 378 165 q 195 54 413 54 q 352 0 557 -206 q 205 -206 205 -558 q 0 -352 -205 -558 q -205 -206 -557 -206 q -165 0 -328 41 q -164 41 -334 127 l 0 -1694 Z" class="C2" /><path d="M 600102 593666 l 239 0 l 0 -1029 l -260 65 l 0 -166 l 258 -65 l 146 0 l 0 1196 l 239 0 l 0 154 l -622 0 l 0 -154 Z M 601236 592470 l 123 0 l -376 1521 l -123 0 l 376 -1521 Z M 601543 593666 l 239 0 l 0 -1029 l -260 65 l 0 -166 l 258 -65 l 146 0 l 0 1196 l 239 0 l 0 154 l -622 0 l 0 -154 Z M 602772 592590 q -113 0 -170 139 q -57 139 -57 417 q 0 277 57 416 q 57 139 170 139 q 114 0 170 -139 q 57 -139 57 -416 q 0 -278 -57 -417 q -57 -139 -170 -139 m 0 -145 q 181 0 277 179 q 96 179 96 521 q 0 341 -96 520 q -96 179 -277 179 q -181 0 -277 -179 q -96 -179 -96 -520 q 0 -342 96 -521 q 96 -179 277 -179 Z" class="C2" /><path d="M 617373 572549 l 0 -906 l -671 0 l 0 -375 l 1078 0 l 0 1448 q -238 188 -525 284 q -287 96 -612 96 q -712 0 -1113 -462 q -402 -462 -402 -1287 q 0 -827 402 -1289 q 402 -462 1113 -462 q 297 0 564 81 q 267 81 493 239 l 0 486 q -228 -215 -484 -323 q -256 -108 -539 -108 q -557 0 -837 346 q -280 346 -280 1030 q 0 682 280 1028 q 280 346 837 346 q 218 0 388 -42 q 171 -42 307 -130 Z M 618530 569657 l 411 0 l 0 1383 l 1492 0 l 0 -1383 l 411 0 l 0 3373 l -411 0 l 0 -1606 l -1492 0 l 0 1606 l -411 0 l 0 -3373 Z M 621661 569657 l 1919 0 l 0 384 l -1509 0 l 0 999 l 1446 0 l 0 384 l -1446 0 l 0 1222 l 1545 0 l 0 384 l -1956 0 l 0 -3373 m 823 -922 l 382 0 l 429 601 l -283 0 l -338 -402 l -338 402 l -283 0 l 429 -601 m 1043 -463 l 376 0 l -464 596 l -311 0 l 399 -596 Z" class="C2" /><path d="M 612109 578308 l 0 1236 l 659 0 q 331 0 491 -152 q 160 -152 160 -467 q 0 -316 -160 -467 q -160 -150 -491 -150 l -659 0 m 0 -1387 l 0 1017 l 608 0 q 301 0 448 -125 q 147 -125 147 -383 q 0 -255 -147 -382 q -147 -127 -448 -127 l -608 0 m -411 -375 l 1049 0 q 470 0 724 217 q 254 217 254 617 q 0 310 -130 493 q -130 183 -382 228 q 303 72 471 302 q 168 229 168 573 q 0 452 -277 698 q -277 246 -787 246 l -1090 0 l 0 -3373 Z M 615570 576996 l -557 1679 l 1116 0 l -559 -1679 m -232 -450 l 466 0 l 1157 3373 l -427 0 l -277 -865 l -1368 0 l -277 865 l -433 0 l 1159 -3373 m 116 -917 l 399 596 l -311 0 l -468 -596 l 380 0 Z M 617404 576546 l 553 0 l 1346 2822 l 0 -2822 l 399 0 l 0 3373 l -553 0 l -1346 -2822 l 0 2822 l -399 0 l 0 -3373 Z M 622257 575541 l 240 0 q 22 169 121 254 q 99 85 276 85 q 175 0 272 -84 q 98 -84 124 -255 l 240 0 q -20 323 -181 486 q -161 163 -455 163 q -295 0 -455 -163 q -161 -163 -181 -486 m 600 1455 l -557 1679 l 1116 0 l -559 -1679 m -232 -450 l 466 0 l 1157 3373 l -427 0 l -277 -865 l -1368 0 l -277 865 l -433 0 l 1159 -3373 Z M 624691 576546 l 553 0 l 1346 2822 l 0 -2822 l 399 0 l 0 3373 l -553 0 l -1346 -2822 l 0 2822 l -399 0 l 0 -3373 Z" class="C2" /><path d="M 353535 398810 l 286195 0 l 0 202381 l -286195 0 l 0 -202381" class="C1" /><path d="M 637814 599274 l -276673 0 l 0 -198549 l 276673 0 l 0 198549 Z M 361485 401069 l 275986 0 l 0 197861 l -275986 0 l 0 -197861 Z" class="C2" /><path d="M 637814 599274 l -276673 0 l 0 -198549 l 276673 0 l 0 198549" class="C3" /><path d="M 361485 401069 l 275986 0 l 0 197861 l -275986 0 l 0 -197861" class="C3" /><path d="M 600850 401069 l 0 198205" class="C3" /><path d="M 364244 402105 l 261 0 l 0 815 l 865 -815 l 336 0 l -957 899 l 1025 1029 l -343 0 l -926 -928 l 0 928 l -261 0 l 0 -1927 Z M 365978 402105 l 261 0 l 0 1927 l -261 0 l 0 -1927 Z M 366757 402105 l 1219 0 l 0 219 l -958 0 l 0 571 l 918 0 l 0 219 l -918 0 l 0 698 l 981 0 l 0 219 l -1242 0 l 0 -1927 m 800 -768 q 145 -66 280 -66 q 134 0 216 55 q 82 55 82 141 q 0 79 -114 163 l -57 41 q -45 34 -50 45 q -9 21 -9 62 l -154 0 l 0 -15 q 0 -52 19 -86 q 19 -35 85 -83 l 58 -44 q 59 -44 59 -96 q 0 -27 -40 -50 q -40 -23 -132 -23 q -116 0 -245 67 l 0 -111 m -301 241 l 243 0 l 272 343 l -179 0 l -214 -230 l -214 230 l -179 0 l 272 -343 Z M 368428 402105 l 389 0 l 492 1312 l 494 -1312 l 389 0 l 0 1927 l -254 0 l 0 -1692 l -497 1322 l -262 0 l -497 -1322 l 0 1692 l -253 0 l 0 -1927 Z M 371282 402105 l 1631 0 l 0 219 l -684 0 l 0 1708 l -262 0 l 0 -1708 l -684 0 l 0 -219 Z M 374078 403129 q 84 28 163 121 q 79 93 159 256 l 265 527 l -280 0 l -247 -494 q -96 -194 -185 -257 q -90 -63 -245 -63 l -284 0 l 0 815 l -261 0 l 0 -1927 l 589 0 q 330 0 493 138 q 163 138 163 417 q 0 182 -85 302 q -85 120 -246 167 m -653 -809 l 0 684 l 328 0 q 188 0 285 -87 q 96 -87 96 -256 q 0 -169 -96 -255 q -96 -86 -285 -86 l -328 0 Z M 375646 402362 l -354 959 l 709 0 l -355 -959 m -147 -257 l 296 0 l 735 1927 l -271 0 l -176 -494 l -869 0 l -176 494 l -275 0 l 736 -1927 Z M 377651 402105 l 261 0 l 0 815 l 865 -815 l 336 0 l -957 899 l 1025 1029 l -343 0 l -926 -928 l 0 928 l -261 0 l 0 -1927 Z M 379928 401825 l -74 -43 q -32 -18 -52 -25 q -20 -7 -36 -7 q -46 0 -72 32 q -26 32 -26 90 l 0 8 l -161 0 q 0 -130 66 -207 q 66 -76 178 -76 q 46 0 86 10 q 39 10 101 45 l 74 39 q 30 17 52 25 q 22 8 41 8 q 41 0 67 -33 q 26 -33 26 -86 l 0 -8 l 161 0 q -3 129 -69 206 q -66 77 -175 77 q -44 0 -82 -10 q -38 -10 -105 -45 m -808 280 l 280 0 l 534 793 l 531 -793 l 280 0 l -682 1010 l 0 918 l -262 0 l 0 -918 l -682 -1010 Z M 381573 402105 l 1631 0 l 0 219 l -684 0 l 0 1708 l -262 0 l 0 -1708 l -684 0 l 0 -219 Z M 384369 403129 q 84 28 163 121 q 79 93 159 256 l 265 527 l -280 0 l -247 -494 q -96 -194 -185 -257 q -90 -63 -245 -63 l -284 0 l 0 815 l -261 0 l 0 -1927 l 589 0 q 330 0 493 138 q 163 138 163 417 q 0 182 -85 302 q -85 120 -246 167 m -653 -809 l 0 684 l 328 0 q 188 0 285 -87 q 96 -87 96 -256 q 0 -169 -96 -255 q -96 -86 -285 -86 l -328 0 Z M 385256 402079 l 262 0 l 0 1171 q 0 310 112 446 q 112 136 364 136 q 250 0 363 -136 q 112 -136 112 -446 l 0 -1171 l 262 0 l 0 1203 q 0 377 -187 569 q -187 192 -551 192 q -365 0 -552 -192 q -187 -192 -187 -569 l 0 -1203 m 1372 287 l 0 -154 q 79 58 136 86 q 57 28 97 28 q 59 0 89 -36 q 30 -36 30 -105 q 0 -41 -10 -81 q -10 -40 -29 -80 l 172 0 q 13 49 19 93 q 6 44 6 83 q 0 157 -56 232 q -56 74 -176 74 q -62 0 -130 -34 q -68 -34 -148 -105 Z M 388414 401581 l 239 0 l -294 341 l -198 0 l 253 -341 m -86 701 q -284 0 -451 212 q -167 212 -167 577 q 0 364 167 576 q 167 212 451 212 q 284 0 450 -212 q 166 -212 166 -576 q 0 -365 -166 -577 q -166 -212 -450 -212 m 0 -212 q 405 0 648 272 q 243 272 243 729 q 0 456 -243 727 q -243 272 -648 272 q -407 0 -650 -271 q -243 -271 -243 -728 q 0 -457 243 -729 q 243 -272 650 -272 m 484 296 l 0 -154 q 79 58 136 86 q 57 28 97 28 q 59 0 89 -36 q 30 -36 30 -105 q 0 -41 -10 -81 q -10 -40 -29 -80 l 172 0 q 13 49 19 93 q 6 44 6 83 q 0 157 -56 232 q -56 74 -176 74 q -62 0 -130 -34 q -68 -34 -148 -105 Z M 391418 402254 l 0 275 q -132 -123 -281 -183 q -149 -61 -317 -61 q -330 0 -506 202 q -176 202 -176 584 q 0 381 176 583 q 176 202 506 202 q 168 0 317 -61 q 149 -61 281 -183 l 0 272 q -137 93 -290 139 q -153 46 -323 46 q -438 0 -689 -268 q -252 -268 -252 -731 q 0 -465 252 -733 q 252 -268 689 -268 q 173 0 326 46 q 153 46 287 137 Z M 392661 402105 l 261 0 l 0 815 l 865 -815 l 336 0 l -957 899 l 1025 1029 l -343 0 l -926 -928 l 0 928 l -261 0 l 0 -1927 Z M 394395 402105 l 261 0 l 0 790 l 948 0 l 0 -790 l 261 0 l 0 1927 l -261 0 l 0 -918 l -948 0 l 0 918 l -261 0 l 0 -1927 Z M 396383 402105 l 261 0 l 0 1927 l -261 0 l 0 -1927 Z M 397736 402105 l 1631 0 l 0 219 l -684 0 l 0 1708 l -262 0 l 0 -1708 l -684 0 l 0 -219 Z M 399618 402105 l 261 0 l 0 790 l 948 0 l 0 -790 l 261 0 l 0 1927 l -261 0 l 0 -918 l -948 0 l 0 918 l -261 0 l 0 -1927 Z M 401606 402105 l 261 0 l 0 1927 l -261 0 l 0 -1927 Z M 404670 402254 l 0 275 q -132 -123 -281 -183 q -149 -61 -317 -61 q -330 0 -506 202 q -176 202 -176 584 q 0 381 176 583 q 176 202 506 202 q 168 0 317 -61 q 149 -61 281 -183 l 0 272 q -137 93 -290 139 q -153 46 -323 46 q -438 0 -689 -268 q -252 -268 -252 -731 q 0 -465 252 -733 q 252 -268 689 -268 q 173 0 326 46 q 153 46 287 137 Z M 405855 402282 q -284 0 -451 212 q -167 212 -167 577 q 0 364 167 576 q 167 212 451 212 q 284 0 450 -212 q 166 -212 166 -576 q 0 -365 -166 -577 q -166 -212 -450 -212 m 0 -212 q 405 0 648 272 q 243 272 243 729 q 0 456 -243 727 q -243 272 -648 272 q -407 0 -650 -271 q -243 -271 -243 -728 q 0 -457 243 -729 q 243 -272 650 -272 m -121 -492 l 243 0 l 272 343 l -179 0 l -214 -230 l -214 230 l -179 0 l 272 -343 Z M 407153 402105 l 351 0 l 855 1612 l 0 -1612 l 253 0 l 0 1927 l -351 0 l -855 -1612 l 0 1612 l -253 0 l 0 -1927 Z M 410445 403758 l 0 -518 l -426 0 l 0 -214 l 684 0 l 0 828 q -151 107 -333 162 q -182 55 -389 55 q -452 0 -707 -264 q -255 -264 -255 -735 q 0 -472 255 -737 q 255 -264 707 -264 q 188 0 358 46 q 170 46 313 137 l 0 278 q -145 -123 -307 -185 q -163 -62 -342 -62 q -354 0 -531 198 q -178 198 -178 589 q 0 390 178 587 q 178 198 531 198 q 138 0 247 -24 q 108 -24 195 -74 Z" class="C2" /><path d="M 353535 601190 l 286195 0 l 0 -202381 l -286195 0 l 0 202381" class="C4" /><path d="M 184940 548662 l 537 0 q 559 0 821 233 q 262 233 262 729 q 0 498 -263 732 q -263 234 -820 234 l -537 0 l 0 -904 l -259 0 l 0 -186 l 259 0 l 0 -838 m 262 214 l 0 624 l 434 0 l 0 186 l -434 0 l 0 689 l 314 0 q 399 0 584 -181 q 185 -181 185 -571 q 0 -387 -185 -567 q -185 -180 -584 -180 l -314 0 Z M 186975 548662 l 1219 0 l 0 219 l -958 0 l 0 571 l 918 0 l 0 219 l -918 0 l 0 698 l 981 0 l 0 219 l -1242 0 l 0 -1927 m 484 -527 l 243 0 l 272 343 l -179 0 l -214 -230 l -214 230 l -179 0 l 272 -343 m 0 2636 l 238 0 l 0 302 l -238 0 l 0 -302 Z M 188646 548662 l 389 0 l 492 1312 l 494 -1312 l 389 0 l 0 1927 l -254 0 l 0 -1692 l -497 1322 l -262 0 l -497 -1322 l 0 1692 l -253 0 l 0 -1927 Z M 191768 548662 l 389 0 l 492 1312 l 494 -1312 l 389 0 l 0 1927 l -254 0 l 0 -1692 l -497 1322 l -262 0 l -497 -1322 l 0 1692 l -253 0 l 0 -1927 Z M 194019 548662 l 262 0 l 0 1171 q 0 310 112 446 q 112 136 364 136 q 250 0 363 -136 q 112 -136 112 -446 l 0 -1171 l 262 0 l 0 1203 q 0 377 -187 569 q -187 192 -551 192 q -365 0 -552 -192 q -187 -192 -187 -569 l 0 -1203 m 809 -524 l 239 0 l -294 341 l -198 0 l 253 -341 Z M 195717 548662 l 1631 0 l 0 219 l -684 0 l 0 1708 l -262 0 l 0 -1708 l -684 0 l 0 -219 Z M 198700 549669 l 0 706 l 418 0 q 210 0 312 -87 q 101 -87 101 -267 q 0 -181 -101 -267 q -101 -86 -312 -86 l -418 0 m 0 -793 l 0 581 l 386 0 q 191 0 285 -72 q 94 -72 94 -219 q 0 -146 -94 -218 q -94 -72 -285 -72 l -386 0 m -261 -214 l 666 0 q 298 0 460 124 q 161 124 161 352 q 0 177 -83 281 q -83 105 -243 130 q 192 41 299 172 q 107 131 107 327 q 0 258 -176 399 q -176 141 -500 141 l -692 0 l 0 -1927 Z M 201036 548839 q -284 0 -451 212 q -167 212 -167 577 q 0 364 167 576 q 167 212 451 212 q 284 0 450 -212 q 166 -212 166 -576 q 0 -365 -166 -577 q -166 -212 -450 -212 m 0 -212 q 405 0 648 272 q 243 272 243 729 q 0 456 -243 727 q -243 272 -648 272 q -407 0 -650 -271 q -243 -271 -243 -728 q 0 -457 243 -729 q 243 -272 650 -272 m -121 2144 l 238 0 l 0 302 l -238 0 l 0 -302 Z M 203778 548810 l 0 275 q -132 -123 -281 -183 q -149 -61 -317 -61 q -330 0 -506 202 q -176 202 -176 584 q 0 381 176 583 q 176 202 506 202 q 168 0 317 -61 q 149 -61 281 -183 l 0 272 q -137 93 -290 139 q -153 46 -323 46 q -438 0 -689 -268 q -252 -268 -252 -731 q 0 -465 252 -733 q 252 -268 689 -268 q 173 0 326 46 q 153 46 287 137 Z M 205282 548876 l 0 1499 l 315 0 q 399 0 584 -181 q 185 -181 185 -571 q 0 -387 -185 -567 q -185 -180 -584 -180 l -315 0 m -261 -214 l 536 0 q 560 0 822 233 q 262 233 262 729 q 0 498 -263 732 q -263 234 -821 234 l -536 0 l 0 -1927 Z M 207701 548919 l -354 959 l 709 0 l -355 -959 m -147 -257 l 296 0 l 735 1927 l -271 0 l -176 -494 l -869 0 l -176 494 l -275 0 l 736 -1927 Z M 209706 548662 l 389 0 l 492 1312 l 494 -1312 l 389 0 l 0 1927 l -254 0 l 0 -1692 l -497 1322 l -262 0 l -497 -1322 l 0 1692 l -253 0 l 0 -1927 Z M 212631 548919 l -354 959 l 709 0 l -355 -959 m -147 -257 l 296 0 l 735 1927 l -271 0 l -176 -494 l -869 0 l -176 494 l -275 0 l 736 -1927 m 142 -280 l -74 -43 q -32 -18 -52 -25 q -20 -7 -36 -7 q -46 0 -72 32 q -26 32 -26 90 l 0 8 l -161 0 q 0 -130 66 -207 q 66 -76 178 -76 q 46 0 86 10 q 39 10 101 45 l 74 39 q 30 17 52 25 q 22 8 41 8 q 41 0 67 -33 q 26 -33 26 -86 l 0 -8 l 161 0 q -3 129 -69 206 q -66 77 -175 77 q -44 0 -82 -10 q -38 -10 -105 -45 Z M 214636 548662 l 261 0 l 0 1927 l -261 0 l 0 -1927 Z M 215416 548662 l 261 0 l 0 815 l 865 -815 l 336 0 l -957 899 l 1025 1029 l -343 0 l -926 -928 l 0 928 l -261 0 l 0 -1927 Z M 217150 548662 l 261 0 l 0 1927 l -261 0 l 0 -1927 Z M 217929 548662 l 351 0 l 855 1612 l 0 -1612 l 253 0 l 0 1927 l -351 0 l -855 -1612 l 0 1612 l -253 0 l 0 -1927 Z M 220551 548919 l -354 959 l 709 0 l -355 -959 m -147 -257 l 296 0 l 735 1927 l -271 0 l -176 -494 l -869 0 l -176 494 l -275 0 l 736 -1927 Z M 222297 548834 q -201 0 -303 198 q -101 198 -101 596 q 0 396 101 594 q 101 198 303 198 q 203 0 304 -198 q 101 -198 101 -594 q 0 -398 -101 -596 q -101 -198 -304 -198 m 0 -207 q 324 0 495 256 q 171 256 171 744 q 0 487 -171 743 q -171 256 -495 256 q -324 0 -495 -256 q -171 -256 -171 -743 q 0 -488 171 -744 q 171 -256 495 -256 Z M 224211 549550 q 187 40 292 167 q 105 127 105 312 q 0 285 -196 442 q -196 156 -558 156 q -121 0 -250 -24 q -128 -24 -265 -72 l 0 -252 q 108 63 238 96 q 129 32 270 32 q 245 0 374 -97 q 128 -97 128 -281 q 0 -170 -119 -267 q -119 -96 -332 -96 l -225 0 l 0 -214 l 235 0 q 192 0 294 -77 q 102 -77 102 -221 q 0 -148 -105 -228 q -105 -79 -301 -79 q -107 0 -230 23 q -123 23 -270 72 l 0 -232 q 148 -41 278 -62 q 130 -21 245 -21 q 297 0 470 135 q 173 135 173 365 q 0 160 -92 270 q -92 110 -261 153 Z M 225653 548662 l 1631 0 l 0 219 l -684 0 l 0 1708 l -262 0 l 0 -1708 l -684 0 l 0 -219 Z M 227783 550370 l 910 0 l 0 219 l -1224 0 l 0 -219 q 148 -154 405 -412 q 256 -259 322 -334 q 125 -141 175 -238 q 50 -97 50 -192 q 0 -154 -108 -250 q -108 -97 -281 -97 q -123 0 -259 43 q -136 43 -291 129 l 0 -263 q 157 -63 294 -96 q 137 -32 250 -32 q 300 0 478 150 q 178 150 178 400 q 0 119 -45 225 q -45 107 -162 251 q -32 37 -205 216 q -173 179 -488 500 Z M 229799 548834 q -201 0 -303 198 q -101 198 -101 596 q 0 396 101 594 q 101 198 303 198 q 203 0 304 -198 q 101 -198 101 -594 q 0 -398 -101 -596 q -101 -198 -304 -198 m 0 -207 q 324 0 495 256 q 171 256 171 744 q 0 487 -171 743 q -171 256 -495 256 q -324 0 -495 -256 q -171 -256 -171 -743 q 0 -488 171 -744 q 171 -256 495 -256 Z M 231148 550370 l 910 0 l 0 219 l -1224 0 l 0 -219 q 148 -154 405 -412 q 256 -259 322 -334 q 125 -141 175 -238 q 50 -97 50 -192 q 0 -154 -108 -250 q -108 -97 -281 -97 q -123 0 -259 43 q -136 43 -291 129 l 0 -263 q 157 -63 294 -96 q 137 -32 250 -32 q 300 0 478 150 q 178 150 178 400 q 0 119 -45 225 q -45 107 -162 251 q -32 37 -205 216 q -173 179 -488 500 Z M 232650 550370 l 426 0 l 0 -1470 l -463 93 l 0 -238 l 461 -93 l 261 0 l 0 1708 l 426 0 l 0 219 l -1110 0 l 0 -219 Z M 234171 548662 l 280 0 l 479 716 l 482 -716 l 280 0 l -620 926 l 661 1002 l -280 0 l -542 -820 l -546 820 l -281 0 l 688 -1029 l -600 -899 Z" class="C2" /><path d="M 162593 554100 l 63952 0" class="C5" /><path d="M 164135 554353 l -1542 -253 1542 -253 Z" class="C7" /></g></svg>