<?xml version="1.0" standalone="no"?>
<!DOCTYPE svg PUBLIC "-//W3C//DTD SVG 20010904//EN"
 "http://www.w3.org/TR/2001/REC-SVG-20010904/DTD/svg10.dtd">
<svg version="1.0" xmlns="http://www.w3.org/2000/svg"
 width="1024.000000pt" height="1024.000000pt" viewBox="0 0 1024.000000 1024.000000"
 preserveAspectRatio="xMidYMid meet">

<g transform="translate(0.000000,1024.000000) scale(0.100000,-0.100000)"
fill="currentColor" stroke="none">
<path d="M5086 8597 c-16 -28 -93 -162 -171 -297 -244 -422 -543 -937 -655
-1130 -60 -102 -190 -327 -290 -500 -201 -347 -328 -565 -430 -740 -259 -444
-804 -1381 -933 -1605 -85 -148 -176 -305 -201 -347 l-46 -78 2755 0 c1515 0
2755 3 2755 7 0 4 -17 36 -39 72 -21 36 -113 194 -204 351 -90 157 -231 400
-312 540 -82 140 -258 446 -393 680 -134 234 -324 562 -422 730 -97 168 -354
611 -570 985 -663 1147 -802 1385 -809 1385 -3 0 -19 -24 -35 -53z m299 -855
c142 -246 359 -619 481 -830 l223 -383 -98 -162 c-53 -89 -102 -170 -107 -180
-9 -15 -27 10 -110 155 -55 95 -223 388 -374 650 -151 262 -278 474 -282 470
-3 -4 -104 -176 -223 -382 -119 -206 -250 -431 -290 -500 -101 -174 -1008
-1739 -1122 -1937 -51 -89 -93 -165 -93 -168 0 -3 779 -5 1730 -5 991 0 1730
4 1730 9 0 9 -475 842 -697 1222 -66 113 -126 216 -132 228 -11 19 0 42 92
197 l104 175 100 -173 c255 -443 1136 -1954 1145 -1965 8 -10 -434 -13 -2203
-14 -1218 0 -2276 -1 -2352 -2 -75 -1 -137 -1 -137 1 0 1 96 165 213 365 118
199 289 493 382 652 92 160 196 337 230 395 462 784 1515 2605 1515 2621 0 5
3 9 8 9 4 -1 124 -202 267 -448z m-166 -902 c43 -74 176 -304 296 -509 201
-346 217 -377 207 -403 -5 -15 -99 -178 -207 -363 l-198 -335 -608 0 c-335 0
-609 2 -609 4 0 2 38 68 84 147 323 556 522 899 573 989 84 148 321 558 346
599 16 27 23 31 29 20 5 -8 44 -75 87 -149z m853 -1460 c85 -146 208 -355 272
-465 l117 -200 -665 -3 c-365 -1 -966 -1 -1334 0 l-669 3 80 138 80 137 751 0
751 0 73 128 c40 70 104 180 142 245 38 65 99 172 136 238 l67 120 22 -38 c12
-21 92 -157 177 -303z"/>
<path d="M3435 3056 c-119 -38 -235 -134 -287 -237 -100 -200 -69 -454 74
-599 224 -228 643 -184 771 80 35 74 52 170 43 253 l-8 67 -224 0 -224 0 0
-85 0 -85 135 0 c101 0 135 -3 135 -12 -1 -22 -40 -102 -63 -126 -46 -49 -95
-66 -192 -67 -107 0 -162 22 -220 87 -64 70 -80 118 -80 238 0 95 3 111 29
168 51 110 139 166 262 166 104 -1 187 -48 239 -138 9 -15 16 -15 85 9 110 37
107 34 74 94 -48 89 -140 157 -249 185 -72 19 -243 20 -300 2z"/>
<path d="M1080 2575 l0 -485 335 0 335 0 0 85 0 85 -242 0 -243 0 3 120 3 120
210 0 209 0 0 63 c0 116 18 107 -216 107 l-204 0 0 105 0 105 240 0 240 0 0
90 0 90 -335 0 -335 0 0 -485z"/>
<path d="M2010 2575 l0 -485 96 0 95 0 -3 330 c-2 182 -2 330 -1 330 1 0 46
-62 99 -137 53 -76 122 -174 153 -218 32 -44 92 -131 135 -192 l79 -113 88 0
89 0 0 485 0 485 -95 0 -95 0 0 -326 0 -326 -47 68 c-81 119 -355 507 -385
547 l-30 37 -89 0 -89 0 0 -485z"/>
<path d="M4305 2575 l0 -485 95 0 95 0 -2 482 -3 483 -92 3 -93 3 0 -486z"/>
<path d="M4810 2575 l0 -485 96 0 97 0 -5 325 c-2 179 -3 323 -1 321 2 -2 47
-67 101 -144 53 -78 153 -223 222 -322 l124 -180 88 0 88 0 0 485 0 485 -97 0
-96 0 7 -327 c4 -193 3 -324 -2 -318 -5 6 -69 96 -142 200 -74 105 -154 219
-180 255 -26 36 -66 93 -90 128 l-43 62 -83 0 -84 0 0 -485z"/>
<path d="M5910 2747 c0 -183 5 -338 11 -372 31 -169 139 -268 322 -297 190
-29 365 52 436 202 l26 55 3 363 3 362 -96 0 -95 0 0 -322 c0 -205 -4 -338
-11 -363 -15 -53 -73 -110 -129 -125 -96 -26 -210 15 -246 87 -17 35 -19 69
-22 381 l-3 342 -99 0 -100 0 0 -313z"/>
<path d="M7010 2575 l0 -485 95 0 95 0 0 485 0 485 -95 0 -95 0 0 -485z"/>
<path d="M7430 2970 l0 -90 140 0 140 0 -2 -395 -3 -395 93 0 92 0 0 395 0
395 145 0 145 0 0 90 0 90 -375 0 -375 0 0 -90z"/>
<path d="M8340 3057 c0 -6 309 -547 326 -572 11 -15 14 -64 14 -207 l0 -188
90 0 90 0 0 190 0 191 165 289 c91 159 165 291 165 294 0 3 -47 6 -104 6
l-104 0 -90 -167 c-50 -93 -98 -182 -108 -199 l-18 -32 -107 197 -107 196
-106 3 c-58 1 -106 1 -106 -1z"/>
</g>
</svg>
